<svg width="214" height="188" viewBox="0 0 214 188" fill="none" xmlns="http://www.w3.org/2000/svg">
<path d="M89.1389 168.877C89.3524 168.663 89.7792 168.237 89.9928 168.023L119.027 138.989C124.425 138.836 129.131 135.003 130.799 129.839C131.002 128.762 131.857 127.907 132.934 127.704C136.807 126.453 140.009 123.251 141.474 119.165C141.677 118.087 142.531 117.233 143.608 117.03C147.482 115.779 150.684 112.577 152.148 108.49C152.351 107.413 153.205 106.558 154.283 106.355C159.66 104.474 163.28 99.9807 163.646 94.3696C173.025 83.6803 174.572 68.1482 167.514 55.5395L168.154 54.8991C171.57 51.4833 172.155 46.0907 169.304 42.3862C167.551 40.2061 165.376 38.8849 162.566 38.6364C159.973 38.6062 157.392 39.44 155.47 41.3614L154.616 42.2153C142.008 35.1574 126.257 36.486 115.786 46.083C110.18 46.8816 105.26 50.928 103.597 56.5238C103.602 56.9559 103.176 57.3827 102.53 57.5912C97.7931 58.832 94.1637 62.4614 92.9229 67.1982C92.9279 67.6303 92.5011 68.0572 91.8554 68.2657C87.1186 69.5065 83.4892 73.1359 82.2484 77.8727C82.2535 78.3048 81.8266 78.7316 81.181 78.9401C75.3664 80.3844 71.3205 85.3046 70.9537 90.9154L41.9194 119.95C41.7058 120.163 41.279 120.59 41.0655 120.804C32.6138 118.33 28.1053 120.653 25.7569 123.001C17.8577 130.9 24.9911 149.989 42.4723 167.47C59.9535 184.951 79.042 192.085 86.9412 184.186C89.2896 181.837 91.6129 177.329 89.1389 168.877ZM46.7426 163.2C31.6651 148.123 25.6444 131.855 30.1277 127.372C31.5627 125.937 34.0951 125.6 37.4527 126.265C36.5834 129.483 37.1342 133.459 39.107 138.059C39.7778 140.01 41.7293 140.681 43.4522 140.269C44.9568 139.639 46.0192 138.139 45.7855 136.625L45.0095 125.601C45.4365 125.174 45.8634 124.747 46.2905 124.32L77.0326 93.5782L77.0175 92.2824C76.9773 88.8265 79.3157 85.6139 82.7617 84.7901C82.9744 84.7214 83.1811 84.6427 83.3849 84.5592L84.7185 85.8928C86.0296 87.2039 87.7576 87.224 89.0385 85.943C90.3195 84.6621 90.2994 82.9341 88.9883 81.623L87.7419 80.3766C87.877 80.0792 87.9966 79.7713 88.0992 79.4532C88.7197 77.0846 90.8546 74.9497 93.4364 74.1159C93.6491 74.0472 93.8558 73.9685 94.0596 73.885L97.5784 77.4037C98.8895 78.7149 100.617 78.735 101.898 77.454C103.179 76.173 103.159 74.4451 101.848 73.1339L98.4165 69.7024C98.5517 69.405 98.6713 69.0971 98.7739 68.779C99.3944 66.4104 101.529 64.2756 104.111 63.4417C104.324 63.373 104.53 63.2943 104.734 63.2108L106.068 64.5444C107.379 65.8555 109.107 65.8756 110.388 64.5946C111.669 63.3137 111.649 61.5857 110.338 60.2746L109.091 59.0282C109.226 58.7308 109.346 58.4229 109.449 58.1048C110.272 54.6587 113.485 52.3206 116.941 52.3606L118.237 52.3756L119.091 51.5217C128.275 42.7739 142.73 41.4302 153.397 48.6813L155.572 50.0022L159.842 45.7324C160.482 45.0921 161.341 44.67 162.424 44.8986C162.856 44.9037 163.506 45.127 164.162 45.7827C164.162 45.7827 164.38 46.0013 164.599 46.2198C165.692 47.3124 165.066 49.2488 163.999 50.3163L159.942 54.3725L161.263 56.5476C168.515 67.2146 167.171 81.6693 158.636 90.6404L157.782 91.4944L158.011 92.5769C158.051 96.0327 155.926 99.0318 152.699 100.074C152.09 100.302 151.516 100.584 150.974 100.911L149.67 99.6071C148.359 98.2959 146.631 98.2758 145.35 99.5568C144.069 100.838 144.089 102.566 145.4 103.877L146.971 105.448C146.883 105.646 146.798 105.847 146.721 106.052C146.101 108.421 144.179 110.342 141.811 110.962C141.296 111.129 140.801 111.349 140.327 111.613L136.809 108.096C135.498 106.784 133.77 106.764 132.489 108.045C131.208 109.326 131.228 111.054 132.54 112.365L136.296 116.122C136.207 116.32 136.123 116.52 136.046 116.726C135.425 119.094 133.504 121.016 131.135 121.636C130.627 121.826 130.141 122.054 129.678 122.314L128.32 120.955C127.009 119.644 125.281 119.624 124 120.905C122.719 122.186 122.739 123.914 124.05 125.225L125.544 126.718C125.403 127.009 125.273 127.306 125.158 127.613C124.115 130.841 121.116 132.965 117.66 132.925L116.365 132.91L85.6222 163.653C84.9818 164.293 84.3412 164.934 83.7009 165.574L81.9878 166.85L82.0331 166.981C81.1108 167.307 80.0764 167.382 78.9688 167.247C70.9691 166.506 59.3979 155.788 53.4879 149.024C52.3903 147.5 50.2302 147.475 49.1628 148.542C47.6632 149.604 47.4698 151.546 48.781 152.857C49.2181 153.294 50.7526 155.256 53.1563 157.659C59.0563 163.559 69.0927 172.315 78.3935 173.503C80.3097 173.638 82.1027 173.416 83.7455 172.873C84.3101 176.038 83.9495 178.436 82.5704 179.815C78.0878 184.298 61.8201 178.278 46.7426 163.2Z" fill="white"/>
<path d="M144.897 60.6759C146.208 61.9871 147.936 62.0072 149.217 60.7262C150.498 59.4452 150.478 57.7173 149.167 56.4062C143.048 50.2878 132.477 51.2447 125.431 58.2897C124.15 59.5707 124.171 61.2986 125.482 62.6098C126.793 63.9209 128.521 63.941 129.802 62.66C134.499 57.9632 141.182 56.9611 144.897 60.6759Z" fill="white"/>
<path d="M174.926 173.192C174.169 173.493 172.095 174.336 170.32 175.064L167.095 176.376L157.393 172.489L147.695 168.591L148.141 168.338C148.383 168.194 149.935 167.429 151.587 166.629C153.24 165.828 154.596 165.151 154.612 165.125C154.624 165.093 150.956 163.661 146.465 161.934L138.294 158.789L139.251 158.308C139.779 158.036 140.836 157.537 141.618 157.189C142.392 156.843 143.017 156.547 143.007 156.524C142.997 156.501 140.364 155.298 137.159 153.859C133.955 152.42 131.322 151.216 131.306 151.178C131.289 151.14 132.533 151.23 134.069 151.37C135.616 151.515 141.031 152.032 146.12 152.504C151.204 152.986 155.35 153.397 155.341 153.419C155.336 153.448 153.766 154.149 151.861 154.989C149.956 155.83 148.404 156.531 148.41 156.546C148.42 156.569 152.804 157.745 158.151 159.172C163.495 160.592 167.867 161.764 167.867 161.782C167.855 161.797 166.121 162.597 164.005 163.55C161.893 164.51 160.185 165.308 160.206 165.335C160.248 165.371 166.709 167.653 176.128 170.958L178.372 171.746L177.335 172.19C176.768 172.434 175.684 172.89 174.926 173.192Z" fill="#FAFF00"/>
<path d="M2.86753 91.4497C3.45864 90.8857 5.07095 89.3243 6.4479 87.9828L8.9553 85.5548L19.3969 85.5188L29.8386 85.4946L29.5186 85.8971C29.3474 86.1219 28.1909 87.4139 26.9539 88.7771C25.717 90.1404 24.7095 91.2781 24.7042 91.3075C24.7047 91.3426 28.6387 91.2938 33.4452 91.2106L42.1913 91.061L41.4815 91.8668C41.0924 92.317 40.2962 93.1767 39.7001 93.7936C39.1096 94.4045 38.6399 94.9143 38.6577 94.9317C38.6754 94.9491 41.5643 95.0773 45.0702 95.2095C48.5762 95.3418 51.4651 95.47 51.4946 95.499C51.5242 95.5279 50.3367 95.9118 48.8591 96.358C47.3699 96.8043 42.1545 98.3576 37.2581 99.8308C32.3615 101.292 28.3628 102.467 28.3624 102.444C28.3562 102.414 29.5542 101.175 31.0104 99.6798C32.4665 98.1849 33.6472 96.9513 33.6353 96.9397C33.6176 96.9224 29.1149 97.4764 23.6247 98.16C18.1404 98.8493 13.6493 99.4032 13.6432 99.3857C13.6488 99.368 14.9609 97.9745 16.5715 96.296C18.1762 94.6118 19.4652 93.2303 19.4358 93.2131C19.3832 93.1961 12.5428 93.5038 2.57918 93.9733L0.206055 94.0848L1.00317 93.2838C1.43899 92.8447 2.27642 92.0138 2.86753 91.4497Z" fill="#FAFF00"/>
<path d="M212.121 96.4073C211.702 96.9128 210.563 98.31 209.592 99.5096L207.82 101.682L199.503 102.701L191.184 103.71L191.401 103.359C191.516 103.164 192.317 102.024 193.175 100.821C194.034 99.617 194.73 98.6148 194.732 98.5909C194.728 98.5629 191.597 98.9748 187.775 99.4968L180.819 100.445L181.309 99.7357C181.577 99.3401 182.131 98.5795 182.549 98.0314C182.962 97.4885 183.289 97.0377 183.273 97.0255C183.257 97.0134 180.943 97.1851 178.136 97.412C175.33 97.639 173.016 97.8107 172.99 97.7905C172.963 97.7702 173.874 97.3516 175.01 96.856C176.155 96.3591 180.166 94.6268 183.93 92.9886C187.696 91.3597 190.772 90.0443 190.775 90.063C190.783 90.0857 189.944 91.1872 188.923 92.5166C187.903 93.846 187.077 94.941 187.087 94.9491C187.103 94.9613 190.64 94.0928 194.951 93.0276C199.257 91.9583 202.785 91.0911 202.791 91.1045C202.788 91.1191 201.873 92.354 200.746 93.8443C199.625 95.3387 198.727 96.5619 198.752 96.5728C198.796 96.5813 204.218 95.6876 212.114 94.3688L213.995 94.055L213.435 94.7689C213.129 95.1602 212.539 95.9017 212.121 96.4073Z" fill="#FAFF00"/>
<path d="M199.972 5.92527C200.119 6.56636 200.537 8.32425 200.899 9.82885L201.548 12.5626L197.329 19.8515L193.101 27.1357L192.955 26.7492C192.87 26.5385 192.452 25.2077 192.018 23.7918C191.584 22.376 191.212 21.2116 191.194 21.1959C191.169 21.182 189.604 23.9426 187.707 27.3249L184.255 33.4788L183.99 32.6568C183.838 32.2028 183.571 31.2986 183.39 30.6325C183.21 29.9729 183.05 29.4384 183.031 29.4437C183.012 29.449 181.75 31.4095 180.234 33.7982C178.718 36.1869 177.455 38.1474 177.423 38.1562C177.392 38.165 177.61 37.1817 177.904 35.9709C178.203 34.752 179.256 30.4872 180.234 26.4772C181.22 22.4719 182.038 19.2086 182.054 19.2179C182.077 19.2254 182.442 20.5639 182.877 22.186C183.312 23.8081 183.68 25.1321 183.693 25.1286C183.712 25.1233 185.162 21.7612 186.924 17.6585C188.679 13.5575 190.124 10.2036 190.139 10.2065C190.148 10.2176 190.573 11.6981 191.071 13.5024C191.577 15.305 192.002 16.7646 192.026 16.7511C192.059 16.7213 194.628 11.8308 198.355 4.6986L199.243 2.99999L199.47 3.88094C199.594 4.36304 199.825 5.28417 199.972 5.92527Z" fill="#FAFF00"/>
<path d="M69.6625 2.93897C68.9655 3.59527 67.0363 5.38157 65.3787 6.90573L62.3785 9.68372L62.3535 22.9454L62.3429 36.2093L62.8404 35.8704C63.1183 35.6906 64.715 34.4382 66.3998 33.0956C68.0845 31.753 69.4906 30.6641 69.527 30.6622C69.5705 30.6687 69.5173 35.6593 69.4234 41.7528L69.2544 52.8411L70.2503 52.0746C70.8068 51.6559 71.8691 50.7886 72.6314 50.1348C73.3864 49.4873 74.0165 48.9761 74.038 49.0016C74.0595 49.027 74.2235 52.7194 74.3938 57.1965C74.564 61.6737 74.728 65.3661 74.7639 65.4084C74.7997 65.4508 75.2727 64.0065 75.8221 62.2039C76.3716 60.3866 78.2842 54.0207 80.0982 48.0466C81.8977 42.0702 83.3442 37.1867 83.3152 37.1823C83.279 37.1695 81.747 38.4834 79.8998 40.0824C78.0525 41.6814 76.528 42.9743 76.5137 42.9574C76.4922 42.9319 77.1694 37.3036 78.0051 30.4422C78.848 23.5893 79.5251 17.9758 79.5035 17.9651C79.4816 17.9692 77.7596 19.4023 75.6854 21.1667C73.604 22.9226 71.8968 24.3284 71.8754 24.2882C71.8544 24.2184 72.2224 15.5783 72.7849 2.99671L72.9185 0L71.9286 0.878242C71.3861 1.35823 70.3594 2.28267 69.6625 2.93897Z" fill="#FAFF00"/>
</svg>
