<svg width="436" height="472" viewBox="0 0 436 472" fill="none" xmlns="http://www.w3.org/2000/svg">
<g clip-path="url(#clip0_1190_3222)">
<rect width="436" height="472" fill="#0B0B23"/>
<g style="mix-blend-mode:screen" opacity="0.7" filter="url(#filter0_f_1190_3222)">
<path d="M381.085 46.3328C454.453 -19.4708 474.239 -91.6818 474.961 -119.562C471.527 -175.946 461.141 -263.164 447.066 -160.959C429.473 -33.2036 358.01 -10.3952 231.267 106.875C129.872 200.692 182.452 221.882 221.416 220.75L288.903 185.427C289.061 166.481 307.717 112.136 381.085 46.3328Z" fill="url(#paint0_radial_1190_3222)"/>
</g>
<g opacity="0.7" filter="url(#filter1_f_1190_3222)">
<path d="M129.097 72.4179C10.3215 143.507 -25.5592 295.706 48.9549 412.363C123.469 529.02 280.161 565.96 398.936 494.871L404.876 491.316C523.651 420.226 559.531 268.028 485.017 151.371C410.503 34.7135 253.811 -2.2264 135.036 68.863L129.097 72.4179Z" fill="url(#paint1_radial_1190_3222)"/>
</g>
<g style="mix-blend-mode:color-dodge" opacity="0.7" filter="url(#filter2_f_1190_3222)">
<path d="M365.404 30.101C241.271 -12.869 103.612 52.1404 57.9354 175.303C12.2586 298.466 75.8602 433.144 199.994 476.114L210.339 479.695C334.473 522.665 472.131 457.656 517.808 334.493C563.485 211.33 499.883 76.6523 375.75 33.6823L365.404 30.101Z" fill="url(#paint2_radial_1190_3222)"/>
</g>
<g style="mix-blend-mode:color-dodge" opacity="0.7" filter="url(#filter3_f_1190_3222)">
<path d="M223.004 166.452C116.982 129.752 -0.590462 185.275 -39.6026 290.468C-78.6148 395.66 -24.2932 510.687 81.728 547.388L90.5641 550.446C196.585 587.147 314.158 531.623 353.17 426.43C392.182 321.238 337.861 206.211 231.84 169.511L223.004 166.452Z" fill="url(#paint3_radial_1190_3222)"/>
</g>
</g>
<defs>
<filter id="filter0_f_1190_3222" x="123.553" y="-257.184" width="400.408" height="526.977" filterUnits="userSpaceOnUse" color-interpolation-filters="sRGB">
<feFlood flood-opacity="0" result="BackgroundImageFix"/>
<feBlend mode="normal" in="SourceGraphic" in2="BackgroundImageFix" result="shape"/>
<feGaussianBlur stdDeviation="24.5" result="effect1_foregroundBlur_1190_3222"/>
</filter>
<filter id="filter1_f_1190_3222" x="-125.02" y="-102.424" width="784.012" height="768.583" filterUnits="userSpaceOnUse" color-interpolation-filters="sRGB">
<feFlood flood-opacity="0" result="BackgroundImageFix"/>
<feBlend mode="normal" in="SourceGraphic" in2="BackgroundImageFix" result="shape"/>
<feGaussianBlur stdDeviation="67.5618" result="effect1_foregroundBlur_1190_3222"/>
</filter>
<filter id="filter2_f_1190_3222" x="-77.5093" y="-103.791" width="730.762" height="717.378" filterUnits="userSpaceOnUse" color-interpolation-filters="sRGB">
<feFlood flood-opacity="0" result="BackgroundImageFix"/>
<feBlend mode="normal" in="SourceGraphic" in2="BackgroundImageFix" result="shape"/>
<feGaussianBlur stdDeviation="60.323" result="effect1_foregroundBlur_1190_3222"/>
</filter>
<filter id="filter3_f_1190_3222" x="-172.888" y="34.4907" width="659.343" height="647.917" filterUnits="userSpaceOnUse" color-interpolation-filters="sRGB">
<feFlood flood-opacity="0" result="BackgroundImageFix"/>
<feBlend mode="normal" in="SourceGraphic" in2="BackgroundImageFix" result="shape"/>
<feGaussianBlur stdDeviation="60.323" result="effect1_foregroundBlur_1190_3222"/>
</filter>
<radialGradient id="paint0_radial_1190_3222" cx="0" cy="0" r="1" gradientUnits="userSpaceOnUse" gradientTransform="translate(291.467 99.9335) rotate(-56.9533) scale(173.68 148.633)">
<stop stop-color="#DC4897"/>
<stop offset="1" stop-color="#484EB7" stop-opacity="0"/>
<stop offset="1" stop-color="#9FA7FF" stop-opacity="0"/>
</radialGradient>
<radialGradient id="paint1_radial_1190_3222" cx="0" cy="0" r="1" gradientUnits="userSpaceOnUse" gradientTransform="translate(294.977 235.879) rotate(32.5209) scale(265.013 262.276)">
<stop stop-color="#45AEA4"/>
<stop offset="1" stop-color="#39CABB" stop-opacity="0"/>
</radialGradient>
<radialGradient id="paint2_radial_1190_3222" cx="0" cy="0" r="1" gradientUnits="userSpaceOnUse" gradientTransform="translate(158.619 290.676) rotate(-26.8044) scale(225.684 221.631)">
<stop stop-color="#5DAAAE"/>
<stop offset="1" stop-color="#484EB7" stop-opacity="0"/>
<stop offset="1" stop-color="#9FA7FF" stop-opacity="0"/>
</radialGradient>
<radialGradient id="paint3_radial_1190_3222" cx="0" cy="0" r="1" gradientUnits="userSpaceOnUse" gradientTransform="translate(46.3904 389.007) rotate(-26.8044) scale(192.754 189.293)">
<stop stop-color="#5DAAAE"/>
<stop offset="1" stop-color="#484EB7" stop-opacity="0"/>
<stop offset="1" stop-color="#9FA7FF" stop-opacity="0"/>
</radialGradient>
<clipPath id="clip0_1190_3222">
<rect width="436" height="472" fill="white"/>
</clipPath>
</defs>
</svg>
