<svg width="150" height="151" viewBox="0 0 150 151" fill="none" xmlns="http://www.w3.org/2000/svg">
<path d="M82.5003 48C78.5003 38.8 69.8336 40.1667 66.0003 42L56.0003 48.9983L47.5003 54.9983L41.0003 61.9983L32.5003 69.4983L28.0003 75.9983L20.5003 82.4983L16.0003 87.4983L9.50025 95.9983L3.50025 109.498V123.498L6.00025 134.498L3.50025 140.998L6.00025 145.498H12.0003L18.5003 142.498L32.5003 147.998L50.0003 142.498L62.0003 135.998L72.5003 124.498L84.5003 113.498L96.0003 102.998L106.5 86.4983C111 84.165 117.3 79.8983 106.5 81.4983C80.5003 84.4983 87.5003 59.5 82.5003 48Z" fill="#0DF0FF"/>
<path d="M82.8145 19.0475C82.601 19.261 82.1742 19.6879 81.9606 19.9014L52.9263 48.9357C47.5288 49.0887 42.8221 52.9216 41.1543 58.0855C40.951 59.163 40.0969 60.0172 39.0194 60.2204C35.1463 61.4712 31.9442 64.6733 30.4798 68.7599C30.2766 69.8374 29.4224 70.6916 28.3449 70.8948C24.4718 72.1457 21.2697 75.3477 19.8053 79.4344C19.6021 80.5119 18.748 81.3661 17.6705 81.5693C12.293 83.4507 8.67366 87.9438 8.30715 93.5549C-1.07125 104.244 -2.61823 119.776 4.43945 132.385L3.79908 133.025C0.383209 136.441 -0.201863 141.834 2.64904 145.538C4.40209 147.718 6.57743 149.04 9.38787 149.288C11.98 149.318 14.5618 148.484 16.4832 146.563L17.3371 145.709C29.9455 152.767 45.696 151.439 56.1672 141.842C61.7733 141.043 66.6935 136.996 68.3561 131.401C68.351 130.969 68.7779 130.542 69.4235 130.333C74.1603 129.093 77.7897 125.463 79.0305 120.726C79.0255 120.294 79.4523 119.867 80.098 119.659C84.8348 118.418 88.4642 114.789 89.705 110.052C89.6999 109.62 90.1268 109.193 90.7724 108.984C96.587 107.54 100.633 102.62 101 97.0091L130.034 67.9748C130.248 67.7612 130.674 67.3344 130.888 67.1209C139.34 69.5949 143.848 67.2716 146.196 64.9232C154.096 57.024 146.962 37.9355 129.481 20.4543C112 2.97306 92.9114 -4.16027 85.0122 3.73893C82.6638 6.08735 80.3405 10.5958 82.8145 19.0475ZM125.211 24.7241C140.288 39.8016 146.309 56.0696 141.826 60.5529C140.391 61.9879 137.858 62.325 134.501 61.6593C135.37 58.4418 134.819 54.4655 132.846 49.8658C132.176 47.9143 130.224 47.2435 128.501 47.6555C126.997 48.2858 125.934 49.7854 126.168 51.2998L126.944 62.3232C126.517 62.7503 126.09 63.1771 125.663 63.6042L94.9208 94.3463L94.9359 95.6422C94.9761 99.098 92.6377 102.311 89.1917 103.134C88.979 103.203 88.7723 103.282 88.5685 103.365L87.2349 102.032C85.9238 100.721 84.1958 100.7 82.9149 101.981C81.6339 103.262 81.654 104.99 82.9651 106.302L84.2115 107.548C84.0764 107.845 83.9568 108.153 83.8542 108.471C83.2337 110.84 81.0988 112.975 78.517 113.809C78.3042 113.877 78.0976 113.956 77.8938 114.039L74.375 110.521C73.0639 109.21 71.336 109.19 70.055 110.471C68.774 111.752 68.7941 113.479 70.1053 114.791L73.5368 118.222C73.4017 118.519 73.2821 118.827 73.1795 119.146C72.559 121.514 70.4241 123.649 67.8423 124.483C67.6295 124.551 67.4229 124.63 67.219 124.714L65.8855 123.38C64.5743 122.069 62.8464 122.049 61.5654 123.33C60.2845 124.611 60.3046 126.339 61.6157 127.65L62.8621 128.896C62.727 129.194 62.6074 129.502 62.5048 129.82C61.681 133.266 58.4687 135.604 55.0126 135.564L53.7168 135.549L52.8629 136.403C43.6779 145.151 29.2232 146.494 18.5565 139.243L16.3814 137.922L12.1116 142.192C11.4712 142.832 10.6121 143.254 9.52979 143.026C9.09769 143.021 8.44727 142.798 7.79157 142.142C7.79157 142.142 7.57301 141.923 7.35444 141.705C6.26186 140.612 6.8874 138.676 7.95485 137.608L12.0111 133.552L10.6901 131.377C3.43878 120.71 4.78252 106.255 13.3171 97.2841L14.171 96.4302L13.9426 95.3476C13.9024 91.8918 16.0272 88.8927 19.2547 87.8504C19.8633 87.6225 20.4379 87.34 20.9796 87.0133L22.2837 88.3174C23.5948 89.6286 25.3228 89.6487 26.6038 88.3677C27.8847 87.0867 27.8646 85.3588 26.5535 84.0477L24.9822 82.4764C25.0705 82.2783 25.1553 82.0777 25.2323 81.8723C25.8528 79.5038 27.7742 77.5824 30.1424 76.9622C30.6572 76.7959 31.1526 76.5759 31.6269 76.3117L35.1441 79.8289C36.4552 81.14 38.1831 81.1601 39.4641 79.8792C40.7451 78.5982 40.725 76.8702 39.4138 75.5591L35.6577 71.8029C35.746 71.6049 35.8308 71.4043 35.9078 71.1989C36.5283 68.8303 38.4496 66.909 40.8179 66.2887C41.3266 66.0983 41.8125 65.8707 42.2749 65.6108L43.6336 66.9695C44.9448 68.2807 46.6727 68.3008 47.9537 67.0198C49.2346 65.7388 49.2145 64.0109 47.9034 62.6997L46.4097 61.206C46.5504 60.9158 46.6809 60.6181 46.7957 60.3114C47.8381 57.0839 50.8369 54.9593 54.293 54.9993L55.5888 55.0143L86.3312 24.272C86.9716 23.6316 87.6122 22.991 88.2525 22.3506L89.9656 21.0746L89.9203 20.9432C90.8426 20.6177 91.877 20.5421 92.9846 20.678C100.984 21.4189 112.555 32.1364 118.466 38.9001C119.563 40.4248 121.723 40.4499 122.791 39.3825C124.29 38.32 124.484 36.3786 123.172 35.0675C122.735 34.6303 121.201 32.6688 118.797 30.265C112.897 24.365 102.861 15.6093 93.5599 14.4215C91.6437 14.2865 89.8507 14.5088 88.2079 15.0511C87.6432 11.8861 88.0039 9.48888 89.383 8.10974C93.8656 3.62616 110.133 9.64655 125.211 24.7241Z" fill="white"/>
<path d="M27.0566 127.249C25.7455 125.937 24.0175 125.917 22.7366 127.198C21.4556 128.479 21.4757 130.207 22.7868 131.518C28.9052 137.637 39.4769 136.68 46.5219 129.635C47.8029 128.354 47.7828 126.626 46.4717 125.315C45.1605 124.004 43.4326 123.983 42.1516 125.264C37.4548 129.961 30.7715 130.963 27.0566 127.249Z" fill="white"/>
</svg>
