<svg width="195" height="195" viewBox="0 0 195 195" fill="none" xmlns="http://www.w3.org/2000/svg">
<path fill-rule="evenodd" clip-rule="evenodd" d="M168.138 46.2744C169.553 45.2577 171.519 45.587 172.529 47.0098C178.121 54.882 181.127 64.3154 181.127 73.9907C181.127 83.666 178.121 93.0993 172.529 100.972C171.519 102.394 169.553 102.724 168.138 101.707C166.724 100.69 166.396 98.7128 167.407 97.2899C172.236 90.4919 174.832 82.3457 174.832 73.9907C174.832 65.6356 172.236 57.4895 167.407 50.6914C166.396 49.2686 166.724 47.291 168.138 46.2744Z" fill="white"/>
<path fill-rule="evenodd" clip-rule="evenodd" d="M84.9132 145.034C111.322 156.909 144.318 151.415 167.107 128.491C196.25 99.1749 197.056 53.0681 169.65 25.4998C142.244 -2.06845 96.4089 -1.25743 67.2654 28.0586C44.8991 50.5573 39.2231 82.9456 50.1808 109.254C48.7216 110.305 46.6366 112.478 45.9814 113.173C45.9805 113.171 45.9796 113.169 45.9786 113.167L20.1959 139.102L20.8939 149.075C21.104 150.445 20.1485 151.802 18.7954 152.372C17.2459 152.744 15.4908 152.138 14.8876 150.372C13.1133 146.211 12.6181 142.614 13.3998 139.703C10.3801 139.101 8.10268 139.406 6.81214 140.704C2.7801 144.76 8.19472 159.477 21.7546 173.117C35.3144 186.757 49.9447 192.204 53.976 188.148C55.2164 186.9 55.5407 184.731 55.0328 181.868C53.5554 182.359 51.9429 182.56 50.2196 182.437C41.855 181.363 32.8288 173.442 27.5227 168.104C26.0074 166.58 24.8762 165.252 24.1997 164.458L24.1995 164.458L24.1993 164.458L24.1981 164.456C23.9104 164.119 23.7051 163.878 23.5878 163.76C22.4086 162.574 22.5826 160.817 23.9312 159.856C24.8912 158.89 26.8338 158.913 27.8209 160.292C33.1361 166.411 43.5425 176.107 50.737 176.777C51.7331 176.9 52.6634 176.832 53.4928 176.537L53.4521 176.419L54.9927 175.264L80.9328 149.171C80.928 149.168 80.9233 149.166 80.9185 149.164L84.9132 145.034ZM86.4286 151.55C114.223 162.257 147.661 155.728 170.922 132.329C202.005 101.062 203.144 51.515 173.466 21.6616C143.788 -8.19175 94.5324 -7.04614 63.4498 24.2204C40.5832 47.2225 33.9226 80.1185 43.8156 107.788L43.5287 107.723L16.6489 134.762C9.04798 132.524 4.99333 134.626 2.88128 136.75C-4.2228 143.896 2.19252 161.165 17.9141 176.98C33.6357 192.795 50.8028 199.248 57.9069 192.102C60.0189 189.977 62.1084 185.898 59.8833 178.252L86.4286 151.55Z" fill="white"/>
</svg>
