<svg width="324" height="360" viewBox="0 0 324 360" fill="none" xmlns="http://www.w3.org/2000/svg">
<g opacity="0.1">
<path d="M23.8055 -120.264L26.0932 -112.301L28.3907 -104.345L30.7525 -96.4352L33.2346 -88.6106L35.8912 -80.9102L38.7714 -73.369L41.9172 -66.0169L45.2934 -58.8287L48.9672 -51.8525L52.919 -45.0741L57.1651 -38.5052L61.7195 -32.1558L66.5948 -26.0348L71.8022 -20.1502L77.3497 -14.5078L83.2388 -9.10849L89.4575 -3.94376L95.9787 1.00555L102.772 5.76152L109.803 10.3476L117.036 14.7902L124.429 19.1188L131.939 23.3646L139.521 27.5589L147.134 31.7309L154.744 35.9049L162.45 40.0113L170.158 44.1156L177.982 48.1377L185.92 52.078L193.955 55.9498L202.047 59.781L210.138 63.6127L218.155 67.4972L226.013 71.4949L233.622 75.6702L240.892 80.0867L247.742 84.8016L254.113 89.8581L259.97 95.2801L265.298 101.079L270.099 107.253L274.4 113.782L278.258 120.628L281.785 127.709L285.151 134.904L288.545 142.079L292.148 149.106L296.117 155.872L300.572 162.292L305.586 168.315L311.18 173.924L317.328 179.139L323.956 184.012L330.952 188.624L338.171 193.076L345.449 197.487L352.615 201.977L359.502 206.666L365.973 211.652L371.931 217.001L377.303 222.769L382.079 228.961L386.283 235.559L389.969 242.527L393.211 249.811L396.103 257.343L398.754 265.048L401.28 272.841L403.81 280.631L406.489 288.316L409.458 295.794L412.843 302.976L416.67 309.843L421.035 316.327L425.792 322.532L430.867 328.512L436.17 334.328L441.609 340.048L447.094 345.734L452.545 351.446L457.895 357.229L463.095 363.119" stroke="white" stroke-width="2" stroke-miterlimit="10"/>
<path d="M13.5315 -112.837L15.834 -104.885L18.1182 -96.9198L20.444 -88.9845L22.874 -81.1234L25.4696 -73.3801L28.2872 -65.7949L31.3754 -58.4025L34.742 -51.2081L38.4391 -44.2492L42.4462 -37.5109L46.783 -31.0074L51.464 -24.7489L56.5 -18.7432L61.8978 -12.9951L67.6586 -7.50537L73.7739 -2.26812L80.219 2.73435L86.9535 7.53079L93.9355 12.151L101.122 16.6254L108.468 20.9866L115.924 25.2691L123.443 29.5076L130.976 33.7354L138.483 37.9815L145.932 42.269L153.45 46.5079L160.924 50.7779L168.493 54.9803L176.167 59.1073L183.94 63.1644L191.783 67.1716L199.649 71.1626L207.473 75.183L215.179 79.2882L222.679 83.5396L229.885 88.0002L236.713 92.7303L243.091 97.78L248.974 103.183L254.339 108.954L259.188 115.094L263.546 121.582L267.463 128.384L271.04 135.428L274.436 142.602L277.832 149.775L281.413 156.817L285.338 163.614L289.732 170.077L294.673 176.15L300.191 181.813L306.265 187.079L312.827 191.998L319.77 196.646L326.953 201.123L334.216 205.544L341.387 210.029L348.301 214.698L354.82 219.648L360.842 224.951L366.293 230.662L371.159 236.788L375.46 243.318L379.243 250.215L382.583 257.429L385.569 264.894L388.307 272.535L390.918 280.268L393.541 287.992L396.328 295.599L399.428 302.983L402.97 310.052L407.052 316.737L411.604 323.087L416.709 329.044L422.165 334.75L427.875 340.276L433.734 345.696L439.639 351.083L445.496 356.504L451.226 362.016L456.769 367.66" stroke="white" stroke-width="2" stroke-miterlimit="10"/>
<path d="M3.10459 -105.298L5.43783 -97.3686L7.72854 -89.4088L10.0414 -81.4648L12.4447 -73.5853L15.0064 -65.8185L17.7893 -58.2093L20.8484 -50.7967L24.2285 -43.6127L27.9367 -36.6623L32.0078 -29.9705L36.4404 -23.536L41.2498 -17.3698L46.4448 -11.4783L52.028 -5.86307L57.9932 -0.519995L64.3223 4.56403L70.9778 9.41555L77.9082 14.0714L85.0612 18.5686L92.3846 22.9446L99.8243 27.2377L107.326 31.4869L114.835 35.7303L122.304 40.0025L129.692 44.3322L136.971 48.7404L144.291 53.1185L151.524 57.5585L158.833 61.9446L166.241 66.2609L173.749 70.5048L181.343 74.6882L188.985 78.8374L196.62 82.9916L204.176 87.2014L211.573 91.5254L218.719 96.0272L225.527 100.771L231.912 105.814L237.818 111.2L243.22 116.944L248.118 123.047L252.537 129.491L256.523 136.244L260.163 143.243L263.602 150.385L267.02 157.542L270.597 164.585L274.497 171.399L278.849 177.891L283.737 184.002L289.197 189.705L295.214 195.01L301.727 199.963L308.633 204.636L315.796 209.127L323.058 213.547L330.249 218.017L337.204 222.655L343.782 227.562L349.879 232.811L355.419 238.457L360.384 244.512L364.787 250.968L368.673 257.792L372.11 264.935L375.187 272.335L378.008 279.917L380.697 287.593L383.405 295.256L386.292 302.791L389.512 310.089L393.197 317.055L397.447 323.62L402.318 329.742L407.61 335.565L413.434 341.008L419.536 346.254L425.801 351.384L432.113 356.48L438.367 361.618L444.471 366.862L450.356 372.262" stroke="white" stroke-width="2" stroke-miterlimit="10"/>
<path d="M-7.42675 -97.6791L-5.04512 -89.7847L-2.72632 -81.8456L-0.401752 -73.9107L2.00184 -66.032L4.5577 -58.2617L7.33447 -50.6488L10.3925 -43.2363L13.7815 -36.0594L17.5397 -29.1456L21.671 -22.4975L26.2028 -16.1346L31.1397 -10.0602L36.4889 -4.27963L42.2486 1.20869L48.4056 6.414L54.9315 11.3565L61.7782 16.0706L68.8843 20.5999L76.1878 24.9886L83.6272 29.2805L91.1408 33.5195L98.6681 37.7488L106.152 42.009L113.542 46.3359L120.8 50.7575L127.898 55.2921L135.013 59.8156L142.002 64.4281L149.049 68.9994L156.187 73.5056L163.433 77.9359L170.779 82.2941L178.199 86.5993L185.648 90.8847L193.06 95.1964L200.356 99.5899L207.442 104.133L214.226 108.893L220.613 113.934L226.539 119.304L231.977 125.022L236.926 131.087L241.409 137.485L245.47 144.183L249.184 151.128L252.684 158.226L256.14 165.355L259.734 172.386L263.629 179.202L267.958 185.71L272.812 191.843L278.232 197.573L284.21 202.906L290.691 207.88L297.576 212.567L304.733 217.06L312.008 221.469L319.232 225.915L326.241 230.513L332.891 235.367L339.074 240.554L344.715 246.127L349.787 252.105L354.3 258.481L358.292 265.228L361.829 272.3L364.995 279.635L367.895 287.161L370.659 294.783L373.446 302.388L376.424 309.858L379.75 317.08L383.56 323.956L387.955 330.417L392.992 336.42L398.68 341.959L404.664 347.288L411.134 352.27L417.78 357.127L424.477 361.947L431.109 366.814L437.574 371.8L443.792 376.962" stroke="white" stroke-width="2" stroke-miterlimit="10"/>
<path d="M-18.0435 -89.9929L-15.5944 -82.1474L-13.2247 -74.2453L-10.8627 -66.3376L-8.43133 -58.4795L-5.85279 -50.7261L-3.05371 -43.1299L0.0309188 -35.7372L3.45498 -28.5862L7.26002 -21.7067L11.4702 -15.1157L16.1041 -8.82672L21.1661 -2.8427L26.6625 2.83192L32.5871 8.2014L38.9201 13.28L45.6234 18.0947L52.6399 22.6863L59.8997 27.1046L67.3315 31.4003L74.8654 35.6233L82.4326 39.8226L89.9672 44.0451L97.409 48.3337L104.707 52.7246L111.824 57.2448L118.737 61.9101L125.639 66.5835L132.383 71.3692L139.168 76.1254L146.04 80.8203L153.024 85.4349L160.126 89.9654L167.33 94.4238L174.61 98.8272L181.87 103.246L189.061 107.713L196.083 112.3L202.834 117.082L209.216 122.125L215.158 127.482L220.631 133.173L225.632 139.201L230.182 145.55L234.323 152.19L238.122 159.074L241.697 166.117L245.211 173.204L248.84 180.209L252.749 187.014L257.076 193.522L261.915 199.665L267.313 205.409L273.27 210.756L279.734 215.741L286.613 220.431L293.779 224.916L301.081 229.305L308.351 233.715L315.427 238.264L322.162 243.057L328.444 248.172L334.195 253.665L339.385 259.558L344.015 265.849L348.12 272.515L351.76 279.512L355.016 286.783L357.992 294.253L360.829 301.822L363.69 309.374L366.749 316.786L370.166 323.942L374.08 330.743L378.594 337.118L383.765 343.024L389.605 348.454L395.84 353.602L402.645 358.345L409.641 362.951L416.693 367.517L423.677 372.132L430.481 376.875L437.016 381.81" stroke="white" stroke-width="2" stroke-miterlimit="10"/>
<path d="M-28.7172 -82.2883L-26.1808 -74.5054L-23.7369 -66.6565L-21.3117 -58.7943L-18.825 -50.976L-16.1956 -43.2593L-13.3463 -35.6993L-10.2083 -28.3451L-6.72391 -21.2376L-2.84888 -14.4084L1.44842 -7.88015L6.18555 -1.66527L11.3714 4.22987L17.0081 9.80378L23.0863 15.0632L29.5792 20.027L36.4408 24.7281L43.6066 29.2125L50.9992 33.5354L58.5388 37.7535L66.1474 41.9223L73.75 46.0955L81.2761 50.3232L88.6629 54.6501L95.8595 59.1126L102.83 63.7363L109.556 68.534L116.242 73.3604L122.744 78.3177L129.272 83.2562L135.883 88.1364L142.689 92.8766L149.524 97.5968L156.499 102.217L163.578 106.764L170.7 111.279L177.784 115.822L184.733 120.461L191.442 125.271L197.813 130.321L203.77 135.667L209.277 141.333L214.331 147.322L218.951 153.621L223.176 160.201L227.069 167.017L230.733 173.997L234.321 181.03L238.004 187.996L241.948 194.776L246.292 201.271L251.135 207.411L256.531 213.156L262.483 218.505L268.949 223.489L275.838 228.17L283.029 232.636L290.373 236.994L297.705 241.36L304.862 245.85L311.696 250.571L318.091 255.605L323.966 261.009L329.285 266.809L334.043 273.009L338.269 279.589L342.017 286.508L345.364 293.713L348.419 301.127L351.327 308.645L354.259 316.146L357.388 323.507L360.88 330.609L364.875 337.352L369.479 343.662L374.752 349.495L380.706 354.843L387.3 359.735L394.163 364.435L401.471 368.818L408.843 373.155L416.147 377.542L423.262 382.062L430.092 386.786" stroke="white" stroke-width="2" stroke-miterlimit="10"/>
<path d="M-39.423 -74.5869L-36.7792 -66.8806L-34.2379 -59.1014L-31.7237 -51.3027L-29.1547 -43.5432L-26.447 -35.8825L-23.5207 -28.3776L-20.3037 -21.0797L-16.7357 -14.032L-12.7698 -7.26789L-8.37279 -0.810883L-3.52434 5.32442L1.78485 11.1314L7.55546 16.6096L13.775 21.768L20.4112 26.6294L27.4115 31.2314L34.7052 35.6243L42.2086 39.8678L49.8343 44.0241L57.4974 48.1539L65.117 52.3146L72.6187 56.5592L79.9381 60.9338L87.0243 65.4747L93.8436 70.2056L100.383 75.1363L106.851 80.1175L113.251 85.1469L119.504 90.2816L125.841 95.3565L132.309 100.338L138.932 105.208L145.709 109.969L152.61 114.642L159.581 119.265L166.545 123.893L173.408 128.593L180.066 133.439L186.419 138.502L192.386 143.84L197.926 149.482L203.034 155.433L207.725 161.68L212.037 168.198L216.029 174.944L219.793 181.852L223.47 188.822L227.225 195.736L231.221 202.479L235.6 208.949L240.465 215.072L245.876 220.807L251.841 226.146L258.323 231.118L265.239 235.78L272.469 240.218L279.868 244.536L287.276 248.847L294.528 253.27L301.475 257.91L307.996 262.853L314.009 268.159L319.468 273.859L324.365 279.96L328.719 286.447L332.582 293.285L336.025 300.422L339.162 307.777L342.143 315.243L345.141 322.697L348.331 330.013L351.881 337.074L355.934 343.776L360.598 350.043L365.936 355.83L371.962 361.125L378.642 365.956L385.887 370.384L393.23 374.741L400.879 378.881L408.463 383.067L415.856 387.389L422.959 391.918" stroke="white" stroke-width="2" stroke-miterlimit="10"/>
<path d="M-50.1391 -66.8828L-47.3678 -59.2674L-44.7061 -51.5741L-42.0782 -43.8566L-39.4009 -36.1743L-36.589 -28.588L-33.5604 -21.156L-30.241 -13.9313L-26.5681 -6.95848L-22.4928 -0.272399L-17.9808 6.10243L-13.0114 12.1515L-7.57637 17.8686L-1.67665 23.2546L4.67299 28.32L11.4362 33.0908L18.5554 37.6078L25.9554 41.9248L33.547 46.1052L41.2365 50.2159L48.933 54.3216L56.5508 58.4833L64.0123 62.7564L71.2519 67.1877L78.2194 71.8129L84.8837 76.6541L91.3541 81.6334L97.6102 86.7655L103.65 92.0516L109.689 97.3382L115.801 102.573L122.041 107.717L128.44 112.747L135.005 117.659L141.713 122.469L148.519 127.21L155.349 131.933L162.113 136.703L168.709 141.593L175.035 146.675L181.006 152.01L186.576 157.631L191.736 163.544L196.498 169.741L200.896 176.197L204.989 182.87L208.861 189.701L212.639 196.6L216.479 203.453L220.544 210.146L224.975 216.579L229.878 222.675L235.319 228.388L241.311 233.708L247.823 238.658L254.778 243.293L262.06 247.694L269.527 251.963L277.021 256.212L284.381 260.558L291.452 265.109L298.113 269.953L304.275 275.152L309.888 280.743L314.932 286.738L319.425 293.127L323.409 299.878L326.955 306.941L330.179 314.234L333.235 321.646L336.295 329.056L339.537 336.336L343.128 343.367L347.215 350.045L351.906 356.292L357.271 362.059L363.328 367.333L370.045 372.137L377.339 376.529L384.856 380.763L392.734 384.739L400.552 388.758L408.182 392.911L415.524 397.27" stroke="white" stroke-width="2" stroke-miterlimit="10"/>
<path d="M-60.8733 -59.1668L-57.9555 -51.656L-55.1516 -44.0639L-52.3864 -36.4443L-49.5766 -28.8566L-46.6362 -21.3618L-43.4822 -14.0193L-40.039 -6.88282L-36.2424 0.00173797L-32.0417 6.5984L-27.4015 12.8819L-22.3015 18.8377L-16.7347 24.4609L-10.7064 29.7552L-4.2344 34.7333L2.6424 39.423L9.86327 43.8675L17.3492 48.1232L25.0075 52.2559L32.7395 56.3362L40.4493 60.4323L48.0474 64.608L55.454 68.9202L62.6566 73.3777L69.5222 78.0753L76.0611 83.0058L82.2666 88.1738L88.3377 93.4377L94.1793 98.865L100 104.307L105.88 109.707L111.882 115.02L118.046 120.218L124.386 125.29L130.888 130.247L137.514 135.116L144.196 139.944L150.848 144.794L157.37 149.736L163.659 154.845L169.626 160.183L175.221 165.786L180.429 171.665L185.259 177.813L189.742 184.208L193.935 190.81L197.919 197.562L201.805 204.382L205.743 211.166L209.89 217.801L214.386 224.187L219.342 230.246L224.826 235.928L230.859 241.219L237.413 246.138L244.418 250.737L251.762 255.094L259.308 259.306L266.9 263.487L274.377 267.749L281.585 272.202L288.398 276.938L294.722 282.021L300.498 287.495L305.702 293.377L310.343 299.66L314.457 306.319L318.113 313.303L321.431 320.528L324.564 327.886L327.683 335.253L330.968 342.503L334.584 349.516L338.68 356.187L343.368 362.436L348.722 368.212L354.766 373.495L361.473 378.305L368.767 382.698L376.525 386.76L384.365 390.763L392.362 394.654L400.197 398.662L407.73 402.883" stroke="white" stroke-width="2" stroke-miterlimit="10"/>
<path d="M-71.5982 -51.4626L-68.5157 -44.0692L-65.5495 -36.5929L-62.6254 -29.0867L-59.6608 -21.6092L-56.5701 -14.2217L-53.27 -6.98336L-49.6842 0.0513661L-45.7473 6.83593L-41.4077 13.3335L-36.6292 19.5183L-31.391 25.3756L-25.6881 30.9017L-19.5295 36.103L-12.9382 40.996L-5.95678 45.611L1.35171 49.9929L8.90607 54.1996L16.6114 58.2987L24.366 62.3627L32.0749 66.4593L39.6467 70.6536L47.0072 74.9985L54.0935 79.5387L60.8579 84.3084L67.272 89.3276L73.3299 94.6007L79.215 99.997L84.858 105.566L90.4577 111.165L96.1006 116.734L101.857 122.222L107.775 127.595L113.879 132.835L120.163 137.947L126.595 142.954L133.116 147.897L139.642 152.836L146.077 157.841L152.317 162.984L158.272 168.331L163.883 173.922L169.133 179.771L174.025 185.875L178.588 192.213L182.878 198.746L186.972 205.418L190.973 212.157L195.017 218.866L199.255 225.436L203.829 231.766L208.849 237.779L214.388 243.422L220.472 248.677L227.079 253.558L234.142 258.115L241.559 262.42L249.192 266.57L256.891 270.674L264.494 274.846L271.849 279.195L278.824 283.814L285.321 288.775L291.273 294.123L296.647 299.883L301.446 306.054L305.699 312.613L309.476 319.512L312.894 326.666L316.106 333.967L319.283 341.293L322.601 348.519L326.227 355.525L330.309 362.206L334.964 368.479L340.269 374.288L346.257 379.612L352.907 384.463L360.15 388.891L367.872 392.978L375.919 396.834L383.897 400.739L391.869 404.648L399.551 408.763" stroke="white" stroke-width="2" stroke-miterlimit="10"/>
<path d="M-82.3052 -43.78L-79.0412 -36.5159L-75.8941 -29.1684L-72.7916 -21.7891L-69.6524 -14.436L-66.392 -7.16934L-62.9274 -0.0481098L-59.1823 6.87327L-55.091 13.5479L-50.601 19.9384L-45.6753 26.0185L-40.2933 31.7734L-34.451 37.2003L-28.1611 42.3083L-21.4523 47.1177L-14.3708 51.6616L-6.98307 55.9872L0.627663 60.154L8.36528 64.2303L16.1283 68.2885L23.8219 72.3962L31.3606 76.6142L38.6686 80.9967L45.6814 85.5896L52.3502 90.4275L58.6461 95.5312L64.5629 100.905L70.2652 106.432L75.7123 112.14L81.0911 117.897L86.4944 123.637L92.0005 129.304L97.6666 134.856L103.525 140.271L109.58 145.547L115.807 150.699L122.154 155.767L128.542 160.805L134.877 165.88L141.057 171.067L146.988 176.431L152.607 182.017L157.889 187.843L162.835 193.909L167.472 200.194L171.852 206.663L176.052 213.26L180.166 219.919L184.323 226.547L188.661 233.046L193.321 239.315L198.415 245.275L204.019 250.872L210.164 256.083L216.832 260.921L223.965 265.429L231.461 269.677L239.191 273.759L247.005 277.781L254.744 281.856L262.255 286.094L269.404 290.59L276.085 295.419L282.223 300.635L287.78 306.265L292.748 312.316L297.15 318.768L301.057 325.575L304.584 332.651L307.879 339.893L311.112 347.179L314.456 354.387L318.076 361.397L322.123 368.103L326.717 374.42L331.939 380.289L337.83 385.681L344.378 390.605L351.524 395.103L359.161 399.251L367.14 403.155L375.188 407.011L383.249 410.856L391.037 414.897" stroke="white" stroke-width="2" stroke-miterlimit="10"/>
<path d="M-93.0196 -36.0861L-89.5592 -28.9619L-86.2151 -21.7549L-82.9171 -14.515L-79.5863 -7.29854L-76.1395 -0.164677L-72.495 6.82833L-68.5772 13.6265L-64.32 20.1829L-59.6707 26.4598L-54.5918 32.4307L-49.0625 38.0806L-43.0803 43.4077L-36.6616 48.4237L-29.8399 53.1527L-22.6657 57.6304L-15.2081 61.9061L-7.55241 66.0407L0.205283 70.1027L7.96871 74.1605L15.6465 78.2793L23.1537 82.5198L30.4128 86.937L37.3576 91.5782L43.9374 96.4794L50.122 101.662L55.9053 107.131L61.43 112.784L66.6851 118.63L71.8445 124.543L77.0072 130.454L82.2593 136.302L87.6672 142.038L93.2723 147.634L99.0881 153.08L105.099 158.387L111.258 163.587L117.494 168.733L123.716 173.89L129.822 179.129L135.716 184.519L141.329 190.109L146.63 195.921L151.618 201.957L156.317 208.199L160.778 214.61L165.075 221.138L169.302 227.716L173.572 234.263L178.011 240.69L182.763 246.894L187.938 252.796L193.613 258.342L199.825 263.505L206.562 268.294L213.769 272.749L221.352 276.935L229.184 280.944L237.118 284.88L244.999 288.855L252.673 292.976L260.003 297.343L266.876 302.035L273.211 307.111L278.959 312.605L284.106 318.527L288.669 324.866L292.716 331.572L296.359 338.566L299.742 345.745L303.029 352.993L306.391 360.187L309.994 367.21L313.986 373.955L318.491 380.335L323.598 386.286L329.353 391.775L335.756 396.802L342.757 401.403L350.253 405.652L358.14 409.622L366.219 413.454L374.22 417.343L382.067 421.341" stroke="white" stroke-width="2" stroke-miterlimit="10"/>
<path d="M-103.728 -28.3912L-100.058 -21.4163L-96.5029 -14.3598L-92.995 -7.26955L-89.4578 -0.200081L-85.8107 6.79102L-81.9735 13.6467L-77.8714 20.3135L-73.4388 26.7449L-68.6228 32.903L-63.3854 38.7609L-57.7062 44.3039L-51.5847 49.5318L-45.0407 54.4585L-38.1119 59.1111L-30.8525 63.528L-23.3343 67.7606L-15.644 71.8705L-7.87262 75.9227L-0.110087 79.9812L7.55453 84.1094L15.0354 88.3686L22.2528 92.8154L29.1379 97.4991L35.6378 102.457L41.7207 107.713L47.38 113.27L52.7361 119.043L57.8059 125.021L62.7503 131.087L67.6744 137.168L72.672 143.197L77.8185 149.12L83.1649 154.9L88.734 160.521L94.5182 165.989L100.479 171.332L106.551 176.595L112.646 181.841L118.665 187.143L124.508 192.569L130.1 198.174L135.405 203.984L140.42 210L145.167 216.207L149.696 222.57L154.079 229.036L158.408 235.542L162.784 242.014L167.335 248.361L172.179 254.499L177.438 260.341L183.191 265.832L189.476 270.943L196.287 275.68L203.573 280.077L211.247 284.199L219.186 288.132L227.247 291.978L235.275 295.847L243.118 299.848L250.636 304.08L257.71 308.63L264.25 313.559L270.2 318.909L275.536 324.697L280.271 330.913L284.468 337.512L288.234 344.418L291.709 351.532L295.051 358.741L298.427 365.925L302 372.969L305.92 379.765L310.314 386.224L315.276 392.278L320.862 397.888L327.08 403.047L333.896 407.78L341.226 412.147L348.954 416.23L356.906 420.153L364.909 424.04L372.722 428.063" stroke="white" stroke-width="2" stroke-miterlimit="10"/>
<path d="M-114.44 -20.7085L-110.549 -13.891L-106.771 -6.99348L-103.04 -0.0615489L-99.2849 6.85237L-95.426 13.6926L-91.3854 20.4033L-87.0896 26.9322L-82.4737 33.233L-77.4846 39.2679L-72.0845 45.0098L-66.2544 50.4453L-59.9961 55.5758L-53.332 60.4171L-46.3033 64.9985L-38.9675 69.3611L-31.3989 73.5578L-23.6813 77.6484L-15.898 81.6921L-8.1341 85.7496L-0.477545 89.8837L6.98414 94.1566L14.1685 98.6271L21.0036 103.346L27.4338 108.354L33.4258 113.675L38.9722 119.312L44.1712 125.198L49.0644 131.301L53.8006 137.516L58.4905 143.764L63.2357 149.973L68.1203 156.082L73.2049 162.049L78.5218 167.85L84.072 173.485L89.8252 178.975L95.7214 184.364L101.677 189.71L107.594 195.083L113.37 200.557L118.923 206.191L124.214 212.01L129.239 218.019L134.019 224.204L138.6 230.529L143.055 236.944L147.472 243.387L151.951 249.785L156.597 256.065L161.545 262.129L166.89 267.91L172.722 273.345L179.082 278.402L185.97 283.084L193.341 287.422L201.109 291.476L209.16 295.329L217.351 299.082L225.532 302.842L233.55 306.719L241.261 310.815L248.541 315.217L255.294 319.994L261.455 325.194L266.991 330.84L271.908 336.926L276.265 343.411L280.163 350.223L283.734 357.269L287.131 364.438L290.517 371.616L294.051 378.687L297.885 385.545L302.148 392.097L306.941 398.272L312.327 404.024L318.328 409.338L324.917 414.232L332.042 418.745L339.571 422.97L347.36 427.01L355.241 430.984L363.021 435.03" stroke="white" stroke-width="2" stroke-miterlimit="10"/>
<path d="M-125.179 -13.0027L-121.057 -6.34934L-117.046 0.38212L-113.083 7.14861L-109.099 13.9L-105.019 20.5827L-100.766 27.1424L-96.2689 33.5278L-91.4627 39.6931L-86.295 45.6008L-80.7297 51.2252L-74.7498 56.5543L-68.3591 61.5905L-61.5819 66.3514L-54.4618 70.8679L-47.0596 75.1834L-39.4494 79.3507L-31.7073 83.424L-23.91 87.458L-16.1398 91.5112L-8.48424 95.6462L-1.03313 99.9269L6.12788 104.414L12.9234 109.162L19.2952 114.212L25.2077 119.589L30.6531 125.299L35.709 131.286L40.4362 137.508L44.9733 143.865L49.4361 150.275L53.9334 156.66L58.5583 162.955L63.3806 169.109L68.442 175.092L73.7525 180.898L79.2894 186.543L84.9991 192.064L90.8025 197.519L96.6055 202.974L102.295 208.51L107.79 214.185L113.048 220.028L118.063 226.044L122.856 232.219L127.473 238.519L131.983 244.896L136.472 251.287L141.039 257.623L145.786 263.83L150.828 269.828L156.255 275.551L162.166 280.929L168.603 285.932L175.57 290.557L183.027 294.834L190.893 298.819L199.058 302.591L207.384 306.249L215.721 309.898L223.916 313.649L231.823 317.604L239.315 321.855L246.288 326.477L252.668 331.521L258.412 337.018L263.522 342.967L268.049 349.332L272.086 356.045L275.759 363.018L279.213 370.146L282.606 377.319L286.095 384.422L289.832 391.35L293.948 398.007L298.551 404.317L303.713 410.229L309.463 415.722L315.809 420.79L322.681 425.483L329.98 429.873L337.572 434.053L345.3 438.136L352.995 442.242" stroke="white" stroke-width="2" stroke-miterlimit="10"/>
<path d="M-135.943 -5.27998L-131.583 1.20331L-127.33 7.76282L-123.126 14.358L-118.907 20.9411L-114.595 27.4593L-110.123 33.8626L-105.418 40.0999L-100.416 46.1259L-95.0672 51.9048L-89.3376 57.4122L-83.2121 62.6375L-76.6958 67.5843L-69.8146 72.2712L-62.614 76.7305L-55.1564 81.0066L-47.5108 85.1488L-39.7445 89.2049L-31.9295 93.2264L-24.1468 97.2709L-16.4849 101.401L-9.03596 105.684L-1.88896 110.181L4.87727 114.95L11.2015 120.034L17.0462 125.459L22.4026 131.232L27.3306 137.311L31.9041 143.642L36.253 150.133L40.4978 156.699L44.7543 163.256L49.1238 169.733L53.6855 176.072L58.4901 182.239L63.5566 188.219L68.87 194.023L74.3833 199.684L80.0226 205.256L85.6801 210.815L91.279 216.415L96.6947 222.146L101.898 228.029L106.883 234.067L111.668 240.247L116.3 246.537L120.845 252.888L125.389 259.241L130.026 265.526L134.858 271.674L139.98 277.614L145.498 283.272L151.484 288.597L157.996 293.547L165.042 298.116L172.585 302.332L180.549 306.247L188.829 309.937L197.29 313.498L205.784 317.036L214.158 320.659L222.264 324.473L229.97 328.572L237.166 333.035L243.769 337.919L249.73 343.262L255.042 349.068L259.747 355.305L263.931 361.913L267.711 368.81L271.225 375.896L274.625 383.064L278.065 390.203L281.697 397.205L285.655 403.975L290.052 410.432L294.97 416.517L300.456 422.198L306.518 427.469L313.11 432.362L320.149 436.936L327.516 441.277L335.063 445.489L342.627 449.69" stroke="white" stroke-width="2" stroke-miterlimit="10"/>
<path d="M-146.751 2.47558L-142.145 8.78378L-137.638 15.1627L-133.183 21.578L-128.717 27.9863L-124.172 34.3376L-119.474 40.5804L-114.556 46.666L-109.356 52.5515L-103.828 58.2025L-97.9387 63.5961L-91.6744 68.7227L-85.0416 73.5867L-78.0672 78.2073L-70.7976 82.6175L-63.2938 86.8609L-55.6151 90.9796L-47.8218 95.0167L-39.9833 99.0216L-32.1806 103.052L-24.5038 107.172L-17.0477 111.449L-9.90489 115.95L-3.15743 120.732L3.13049 125.842L8.91945 131.307L14.1995 137.135L19.0163 143.293L23.4501 149.724L27.6241 156.34L31.6628 163.052L35.6883 169.774L39.8097 176.427L44.115 182.95L48.6643 189.298L53.4848 195.454L58.5696 201.421L63.8783 207.228L69.3424 212.925L74.8522 218.589L80.3268 224.278L85.6419 230.081L90.7684 236.019L95.7001 242.095L100.456 248.296L105.081 254.59L109.641 260.931L114.219 267.259L118.908 273.509L123.805 279.609L129.005 285.494L134.592 291.104L140.657 296.372L147.241 301.271L154.362 305.787L161.99 309.942L170.052 313.787L178.447 317.396L187.043 320.861L195.695 324.286L204.248 327.782L212.553 331.454L220.474 335.401L227.895 339.703L234.728 344.424L240.912 349.608L246.432 355.265L251.324 361.369L255.663 367.868L259.556 374.684L263.133 381.725L266.541 388.887L269.932 396.061L273.454 403.142L277.245 410.03L281.426 416.641L286.087 422.91L291.29 428.793L297.049 434.279L303.341 439.387L310.098 444.162L317.216 448.68L324.558 453.039L331.966 457.35" stroke="white" stroke-width="2" stroke-miterlimit="10"/>
<path d="M-157.599 10.2563L-152.731 16.3776L-147.965 22.5725L-143.254 28.806L-138.538 35.0356L-133.75 41.2143L-128.823 47.2935L-123.691 53.2271L-118.297 58.9739L-112.595 64.5012L-106.554 69.7872L-100.162 74.8228L-93.425 79.6127L-86.3704 84.1763L-79.0448 88.5467L-71.5011 92.7618L-63.7893 96.8571L-55.9651 100.872L-48.0966 104.856L-40.2657 108.866L-32.5653 112.97L-25.0932 117.236L-17.9451 121.733L-11.2063 126.522L-4.94364 131.649L0.801399 137.146L6.01784 143.019L10.7404 149.245L15.0499 155.764L19.0643 162.494L22.9109 169.343L26.7175 176.221L30.6008 183.044L34.6568 189.745L38.9543 196.273L43.529 202.603L48.3818 208.736L53.4789 214.694L58.7578 220.523L64.1034 226.304L69.4334 232.096L74.6263 237.987L79.6534 243.995L84.509 250.125L89.2128 256.364L93.8087 262.679L98.3617 269.025L102.953 275.344L107.672 281.572L112.615 287.64L117.873 293.483L123.53 299.043L129.66 304.265L136.307 309.119L143.5 313.585L151.208 317.682L159.367 321.459L167.874 324.987L176.604 328.357L185.412 331.672L194.142 335.041L202.645 338.573L210.781 342.366L218.429 346.507L225.492 351.064L231.904 356.086L237.64 361.589L242.726 367.556L247.226 373.94L251.238 380.671L254.884 387.663L258.304 394.816L261.646 402.025L265.058 409.184L268.681 416.193L272.64 422.962L277.038 429.419L281.943 435.514L287.387 441.225L293.364 446.557L299.822 451.545L306.673 456.254L313.79 460.773L321.021 465.211" stroke="white" stroke-width="2" stroke-miterlimit="10"/>
<path d="M-168.482 18.0699L-163.347 24.001L-158.313 30.0044L-153.336 36.0486L-148.362 42.0946L-143.329 48.0985L-138.172 54.0147L-132.831 59.7991L-127.25 65.4126L-121.384 70.8236L-115.205 76.011L-108.7 80.9658L-101.874 85.6927L-94.7554 90.2108L-87.3861 94.5502L-79.8073 98.7404L-72.0617 102.812L-64.2021 106.802L-56.297 110.759L-48.4303 114.744L-40.6979 118.825L-33.2012 123.074L-26.0389 127.561L-19.2991 132.349L-13.0513 137.487L-7.33872 143.007L-2.17344 148.917L2.47175 155.197L6.6734 161.794L10.545 168.625L14.2158 175.6L17.8182 182.623L21.4755 189.608L25.2917 196.479L29.3434 203.182L33.6745 209.686L38.2934 215.985L43.1734 222.098L48.258 228.066L53.4228 233.976L58.5884 239.886L63.6377 245.878L68.543 251.973L73.2996 258.174L77.9278 264.467L82.4715 270.819L86.9946 277.187L91.5763 283.512L96.3051 289.733L101.273 295.784L106.57 301.6L112.276 307.124L118.458 312.31L125.167 317.12L132.422 321.54L140.206 325.584L148.455 329.297L157.072 332.747L165.932 336.025L174.891 339.232L183.795 342.477L192.493 345.87L200.842 349.511L208.716 353.491L216.012 357.883L222.653 362.741L228.61 368.087L233.894 373.912L238.562 380.176L242.7 386.818L246.421 393.757L249.859 400.898L253.156 408.138L256.462 415.373L259.918 422.501L263.656 429.428L267.786 436.075L272.39 442.385L277.515 448.324L283.168 453.886L289.317 459.095L295.886 464.005L302.76 468.696L309.796 473.274" stroke="white" stroke-width="2" stroke-miterlimit="10"/>
</g>
</svg>
