<svg width="660" height="360" viewBox="0 0 660 360" fill="none" xmlns="http://www.w3.org/2000/svg">
<g opacity="0.1">
<path d="M37.7311 -88.4635L44.1284 -81.4757L50.5316 -74.4963L56.9736 -67.572L63.4883 -60.7506L70.1084 -54.0786L76.8637 -47.5979L83.7793 -41.3445L90.8342 -35.2884L98.0689 -29.487L105.472 -23.9235L113.052 -18.6119L120.819 -13.5641L128.779 -8.79101L136.94 -4.30214L145.307 -0.104441L153.88 3.80094L162.652 7.42431L171.607 10.7887L180.726 13.9206L189.99 16.8482L199.375 19.6033L208.857 22.2213L218.409 24.7398L228.004 27.1965L237.619 29.6262L247.232 32.0584L256.902 34.4093L266.575 36.7576L276.316 39.0073L286.128 41.1584L295.997 43.2272L305.901 45.2472L315.805 47.2678L325.663 49.352L335.426 51.5722L345.038 54.0059L354.445 56.7297L363.599 59.8122L372.463 63.3054L381.017 67.2381L389.251 71.624L397.166 76.4605L404.78 81.7247L412.126 87.3694L419.272 93.2961L426.321 99.3606L433.386 105.402L440.578 111.264L447.991 116.812L455.698 121.945L463.742 126.6L472.137 130.758L480.867 134.441L489.886 137.714L499.128 140.673L508.504 143.44L517.917 146.156L527.261 148.969L536.437 152.02L545.361 155.428L553.977 159.274L562.237 163.622L570.138 168.48L577.693 173.827L584.935 179.619L591.909 185.79L598.671 192.26L605.287 198.937L611.829 205.721L618.373 212.501L625.006 219.154L631.815 225.559L638.875 231.608L646.202 237.278L653.855 242.487L661.744 247.362L669.825 251.964L678.044 256.371L686.345 260.662L694.674 264.913L702.983 269.193L711.23 273.56L719.386 278.056" stroke="white" stroke-width="2" stroke-miterlimit="10"/>
<path d="M31.6118 -79.6134L38.0178 -72.6388L44.4127 -65.6485L50.8328 -58.6938L57.3158 -51.8283L63.8988 -45.1045L70.616 -38.5707L77.4966 -32.2687L84.5454 -26.2048L91.7939 -20.424L99.2297 -14.9085L106.865 -9.67518L114.707 -4.73653L122.765 -0.101777L131.041 4.22328L139.536 8.23763L148.245 11.9485L157.154 15.3771L166.237 18.5579L175.47 21.5268L184.826 24.3206L194.279 26.9782L203.798 29.541L213.355 32.0511L222.921 34.5483L232.471 37.0676L241.986 39.6365L251.543 42.147L261.073 44.6949L270.66 47.1616L280.312 49.5376L290.022 51.8296L299.775 54.0616L309.542 56.274L319.284 58.5219L328.954 60.8717L338.499 63.3971L347.868 66.1743L357.007 69.2754L365.876 72.7608L374.445 76.6707L382.701 81.024L390.645 85.8192L398.292 91.0343L405.674 96.6266L412.85 102.51L419.916 108.549L426.983 114.587L434.161 120.468L441.547 126.054L449.217 131.238L457.217 135.954L465.565 140.176L474.25 143.923L483.229 147.251L492.438 150.253L501.793 153.05L511.195 155.779L520.542 158.585L529.734 161.613L538.687 164.979L547.34 168.769L555.648 173.048L563.603 177.829L571.216 183.093L578.517 188.8L585.549 194.887L592.368 201.277L599.037 207.878L605.629 214.588L612.229 221.289L618.927 227.849L625.815 234.141L632.97 240.055L640.451 245.506L648.216 250.555L656.315 255.131L664.626 259.406L673.091 263.463L681.645 267.394L690.228 271.285L698.781 275.216L707.257 279.257L715.621 283.458" stroke="white" stroke-width="2" stroke-miterlimit="10"/>
<path d="M25.4046 -70.6374L31.829 -63.6895L38.2276 -56.7052L44.6396 -49.7399L51.1063 -42.852L57.6686 -36.0997L64.3645 -29.5368L71.2273 -23.2104L78.284 -17.1587L85.5388 -11.388L93.0129 -5.92806L100.705 -0.777469L108.625 4.0505L116.778 8.54826L125.166 12.7138L133.784 16.5522L142.622 20.0791L151.657 23.3265L160.858 26.3386L170.194 29.1601L179.633 31.8357L189.141 34.4118L198.688 36.9351L208.239 39.4514L217.765 42.0022L227.243 44.6224L236.654 47.3368L246.091 50.0151L255.475 52.7677L264.905 55.4555L274.394 58.0595L283.945 60.5764L293.547 63.0205L303.178 65.4235L312.804 67.8326L322.384 70.3085L331.867 72.9217L341.198 75.7486L350.325 78.8662L359.197 82.3446L367.78 86.2337L376.058 90.5546L384.031 95.3065L391.715 100.469L399.138 106.002L406.352 111.831L413.444 117.832L420.524 123.851L427.699 129.734L435.07 135.341L442.714 140.561L450.681 145.321L458.994 149.592L467.644 153.386L476.593 156.755L485.779 159.788L495.121 162.601L504.522 165.33L513.881 168.119L523.097 171.11L532.085 174.424L540.783 178.149L549.145 182.351L557.159 187.046L564.833 192.222L572.195 197.841L579.287 203.843L586.16 210.155L592.879 216.685L599.518 223.328L606.169 229.955L612.928 236.429L619.888 242.618L627.129 248.408L634.711 253.715L642.668 258.49L650.88 262.905L659.413 266.864L668.113 270.586L676.912 274.168L685.74 277.709L694.533 281.3L703.235 285.02L711.805 288.927" stroke="white" stroke-width="2" stroke-miterlimit="10"/>
<path d="M19.1372 -61.5649L25.5905 -54.6591L32.0059 -47.6994L38.4247 -40.7446L44.8912 -33.8575L51.4497 -27.1008L58.1417 -20.5333L65.0035 -14.2066L72.0652 -8.16329L79.3499 -2.43613L86.86 2.97149L94.6119 8.03624L102.608 12.7541L110.854 17.1189L119.348 21.1322L128.081 24.8053L137.038 28.1625L146.188 31.245L155.494 34.1054L164.92 36.7968L174.428 39.3718L183.981 41.8832L193.542 44.383L203.077 46.9199L212.556 49.537L221.954 52.2678L231.256 55.1347L240.568 57.9881L249.804 60.9485L259.075 63.8594L268.401 66.692L277.792 69.4334L287.244 72.0882L296.741 74.6792L306.254 77.2463L315.746 79.8451L325.167 82.5423L334.462 85.4198L343.574 88.5567L352.446 92.0327L361.04 95.9036L369.339 100.193L377.343 104.9L385.066 110.006L392.534 115.474L399.792 121.239L406.92 127.188L414.023 133.173L421.208 139.041L428.575 144.651L436.205 149.889L444.151 154.678L452.44 158.982L461.066 162.808L469.995 166.204L479.168 169.254L488.505 172.071L497.914 174.787L507.292 177.546L516.54 180.49L525.571 183.741L534.321 187.391L542.742 191.507L550.821 196.109L558.561 201.19L565.987 206.716L573.138 212.633L580.066 218.867L586.831 225.33L593.516 231.908L600.214 238.466L607.027 244.862L614.051 250.959L621.367 256.642L629.036 261.824L637.093 266.456L645.544 270.53L654.173 274.352L663.095 277.757L672.124 281.011L681.184 284.221L690.205 287.488L699.124 290.897L707.894 294.518" stroke="white" stroke-width="2" stroke-miterlimit="10"/>
<path d="M12.817 -52.4142L19.3107 -45.5667L25.7565 -38.6512L32.1976 -31.7291L38.6807 -24.8664L45.2526 -18.1298L51.9577 -11.582L58.8352 -5.27883L65.9177 0.733658L73.2303 6.41986L80.7875 11.7591L88.6007 16.7354L96.6724 21.345L105.006 25.5827L113.599 29.4536L122.438 32.9748L131.501 36.1787L140.753 39.1145L150.152 41.8418L159.655 44.4218L169.219 46.9144L178.804 49.3786L188.369 51.8706L197.877 54.442L207.3 57.1365L216.612 59.9864L225.802 63.0107L234.984 66.0449L244.072 69.2139L253.184 72.3475L262.349 75.4074L271.581 78.3708L280.885 81.2331L290.25 84.0086L299.661 86.7182L309.06 89.4459L318.417 92.2323L327.673 95.1627L336.764 98.3264L345.633 101.806L354.237 105.661L362.556 109.919L370.591 114.581L378.354 119.629L385.869 125.028L393.178 130.719L400.352 136.602L407.488 142.538L414.695 148.375L422.07 153.971L429.698 159.211L437.635 164.012L445.91 168.333L454.522 172.177L463.44 175.585L472.609 178.639L481.952 181.446L491.375 184.138L500.781 186.856L510.069 189.741L519.151 192.918L527.959 196.483L536.447 200.503L544.596 205.003L552.407 209.982L559.901 215.411L567.114 221.239L574.094 227.395L580.906 233.791L587.634 240.307L594.377 246.801L601.239 253.127L608.317 259.145L615.695 264.738L623.436 269.818L631.574 274.333L640.115 278.277L648.895 281.882L658.019 284.999L667.259 287.953L676.533 290.857L685.765 293.821L694.888 296.939L703.85 300.287" stroke="white" stroke-width="2" stroke-miterlimit="10"/>
<path d="M6.45038 -43.2282L12.9967 -36.4558L19.4871 -29.6041L25.9662 -22.7365L32.4825 -15.9216L39.085 -9.22884L45.8202 -2.72447L52.7298 3.53255L59.8485 9.49298L67.2032 15.1188L74.8128 20.3829L82.688 25.2702L90.8342 29.7732L99.2527 33.8901L107.938 37.6288L116.873 41.0122L126.031 44.0798L135.373 46.887L144.852 49.4998L154.419 51.9868L164.029 54.4145L173.634 56.8475L183.193 59.346L192.669 61.9638L202.029 64.7445L211.253 67.7191L220.329 70.9028L229.381 74.121L238.322 77.4966L247.279 80.8496L256.285 84.1325L265.41 87.2471L274.552 90.3376L283.779 93.3083L293.068 96.1899L302.384 99.0344L311.676 101.912L320.887 104.905L329.953 108.103L338.815 111.591L347.426 115.433L355.767 119.661L363.833 124.277L371.638 129.265L379.204 134.591L386.569 140.201L393.796 146.008L400.977 151.88L408.216 157.669L415.613 163.236L423.25 168.461L431.189 173.257L439.463 177.58L448.072 181.427L456.99 184.834L466.166 187.877L475.523 190.663L484.972 193.318L494.414 195.982L503.751 198.797L512.892 201.888L521.768 205.356L530.331 209.268L538.557 213.657L546.445 218.527L554.011 223.852L561.289 229.587L568.325 235.665L575.184 241.993L581.955 248.447L588.74 254.881L595.645 261.145L602.768 267.099L610.195 272.622L617.99 277.624L626.189 282.052L634.798 285.897L643.795 289.194L652.954 292.26L662.382 294.946L671.848 297.576L681.273 300.265L690.584 303.116L699.723 306.211" stroke="white" stroke-width="2" stroke-miterlimit="10"/>
<path d="M0.0615039 -34.0415L6.67258 -27.3613L13.2218 -20.5933L19.7546 -13.802L26.3205 -7.05772L32.9701 -0.432163L39.7518 6.00606L46.709 12.1953L53.8782 18.0839L61.2876 23.6316L68.9573 28.8102L76.8996 33.6019L85.1202 37.9991L93.6194 42.0009L102.39 45.6183L111.412 48.8786L120.653 51.8273L130.072 54.5244L139.618 57.042L149.237 59.4549L158.879 61.8357L168.495 64.2538L178.039 66.7728L187.473 69.448L196.767 72.323L205.899 75.4266L214.863 78.7703L223.783 82.1747L232.662 85.637L241.453 89.2259L250.294 92.743L259.214 96.1473L268.228 99.4186L277.335 102.559L286.517 105.592L295.741 108.566L304.96 111.546L314.119 114.612L323.154 117.853L332.005 121.356L340.623 125.19L348.983 129.389L357.082 133.959L364.929 138.885L372.548 144.137L379.973 149.663L387.26 155.383L394.495 161.178L401.777 166.907L409.205 172.428L416.864 177.622L424.816 182.4L433.098 186.71L441.715 190.545L450.644 193.938L459.834 196.959L469.215 199.71L478.697 202.317L488.185 204.917L497.579 207.649L506.788 210.644L515.741 214.003L524.386 217.797L532.697 222.066L540.669 226.817L548.313 232.031L555.66 237.668L562.754 243.663L569.662 249.921L576.477 256.312L583.302 262.69L590.243 268.901L597.401 274.805L604.863 280.278L612.694 285.229L620.932 289.601L629.586 293.384L638.634 296.607L648.023 299.346L657.472 302.001L667.106 304.393L676.7 306.842L686.178 309.455L695.482 312.315" stroke="white" stroke-width="2" stroke-miterlimit="10"/>
<path d="M-6.34423 -24.8427L0.343732 -18.2716L6.96559 -11.6068L13.567 -4.91308L20.1983 1.73838L26.9108 8.27452L33.7542 14.6251L40.7732 20.7265L48.0056 26.5252L55.481 31.9791L63.2202 37.0589L71.2354 41.747L79.5319 46.0361L88.109 49.9272L96.9577 53.4329L106.056 56.5844L115.37 59.4308L124.853 62.0369L134.451 64.4787L144.109 66.8367L153.771 69.1887L163.386 71.6081L172.906 74.1613L182.292 76.9047L191.514 79.8812L200.552 83.1173L209.474 86.5196L218.266 90.1054L226.928 93.8764L235.589 97.648L244.294 101.357L253.077 104.957L261.955 108.42L270.934 111.742L279.999 114.94L289.123 118.056L298.262 121.15L307.361 124.301L316.359 127.595L325.193 131.121L333.813 134.951L342.191 139.125L350.321 143.65L358.212 148.515L365.882 153.693L373.368 159.131L380.721 164.759L388.016 170.469L395.35 176.123L402.819 181.586L410.509 186.736L418.485 191.48L426.785 195.765L435.418 199.576L444.364 202.943L453.578 205.931L462.99 208.638L472.514 211.186L482.054 213.711L491.512 216.352L500.797 219.239L509.833 222.478L518.569 226.145L526.972 230.282L535.033 234.905L542.761 240.002L550.181 245.534L557.337 251.441L564.298 257.624L571.158 263.952L578.02 270.275L584.992 276.443L592.176 282.311L599.658 287.756L607.505 292.682L615.759 297.031L624.432 300.788L633.502 303.979L642.921 306.675L652.475 309.181L662.246 311.378L671.982 313.625L681.604 316.034L691.051 318.69" stroke="white" stroke-width="2" stroke-miterlimit="10"/>
<path d="M-12.7602 -15.6424L-5.98371 -9.19702L0.72394 -2.654L7.40825 3.92212L14.1195 10.46L20.9096 16.8861L27.8287 23.1291L34.9224 29.1245L42.2295 34.817L49.7806 40.1635L57.5971 45.1335L65.6913 49.7095L74.0672 53.8858L82.7219 57.6666L91.6445 61.0675L100.811 64.1215L110.186 66.8808L119.721 69.4131L129.36 71.7977L139.043 74.1192L148.713 76.4597L158.316 78.8958L167.803 81.4961L177.167 84.271L186.327 87.3347L195.29 90.6782L204.051 94.3073L212.732 98.0515L221.274 101.992L229.803 105.951L238.368 109.859L247.007 113.662L255.743 117.327L264.586 120.841L273.527 124.216L282.543 127.485L291.592 130.706L300.623 133.952L309.576 137.31L318.388 140.868L327.006 144.701L335.399 148.854L343.558 153.337L351.489 158.145L359.211 163.249L366.758 168.602L374.178 174.134L381.539 179.75L388.932 185.321L396.45 190.714L404.18 195.807L412.187 200.507L420.513 204.754L429.17 208.531L438.142 211.861L447.386 214.806L456.836 217.46L466.407 219.94L476.006 222.382L485.535 224.922L494.902 227.692L504.03 230.801L512.864 234.329L521.366 238.325L529.523 242.812L537.34 247.782L544.838 253.203L552.061 259.015L559.079 265.118L565.985 271.379L572.884 277.652L579.881 283.783L587.08 289.63L594.567 295.066L602.413 299.995L610.66 304.354L619.324 308.122L628.389 311.321L637.808 314.018L647.507 316.317L657.256 318.545L667.099 320.64L676.844 322.874L686.408 325.366" stroke="white" stroke-width="2" stroke-miterlimit="10"/>
<path d="M-19.1703 -6.43888L-12.2944 -0.134682L-5.48877 6.26918L1.29146 12.7091L8.09613 19.1144L14.977 25.4116L21.9842 31.5294L29.164 37.4025L36.5558 42.9749L44.1907 48.2023L52.0907 53.0536L60.2682 57.5113L68.7263 61.5708L77.4596 65.2399L86.4541 68.5385L95.6843 71.5028L105.112 74.1869L114.688 76.6604L124.355 79.0045L134.052 81.3065L143.722 83.6477L153.308 86.1063L162.767 88.7458L172.061 91.6203L181.16 94.7705L190.047 98.2207L198.72 101.976L207.288 105.88L215.71 109.991L224.106 114.138L232.528 118.249L241.018 122.263L249.606 126.138L258.306 129.854L267.115 133.416L276.014 136.851L284.966 140.21L293.921 143.564L302.821 146.996L311.604 150.596L320.214 154.44L328.617 158.578L336.801 163.026L344.77 167.78L352.54 172.815L360.145 178.085L367.631 183.523L375.062 189.04L382.518 194.521L390.092 199.835L397.868 204.862L405.914 209.506L414.273 213.706L422.961 217.44L431.965 220.725L441.245 223.619L450.738 226.211L460.362 228.616L470.025 230.966L479.63 233.398L489.086 236.042L498.312 239.012L507.25 242.391L515.858 246.238L524.118 250.578L532.03 255.412L539.613 260.714L546.908 266.424L553.987 272.44L560.941 278.633L567.874 284.856L574.892 290.959L582.096 296.798L589.575 302.246L597.4 307.203L605.619 311.603L614.248 315.419L623.278 318.667L632.667 321.407L642.344 323.737L652.217 325.789L662.049 327.9L671.878 330.015L681.531 332.379" stroke="white" stroke-width="2" stroke-miterlimit="10"/>
<path d="M-25.5843 2.73872L-18.5988 8.88755L-11.6839 15.1366L-4.79587 21.4238L2.11427 27.6796L9.09765 33.8315L16.2043 39.8085L23.4803 45.5453L30.9654 50.9854L38.6912 56.0841L46.6801 60.8095L54.9445 65.1441L63.4869 69.0843L72.2995 72.6412L81.3651 75.8392L90.6557 78.718L100.131 81.3344L109.741 83.7598L119.428 86.0765L129.13 88.3714L138.791 90.7259L148.357 93.2129L157.785 95.8977L167.034 98.8353L176.075 102.068L184.892 105.619L193.479 109.496L201.937 113.556L210.241 117.835L218.503 122.172L226.78 126.488L235.12 130.717L243.556 134.808L252.108 138.734L260.779 142.492L269.553 146.103L278.4 149.611L287.272 153.084L296.112 156.602L304.858 160.253L313.454 164.117L321.862 168.249L330.066 172.669L338.067 177.377L345.881 182.35L353.541 187.543L361.092 192.89L368.591 198.31L376.115 203.694L383.749 208.923L391.577 213.877L399.668 218.458L408.067 222.602L416.792 226.283L425.833 229.515L435.154 232.351L444.696 234.874L454.378 237.197L464.111 239.449L473.798 241.764L483.348 244.275L492.68 247.096L501.728 250.318L510.449 254.005L518.819 258.19L526.834 262.879L534.507 268.052L541.88 273.651L549.024 279.575L556.029 285.696L562.996 291.872L570.029 297.953L577.23 303.796L584.688 309.274L592.477 314.284L600.645 318.755L609.216 322.654L618.185 325.99L627.514 328.814L637.141 331.216L646.973 333.326L656.847 335.377L666.73 337.417L676.446 339.691" stroke="white" stroke-width="2" stroke-miterlimit="10"/>
<path d="M-31.9891 11.9318L-24.885 17.9124L-17.8511 23.9926L-10.8451 30.1123L-3.81926 36.2039L3.2766 42.1961L10.4918 48.019L17.8721 53.6077L25.4573 58.9058L33.2793 63.8679L41.3607 68.462L49.714 72.6704L58.3408 76.4907L67.2312 79.9371L76.3649 83.0384L85.7115 85.8376L95.2292 88.3941L104.866 90.7809L114.565 93.0803L124.268 95.3748L133.918 97.7427L143.466 100.257L152.864 102.983L162.072 105.979L171.06 109.287L179.809 112.934L188.315 116.925L196.666 121.137L204.854 125.581L212.984 130.106L221.116 134.628L229.302 139.074L237.582 143.386L245.981 147.53L254.507 151.492L263.151 155.289L271.885 158.957L280.665 162.56L289.436 166.175L298.138 169.89L306.712 173.785L315.116 177.922L323.331 182.325L331.357 186.998L339.209 191.917L346.917 197.041L354.527 202.305L362.094 207.629L369.687 212.916L377.382 218.058L385.266 222.932L393.405 227.444L401.847 231.527L410.612 235.15L419.695 238.324L429.061 241.095L438.654 243.545L448.398 245.781L458.204 247.929L467.977 250.123L477.625 252.494L487.066 255.16L496.231 258.217L505.07 261.735L513.556 265.756L521.678 270.292L529.448 275.328L536.906 280.806L544.12 286.631L551.178 292.677L558.178 298.806L565.222 304.871L572.412 310.73L579.837 316.255L587.572 321.34L595.671 325.91L604.16 329.925L613.041 333.386L622.283 336.333L631.824 338.857L641.601 341.046L651.494 343.069L661.34 345.16L671.092 347.384" stroke="white" stroke-width="2" stroke-miterlimit="10"/>
<path d="M-38.3995 21.1146L-31.169 26.9158L-24.0076 32.815L-16.8748 38.7548L-9.72437 44.6697L-2.50756 50.4903L4.82404 56.1481L12.3156 61.579L20.0067 66.7267L27.9293 71.546L36.1064 76.0044L44.5503 80.0843L53.2612 83.7853L62.2272 87.1243L71.4256 90.1338L80.8236 92.86L90.3779 95.3646L100.036 97.7217L109.743 100.009L119.445 102.305L129.088 104.684L138.619 107.22L147.992 109.983L157.164 113.029L166.103 116.406L174.791 120.14L183.223 124.237L191.472 128.594L199.547 133.196L207.548 137.905L215.536 142.632L223.568 147.296L231.69 151.832L239.933 156.197L248.31 160.371L256.817 164.361L265.432 168.199L274.113 171.943L282.808 175.666L291.456 179.456L299.999 183.395L308.39 187.55L316.608 191.95L324.651 196.599L332.532 201.477L340.281 206.542L347.943 211.733L355.571 216.97L363.228 222.166L370.99 227.212L378.93 232.007L387.12 236.447L395.609 240.464L404.418 244.025L413.545 247.135L422.96 249.838L432.608 252.21L442.416 254.354L452.298 256.394L462.16 258.461L471.911 260.687L481.465 263.192L490.751 266.077L499.715 269.42L508.322 273.267L516.559 277.641L524.432 282.53L531.981 287.88L539.27 293.598L546.383 299.567L553.415 305.649L560.468 311.702L567.64 317.586L575.022 323.172L582.69 328.353L590.701 333.047L599.088 337.208L607.858 340.825L616.988 343.932L626.428 346.597L636.109 348.923L645.925 351.056L655.772 353.144L665.505 355.397" stroke="white" stroke-width="2" stroke-miterlimit="10"/>
<path d="M-44.8103 30.2948L-37.4464 35.9068L-30.1502 41.6149L-22.8832 47.3644L-15.601 53.0922L-8.25622 58.7314L-0.801803 64.215L6.8067 69.48L14.6085 74.4708L22.6357 79.1419L30.9111 83.4609L39.4461 87.4115L48.2396 90.9954L57.2781 94.2317L66.5369 97.1557L75.981 99.8165L85.5658 102.278L95.2405 104.612L104.955 106.889L114.658 109.183L124.295 111.57L133.816 114.123L143.168 116.913L152.31 120.003L161.207 123.44L169.84 127.252L178.204 131.445L186.358 135.937L194.327 140.69L202.201 145.578L210.048 150.505L217.928 155.385L225.892 160.146L233.977 164.735L242.202 169.125L250.568 173.316L259.056 177.332L267.631 181.226L276.242 185.07L284.83 188.945L293.332 192.942L301.7 197.131L309.909 201.543L317.958 206.183L325.859 211.034L333.64 216.054L341.344 221.183L349.026 226.344L356.745 231.452L364.565 236.417L372.568 241.123L380.809 245.49L389.345 249.439L398.201 252.935L407.374 255.98L416.839 258.611L426.545 260.901L436.421 262.95L446.382 264.877L456.336 266.814L466.192 268.892L475.862 271.231L485.273 273.939L494.366 277.099L503.1 280.766L511.457 284.969L519.441 289.702L527.087 294.915L534.455 300.52L541.626 306.406L548.692 312.441L555.751 318.486L562.9 324.403L570.229 330.063L577.818 335.356L585.727 340.196L593.993 344.527L602.632 348.331L611.625 351.631L620.942 354.473L630.503 356.968L640.22 359.241L649.993 361.435L659.706 363.716" stroke="white" stroke-width="2" stroke-miterlimit="10"/>
<path d="M-51.2379 39.4999L-43.7347 44.9144L-36.2976 50.4229L-28.8902 55.9734L-21.4701 61.5059L-13.9917 66.9556L-6.40907 72.2576L1.32124 77.3501L9.23804 82.178L17.3731 86.6962L25.7483 90.8739L34.3738 94.6964L43.2474 98.167L52.3543 101.307L61.6683 104.152L71.1527 106.757L80.7626 109.183L90.4522 111.496L100.175 113.761L109.882 116.05L119.519 118.438L129.033 121L138.372 123.811L147.49 126.934L156.352 130.421L164.937 134.302L173.239 138.582L181.307 143.196L189.176 148.092L196.93 153.15L204.64 158.272L212.37 163.364L220.177 168.348L228.104 173.162L236.175 177.771L244.396 182.167L252.754 186.369L261.216 190.423L269.735 194.397L278.254 198.371L286.704 202.442L295.037 206.68L303.227 211.121L311.27 215.77L319.179 220.609L326.981 225.599L334.719 230.681L342.444 235.78L350.216 240.813L358.098 245.691L366.157 250.318L374.448 254.614L383.032 258.496L391.934 261.926L401.156 264.903L410.673 267.461L420.437 269.667L430.382 271.618L440.424 273.431L450.473 275.235L460.436 277.16L470.226 279.331L479.764 281.858L488.989 284.83L497.856 288.311L506.339 292.335L514.439 296.903L522.187 301.97L529.64 307.457L536.872 313.255L543.973 319.241L551.036 325.28L558.158 331.236L565.429 336.98L572.929 342.398L580.723 347.401L588.855 351.924L597.341 355.944L606.188 359.452L615.352 362.511L624.774 365.204L634.373 367.645L644.054 369.97L653.716 372.323" stroke="white" stroke-width="2" stroke-miterlimit="10"/>
<path d="M-57.6811 48.7242L-50.0336 53.9343L-42.4508 59.2361L-34.8982 64.5807L-27.3353 69.9108L-19.7174 75.1628L-12.0022 80.2768L-4.14631 85.1911L3.88861 89.8516L12.133 94.2148L20.6074 98.2519L29.3209 101.95L38.2704 105.313L47.4401 108.363L56.8028 111.14L66.3206 113.697L75.952 116.093L85.6563 118.385L95.3899 120.636L105.104 122.914L114.745 125.296L124.258 127.86L133.588 130.683L142.689 133.832L151.522 137.36L160.066 141.298L168.315 145.655L176.305 150.379L184.082 155.406L191.722 160.626L199.3 165.935L206.885 171.233L214.538 176.435L222.307 181.473L230.223 186.302L238.297 190.907L246.52 195.301L254.864 199.523L263.284 203.637L271.715 207.736L280.11 211.885L288.395 216.191L296.552 220.679L304.576 225.354L312.481 230.199L320.292 235.177L328.052 240.228L335.81 245.281L343.625 250.254L351.557 255.06L359.664 259.618L368.011 263.835L376.64 267.653L385.587 271.019L394.856 273.929L404.426 276.413L414.25 278.536L424.264 280.388L434.388 282.086L444.531 283.755L454.602 285.526L464.512 287.528L474.18 289.872L483.539 292.653L492.542 295.941L501.156 299.78L509.378 304.175L517.233 309.09L524.775 314.45L532.072 320.158L539.208 326.093L546.276 332.125L553.368 338.123L560.575 343.957L567.98 349.512L575.65 354.69L583.634 359.422L591.962 363.668L600.637 367.42L609.632 370.718L618.897 373.634L628.36 376.268L637.932 378.748L647.514 381.215" stroke="white" stroke-width="2" stroke-miterlimit="10"/>
<path d="M-64.146 57.9849L-56.3501 62.9845L-48.614 68.0691L-40.9089 73.1975L-33.1978 78.3175L-25.4383 83.3688L-17.587 88.2898L-9.60241 93.0218L-1.4482 97.5132L6.9047 101.723L15.4756 105.623L24.273 109.202L33.2928 112.466L42.519 115.436L51.9233 118.154L61.4691 120.672L71.1206 123.039L80.8412 125.309L90.5891 127.539L100.315 129.801L109.966 132.17L119.483 134.728L128.81 137.555L137.9 140.72L146.711 144.279L155.221 148.265L163.424 152.687L171.348 157.506L179.04 162.653L186.575 168.023L194.028 173.508L201.474 179.005L208.977 184.42L216.591 189.677L224.353 194.725L232.279 199.541L240.364 204.13L248.584 208.528L256.898 212.792L265.24 217.018L273.56 221.273L281.785 225.666L289.895 230.219L297.887 234.94L305.774 239.811L313.582 244.794L321.35 249.833L329.129 254.856L336.975 259.785L344.947 264.535L353.101 269.026L361.489 273.186L370.167 276.935L379.157 280.241L388.472 283.085L398.092 285.497L407.975 287.536L418.059 289.29L428.265 290.872L438.504 292.406L448.683 294.025L458.713 295.856L468.51 298.016L478.006 300.604L487.147 303.696L495.895 307.344L504.244 311.56L512.212 316.315L519.847 321.543L527.212 327.154L534.387 333.034L541.46 339.06L548.522 345.101L555.663 351.029L562.968 356.726L570.507 362.09L578.336 367.042L586.492 371.53L594.985 375.542L603.798 379.098L612.893 382.255L622.206 385.103L631.654 387.759L641.142 390.358" stroke="white" stroke-width="2" stroke-miterlimit="10"/>
<path d="M-70.6395 67.282L-62.6851 72.057L-54.7929 76.9203L-46.9335 81.83L-39.0709 86.7352L-31.165 91.579L-23.1749 96.3033L-15.0613 100.852L-6.78944 105.177L1.66839 109.238L10.3308 113.009L19.2054 116.478L28.2882 119.653L37.5628 122.555L47.0011 125.225L56.5711 127.709L66.2426 130.048L75.9819 132.291L85.748 134.496L95.4914 136.734L105.156 139.083L114.683 141.627L124.014 144.45L133.098 147.622L141.894 151.203L150.378 155.227L158.543 159.704L166.409 164.604L174.026 169.857L181.465 175.364L188.802 181.014L196.116 186.698L203.475 192.317L210.939 197.788L218.549 203.051L226.326 208.078L234.271 212.866L242.364 217.445L250.566 221.868L258.809 226.235L267.042 230.614L275.192 235.111L283.242 239.75L291.189 244.536L299.044 249.452L306.834 254.46L314.598 259.505L322.385 264.518L330.25 269.42L338.249 274.131L346.439 278.572L354.869 282.672L363.586 286.366L372.614 289.617L381.972 292.401L391.642 294.743L401.583 296.7L411.735 298.358L422.022 299.825L432.354 301.226L442.641 302.693L452.79 304.355L462.718 306.331L472.351 308.725L481.631 311.62L490.517 315.073L498.995 319.104L507.081 323.693L514.813 328.784L522.25 334.292L529.467 340.114L536.547 346.129L543.579 352.212L550.654 358.234L557.857 364.076L565.262 369.63L572.933 374.807L580.909 379.551L589.212 383.832L597.835 387.658L606.75 391.071L615.901 394.148L625.213 396.997L634.595 399.748" stroke="white" stroke-width="2" stroke-miterlimit="10"/>
<path d="M-77.1556 76.6113L-69.0398 81.1575L-60.9853 85.7906L-52.9655 90.4728L-44.9471 95.1572L-36.8931 99.7909L-28.7647 104.319L-20.5246 108.689L-12.1396 112.853L-3.58315 116.774L5.16287 120.427L14.106 123.799L23.2424 126.898L32.5557 129.745L42.0204 132.378L51.6115 134.832L61.3035 137.142L71.0642 139.355L80.8525 141.529L90.6175 143.736L100.301 146.057L109.843 148.581L119.183 151.391L128.267 154.563L137.055 158.157L145.519 162.208L153.653 166.729L161.473 171.695L169.024 177.041L176.377 182.67L183.608 188.471L190.798 194.33L198.022 200.142L205.341 205.818L212.802 211.293L220.432 216.528L228.236 221.517L236.197 226.282L244.282 230.872L252.416 235.393L260.55 239.913L268.614 244.533L276.59 249.276L284.477 254.147L292.287 259.128L300.045 264.181L307.791 269.251L315.573 274.272L323.443 279.166L331.457 283.856L339.67 288.264L348.131 292.322L356.878 295.972L365.945 299.17L375.34 301.9L385.056 304.178L395.052 306.057L405.27 307.621L415.634 308.977L426.059 310.249L436.451 311.566L446.718 313.061L456.774 314.855L466.543 317.055L475.964 319.751L484.989 323.007L493.6 326.851L501.806 331.269L509.639 336.216L517.153 341.616L524.415 347.374L531.505 353.374L538.511 359.495L545.522 365.609L552.623 371.593L559.895 377.336L567.404 382.743L575.199 387.745L583.308 392.301L591.737 396.403L600.464 400.081L609.445 403.4L618.612 406.456L627.875 409.375" stroke="white" stroke-width="2" stroke-miterlimit="10"/>
</g>
</svg>
