<svg width="162" height="42" viewBox="0 0 162 42" fill="none" xmlns="http://www.w3.org/2000/svg">
<g clip-path="url(#clip0_2471_15)">
<rect width="162" height="42" rx="21" fill="url(#paint0_linear_2471_15)"/>
<path d="M19.0758 12.0866H12.6067L20.8656 1.15804C21.0456 0.918069 20.9956 0.568116 20.7556 0.388139C20.6656 0.318149 20.5456 0.278154 20.4256 0.278154H8.47724C7.42738 0.278154 6.56749 1.13804 6.56749 2.1879C6.56749 3.23776 7.42738 4.09764 8.47724 4.09764H13.8465L5.55763 15.0362C5.36765 15.2762 5.41765 15.6161 5.65761 15.8061C5.7576 15.8861 5.87758 15.9261 5.99757 15.9161H19.0658C20.1157 15.8661 20.9256 14.9662 20.8756 13.9063C20.8256 12.9265 20.0457 12.1466 19.0658 12.0966V12.0866H19.0758ZM60.8303 0.278154C59.7804 0.278154 58.9205 1.13804 58.9205 2.1879V8.59704L48.6019 0.408137C48.3719 0.218162 48.022 0.248158 47.832 0.488126C47.752 0.588113 47.712 0.708097 47.712 0.83808V14.0063C47.712 15.0562 48.5719 15.9161 49.6218 15.9161C50.6716 15.9161 51.5315 15.0662 51.5315 14.0063V7.59718L61.8501 15.7961C62.0901 15.9861 62.44 15.9461 62.63 15.7061C62.71 15.6061 62.75 15.4861 62.75 15.3661V2.1879C62.74 1.12804 61.8901 0.278154 60.8303 0.278154ZM33.5239 12.4465C29.1545 12.4465 25.8949 10.1468 25.8949 8.08711C25.8949 6.02739 29.1645 3.72769 33.5239 3.72769C37.8933 3.72769 41.1529 6.02739 41.1529 8.08711C41.1529 10.1468 37.9033 12.4465 33.5239 12.4465ZM33.5239 -0.0917969C27.2047 -0.0917969 22.0754 3.56772 22.0754 8.08711C22.0754 12.6065 27.2047 16.266 33.5239 16.266C39.8431 16.266 44.9724 12.6065 44.9724 8.08711C44.9724 3.56772 39.8431 -0.0917969 33.5239 -0.0917969ZM-4.06109 12.4565C-6.47077 12.4565 -8.43051 10.5068 -8.43051 8.09711C-8.43051 5.68743 -6.48077 3.72769 -4.07109 3.72769C-1.66141 3.72769 0.298327 5.67743 0.298327 8.08711V8.09711C0.298327 10.4968 -1.65141 12.4465 -4.06109 12.4565ZM-4.06109 -0.0917969C-8.58049 -0.0917969 -12.24 3.56772 -12.25 8.08711C-12.25 12.6065 -8.59049 16.266 -4.07109 16.276C0.448308 16.276 4.10782 12.6165 4.11782 8.09711V8.08711C4.10782 3.56772 0.448307 -0.0917969 -4.06109 -0.0917969Z" fill="white"/>
<rect x="-11.75" y="0.0917969" width="186" height="42" rx="4" fill="white"/>
<g clip-path="url(#clip1_2471_15)">
<path fill-rule="evenodd" clip-rule="evenodd" d="M34.9996 25.8562C34.6998 22.5621 33.9739 22.7106 32.7131 19.8477C31.6908 17.5221 31.0229 15.3025 31.6601 12.072C29.561 14.8748 28.75 18.1936 28.75 21.3392C28.75 28.1924 33.7763 34.618 40.5575 35.855C37.8212 33.904 35.3711 29.9632 34.9996 25.8562Z" fill="#20A357"/>
<path fill-rule="evenodd" clip-rule="evenodd" d="M44.5311 24.4282C55.7286 15.9881 46.8687 6.81983 46.6063 6.51587C47.4651 14.2385 41.1711 16.5924 39.1368 18.7555C36.2266 21.8516 35.7836 24.2586 36.4856 27.4961C37.2591 31.0517 40.1659 35.3248 43.8836 36.0917C40.0159 34.5613 38.6733 28.8427 44.5311 24.4282Z" fill="#20A357"/>
<path fill-rule="evenodd" clip-rule="evenodd" d="M48.562 7.14868C50.4396 9.41423 51.83 13.0511 51.1621 16.8223C49.874 24.082 42.8917 25.1812 41.8864 29.9067C41.2628 32.8544 42.9735 35.3179 45.9415 35.3249C52.106 35.3391 57.7934 28.4435 57.6877 21.0106C57.6025 15.1576 54.3891 9.58742 48.562 7.14868Z" fill="#00A0E3"/>
<path fill-rule="evenodd" clip-rule="evenodd" d="M40.861 15.8538C46.8414 11.8175 45.4102 6.25791 45.4102 6.25791C44.8718 6.14835 44.2277 6.0918 43.5155 6.0918C39.6717 6.09533 33.8923 7.79184 32.8734 12.0155C31.5342 17.5715 35.4735 22.0885 35.4735 22.0885C35.4735 22.0885 36.414 18.851 40.861 15.8538ZM124.478 23.0145C123.377 23.0145 122.392 23.5235 121.725 24.3222L124.451 16.5996L126.713 23.0145H124.478ZM127.132 11.7115H123.5C122.993 11.7112 122.498 11.8724 122.083 12.1733C121.667 12.4742 121.35 12.9003 121.176 13.3939L115.151 30.4721H119.557L120.842 26.8246H128.056L129.344 30.4721H133.75L127.132 11.7115ZM116.368 13.7155V11.7115H103.173C102.518 11.7124 101.889 11.9832 101.426 12.4643C100.963 12.9454 100.703 13.5975 100.703 14.2775V16.2815H106.332V30.4721H110.738V16.2815H113.897C115.26 16.2815 116.368 15.1328 116.368 13.7155ZM92.9878 13.1005L86.3633 22.7918V11.7115H84.4312C83.7751 11.7115 83.1458 11.9818 82.6819 12.4631C82.2179 12.9443 81.9572 13.5969 81.9572 14.2775V30.4721H86.3633L93.9386 19.6498V30.4721H98.3446V11.7115H95.5776C95.0703 11.7114 94.5704 11.8375 94.1198 12.0792C93.6691 12.3208 93.281 12.6711 92.9878 13.1005ZM74.014 26.3828H68.4561V22.7212H73.997C74.4464 22.7478 74.869 22.9511 75.1789 23.2898C75.4888 23.6284 75.6625 24.0768 75.6646 24.5437C75.6668 25.0105 75.4973 25.4607 75.1906 25.8024C74.8839 26.1441 74.4631 26.3517 74.014 26.3828ZM68.4561 15.8008H73.8811C74.6001 15.8008 75.234 16.3557 75.2919 17.1015C75.3069 17.2954 75.2832 17.4904 75.2223 17.6745C75.1615 17.8585 75.0647 18.0276 74.9381 18.1711C74.8115 18.3147 74.6578 18.4297 74.4865 18.5089C74.3152 18.5882 74.13 18.63 73.9425 18.6319H71.8433C70.3917 18.6319 69.1274 19.4554 68.4561 20.6712V15.8008ZM79.2243 16.8258C79.0301 13.9276 76.6345 11.7115 73.8334 11.7115H66.524C65.8679 11.7115 65.2386 11.9818 64.7746 12.4631C64.3107 12.9443 64.05 13.5969 64.05 14.2775V30.4721H73.9016C76.9446 30.4721 79.5242 28.0369 79.6912 24.8842C79.7832 23.2089 79.1902 21.6573 78.1748 20.5228C78.9108 19.5013 79.3163 18.2077 79.2243 16.8258Z" fill="#EC691F"/>
</g>
</g>
<defs>
<linearGradient id="paint0_linear_2471_15" x1="0" y1="0" x2="76.6969" y2="104.567" gradientUnits="userSpaceOnUse">
<stop stop-color="#50C4FD"/>
<stop offset="1" stop-color="#2084FF"/>
</linearGradient>
<clipPath id="clip0_2471_15">
<rect width="162" height="42" rx="21" fill="white"/>
</clipPath>
<clipPath id="clip1_2471_15">
<rect width="105" height="30" fill="white" transform="translate(28.75 6.0918)"/>
</clipPath>
</defs>
</svg>
