<svg width="1354" height="1354" viewBox="0 0 1354 1354" fill="none" xmlns="http://www.w3.org/2000/svg">
<g opacity="0.3">
<path d="M397.086 38.5822L401.692 55.5114L406.317 72.4258L411.075 89.2423L416.079 105.876L421.442 122.243L427.263 138.271L433.629 153.894L440.468 169.166L447.917 183.985L455.937 198.381L464.561 212.329L473.817 225.807L483.731 238.797L494.327 251.282L505.621 263.248L517.616 274.695L530.287 285.64L543.578 296.124L557.427 306.195L571.766 315.903L586.518 325.303L601.599 334.46L616.918 343.44L632.386 352.31L647.918 361.132L663.444 369.958L679.166 378.64L694.893 387.317L710.857 395.818L727.057 404.145L743.454 412.325L759.969 420.418L776.482 428.512L792.842 436.719L808.877 445.168L824.4 453.997L839.227 463.342L853.194 473.325L866.177 484.039L878.106 495.534L888.949 507.835L898.711 520.938L907.449 534.802L915.274 549.342L922.423 564.384L929.242 579.671L936.116 594.917L943.42 609.844L951.476 624.213L960.529 637.843L970.727 650.622L982.117 662.518L994.643 673.57L1008.15 683.892L1022.42 693.654L1037.14 703.076L1051.99 712.408L1066.6 721.911L1080.64 731.839L1093.83 742.4L1105.97 753.74L1116.9 765.975L1126.61 779.116L1135.15 793.128L1142.62 807.929L1149.19 823.405L1155.03 839.414L1160.38 855.791L1165.48 872.358L1170.58 888.917L1175.99 905.251L1181.99 921.143L1188.85 936.402L1196.61 950.988L1205.48 964.755L1215.15 977.925L1225.48 990.612L1236.27 1002.95L1247.34 1015.08L1258.51 1027.14L1269.6 1039.26L1280.49 1051.52L1291.07 1064.02" stroke="white" stroke-width="2" stroke-miterlimit="10"/>
<path d="M376.145 54.3431L380.781 71.2488L385.38 88.1824L390.063 105.053L394.961 121.764L400.198 138.224L405.891 154.345L412.139 170.055L418.958 185.34L426.456 200.123L434.589 214.433L443.399 228.241L452.915 241.526L463.16 254.269L474.147 266.462L485.878 278.102L498.337 289.202L511.473 299.8L525.202 309.958L539.44 319.738L554.097 329.207L569.081 338.434L584.292 347.492L599.629 356.457L614.997 365.398L630.312 374.379L645.508 383.448L660.845 392.413L676.091 401.444L691.532 410.331L707.191 419.057L723.051 427.634L739.055 436.103L755.106 444.538L771.071 453.036L786.793 461.716L802.093 470.707L816.79 480.147L830.711 490.162L843.71 500.861L855.692 512.316L866.611 524.559L876.471 537.588L885.325 551.364L893.274 565.811L900.526 580.775L907.404 596.017L914.285 611.257L921.543 626.216L929.508 640.652L938.435 654.373L948.485 667.261L959.719 679.271L972.093 690.434L985.469 700.854L999.626 710.694L1014.28 720.168L1029.09 729.522L1043.72 739.014L1057.81 748.898L1071.1 759.385L1083.37 770.626L1094.46 782.738L1104.36 795.74L1113.09 809.604L1120.77 824.254L1127.53 839.581L1133.57 855.447L1139.1 871.688L1144.37 888.124L1149.66 904.543L1155.29 920.711L1161.57 936.402L1168.75 951.421L1177.03 965.617L1186.28 979.097L1196.67 991.736L1207.78 1003.84L1219.4 1015.56L1231.34 1027.05L1243.37 1038.47L1255.29 1049.96L1266.96 1061.65L1278.25 1073.62" stroke="white" stroke-width="2" stroke-miterlimit="10"/>
<path d="M354.903 70.3293L359.602 87.1872L364.214 104.11L368.871 120.999L373.714 137.75L378.882 154.26L384.503 170.433L390.692 186.186L397.539 201.45L405.059 216.214L413.324 230.425L422.331 244.086L432.11 257.173L442.681 269.672L454.049 281.581L466.2 292.907L479.098 303.68L492.666 313.956L506.797 323.812L521.386 333.33L536.324 342.589L551.501 351.67L566.804 360.657L582.124 369.632L597.361 378.668L612.432 387.828L627.277 397.155L642.208 406.418L656.962 415.814L671.871 425.093L686.981 434.224L702.299 443.2L717.792 452.047L733.383 460.82L748.96 469.604L764.377 478.507L779.465 487.655L794.04 497.182L807.919 507.227L820.933 517.913L832.963 529.33L843.958 541.515L853.92 554.466L862.898 568.148L870.988 582.489L878.368 597.357L885.337 612.531L892.261 627.737L899.513 642.7L907.427 657.172L916.267 670.956L926.208 683.924L937.323 696.02L949.581 707.267L962.857 717.759L976.938 727.653L991.547 737.156L1006.36 746.509L1021.02 755.968L1035.21 765.788L1048.62 776.182L1061.04 787.308L1072.32 799.281L1082.42 812.131L1091.36 825.837L1099.25 840.331L1106.21 855.507L1112.43 871.233L1118.13 887.348L1123.56 903.664L1129.03 919.951L1134.87 935.966L1141.39 951.473L1148.86 966.272L1157.49 980.212L1167.4 993.205L1178.17 1005.56L1190.03 1017.1L1202.46 1028.22L1215.23 1039.09L1228.09 1049.89L1240.83 1060.77L1253.27 1071.89L1265.26 1083.34" stroke="white" stroke-width="2" stroke-miterlimit="10"/>
<path d="M333.447 86.4921L338.246 103.275L342.915 120.154L347.597 137.024L352.44 153.773L357.596 170.291L363.205 186.472L369.392 202.225L376.257 217.474L383.88 232.16L392.269 246.278L401.479 259.785L411.521 272.676L422.409 284.939L434.138 296.576L446.683 307.608L459.985 318.078L473.946 328.06L488.438 337.646L503.336 346.932L518.512 356.011L533.841 364.977L549.197 373.921L564.465 382.932L579.541 392.086L594.344 401.442L608.821 411.04L623.33 420.614L637.583 430.378L651.954 440.054L666.513 449.591L681.291 458.966L696.276 468.187L711.414 477.294L726.609 486.359L741.729 495.48L756.612 504.776L771.064 514.393L784.894 524.471L797.911 535.153L809.982 546.537L821.051 558.664L831.118 571.536L840.229 585.118L848.473 599.343L856.005 614.097L863.098 629.177L870.103 644.322L877.388 659.259L885.291 673.737L894.086 687.553L903.957 700.571L914.991 712.725L927.169 724.029L940.378 734.568L954.417 744.492L969.014 754L983.852 763.33L998.587 772.737L1012.88 782.471L1026.44 792.753L1039.04 803.745L1050.52 815.564L1060.84 828.248L1070.01 841.785L1078.12 856.114L1085.28 871.137L1091.69 886.725L1097.55 902.719L1103.14 918.92L1108.77 935.085L1114.79 950.96L1121.53 966.305L1129.26 980.911L1138.19 994.628L1148.43 1007.37L1160.02 1019.11L1172.21 1030.41L1185.39 1040.96L1198.94 1051.25L1212.59 1061.46L1226.11 1071.77L1239.29 1082.33L1251.96 1093.27" stroke="white" stroke-width="2" stroke-miterlimit="10"/>
<path d="M311.808 102.803L316.745 119.482L321.519 136.282L326.277 153.094L331.178 169.8L336.381 186.281L342.036 202.427L348.277 218.138L355.214 233.331L362.934 247.944L371.484 261.94L380.905 275.29L391.203 287.988L402.393 300.024L414.461 311.407L427.368 322.168L441.034 332.365L455.343 342.085L470.151 351.434L485.313 360.521L500.683 369.453L516.122 378.334L531.494 387.264L546.676 396.336L561.563 405.627L576.078 415.194L590.174 425.071L604.248 434.966L617.998 445.101L631.833 455.173L645.844 465.113L660.087 474.882L674.572 484.472L689.265 493.906L704.116 503.224L718.923 512.574L733.59 522.028L747.911 531.738L761.674 541.864L774.681 552.55L786.787 563.906L797.928 575.978L808.101 588.769L817.349 602.247L825.758 616.348L833.465 630.97L840.712 645.934L847.834 660.991L855.192 675.872L863.126 690.325L871.915 704.143L881.756 717.181L892.745 729.366L904.879 740.701L918.055 751.262L932.082 761.192L946.698 770.683L961.591 779.97L976.422 789.302L990.853 798.931L1004.58 809.081L1017.38 819.92L1029.1 831.567L1039.66 844.071L1049.07 857.426L1057.41 871.582L1064.79 886.446L1071.38 901.896L1077.4 917.772L1083.13 933.86L1088.91 949.911L1095.1 965.661L1102.02 980.865L1109.97 995.312L1119.14 1008.85L1129.66 1021.38L1141.56 1032.89L1154.26 1043.8L1168.14 1053.84L1182.4 1063.59L1196.79 1073.26L1211.03 1083.03L1224.9 1093.07L1238.22 1103.53" stroke="white" stroke-width="2" stroke-miterlimit="10"/>
<path d="M290.046 119.149L295.162 135.694L300.089 152.38L304.977 169.095L309.991 185.716L315.298 202.119L321.057 218.188L327.408 233.816L334.469 248.916L342.332 263.422L351.061 277.284L360.694 290.475L371.246 302.983L382.724 314.804L395.108 325.952L408.343 336.468L422.334 346.422L436.95 355.913L452.031 365.058L467.413 373.979L482.937 382.794L498.449 391.62L513.804 400.561L528.873 409.715L543.552 419.159L557.766 428.947L571.479 439.108L585.11 449.33L598.364 459.832L611.671 470.294L625.147 480.631L639.026 490.669L652.963 500.664L667.186 510.445L681.623 520.068L696.149 529.626L710.597 539.241L724.767 549.062L738.445 559.249L751.43 569.951L763.565 581.283L774.777 593.301L785.06 606.01L794.451 619.381L803.032 633.352L810.932 647.831L818.362 662.657L825.636 677.6L833.106 692.398L841.11 706.798L849.935 720.589L859.784 733.619L870.768 745.807L882.894 757.146L896.072 767.705L910.121 777.616L924.789 787.068L939.768 796.288L954.725 805.525L969.324 815.028L983.258 825.025L996.291 835.691L1008.26 847.148L1019.08 859.453L1028.76 872.613L1037.34 886.584L1044.94 901.283L1051.72 916.592L1057.9 932.347L1063.78 948.326L1069.71 964.269L1076.04 979.91L1083.12 994.999L1091.23 1009.32L1100.59 1022.72L1111.32 1035.09L1123.45 1046.43L1136.89 1056.79L1150.89 1066.74L1165.79 1076.02L1180.83 1085.19L1195.73 1094.47L1210.24 1104.04L1224.17 1114.04" stroke="white" stroke-width="2" stroke-miterlimit="10"/>
<path d="M268.229 135.504L273.565 151.885L278.692 168.422L283.762 185.001L288.946 201.496L294.413 217.78L300.33 233.731L306.842 249.239L314.076 264.211L322.125 278.578L331.059 292.287L340.92 305.309L351.726 317.628L363.478 329.244L376.152 340.176L389.681 350.473L403.957 360.215L418.835 369.51L434.144 378.485L449.703 387.275L465.339 396.007L480.886 404.805L496.191 413.783L511.122 423.039L525.574 432.65L539.478 442.668L552.808 453.113L565.992 463.666L579.037 474.323L591.779 485.204L604.693 495.958L617.877 506.511L631.38 516.827L645.197 526.91L659.269 536.804L673.485 546.591L687.687 556.388L701.681 566.34L715.255 576.603L728.203 587.331L740.359 598.648L751.639 610.615L762.031 623.242L771.569 636.503L780.328 650.342L788.431 664.669L796.066 679.343L803.523 694.15L811.139 708.838L819.252 723.157L828.149 736.894L838.044 749.89L849.058 762.055L861.21 773.374L874.422 783.907L888.524 793.778L903.272 803.169L918.367 812.303L933.479 821.425L948.272 830.783L962.438 840.607L975.731 851.079L987.981 862.326L999.095 874.416L1009.05 887.365L1017.9 901.139L1025.74 915.663L1032.72 930.826L1039.06 946.456L1045.09 962.323L1051.15 978.165L1057.61 993.713L1064.81 1008.71L1073.04 1022.95L1082.52 1036.25L1093.38 1048.53L1105.66 1059.75L1119.28 1069.98L1134.06 1079.35L1149.04 1088.57L1164.65 1097.32L1180.12 1106.18L1195.2 1115.32L1209.69 1124.91" stroke="white" stroke-width="2" stroke-miterlimit="10"/>
<path d="M246.377 151.866L251.975 168.053L257.349 184.407L262.653 200.812L268.058 217.142L273.74 233.267L279.866 249.061L286.589 264.413L294.037 279.226L302.311 293.425L311.482 306.959L321.59 319.796L332.654 331.923L344.672 343.342L357.613 354.075L371.403 364.178L385.923 373.739L401.019 382.871L416.508 391.712L432.198 400.403L447.903 409.084L463.446 417.885L478.669 426.923L493.436 436.3L507.644 446.092L521.231 456.346L534.42 466.895L547.169 477.771L559.474 488.976L571.778 500.183L584.231 511.278L596.947 522.179L609.989 532.837L623.371 543.243L637.049 553.429L650.924 563.468L664.851 573.469L678.643 583.571L692.089 593.928L704.982 604.698L717.146 616.008L728.487 627.93L738.986 640.476L748.669 653.629L757.606 667.336L765.917 681.509L773.773 696.018L781.436 710.671L789.229 725.228L797.482 739.443L806.485 753.101L816.459 766.038L827.534 778.157L839.742 789.435L853.016 799.921L867.198 809.733L882.052 819.045L897.287 828.075L912.577 837.064L927.589 846.258L942.012 855.891L955.591 866.15L968.148 877.169L979.575 889.026L989.839 901.748L998.969 915.311L1007.06 929.651L1014.24 944.656L1020.77 960.153L1026.95 975.906L1033.14 991.653L1039.71 1007.12L1046.99 1022.06L1055.29 1036.24L1064.82 1049.5L1075.74 1061.74L1088.09 1072.91L1101.78 1083.09L1116.66 1092.38L1131.99 1101.34L1148.07 1109.74L1164.03 1118.24L1179.59 1127.02L1194.57 1136.24" stroke="white" stroke-width="2" stroke-miterlimit="10"/>
<path d="M224.49 168.257L230.389 184.22L236.054 200.357L241.64 216.553L247.318 232.681L253.263 248.61L259.646 264.213L266.623 279.376L274.326 293.999L282.857 308.008L292.29 321.346L302.667 333.984L314.002 345.91L326.283 357.133L339.475 367.679L353.498 377.609L368.226 387.014L383.499 396.016L399.125 404.755L414.903 413.381L430.635 422.041L446.138 430.872L461.247 439.994L475.938 449.427L489.938 459.374L503.267 469.819L515.913 480.771L528.282 491.929L540.18 503.436L552.036 514.975L564.014 526.424L576.241 537.687L588.8 548.704L601.721 559.452L614.976 569.952L628.483 580.265L642.106 590.491L655.668 600.763L668.963 611.234L681.779 622.06L693.935 633.375L705.326 645.259L715.925 657.732L725.748 670.781L734.859 684.358L743.376 698.378L751.461 712.717L759.347 727.204L767.34 741.613L775.761 755.703L784.899 769.261L794.98 782.118L806.145 794.17L818.435 805.386L831.796 815.808L846.08 825.543L861.063 834.76L876.459 843.67L891.949 852.51L907.202 861.525L921.905 870.949L935.797 880.977L948.684 891.749L960.449 903.356L971.04 915.835L980.474 929.172L988.826 943.314L996.242 958.151L1002.96 973.504L1009.3 989.14L1015.61 1004.8L1022.26 1020.2L1029.6 1035.1L1037.91 1049.27L1047.45 1062.53L1058.34 1074.78L1070.66 1085.98L1084.33 1096.17L1099.21 1105.46L1115.04 1114.05L1131.04 1122.51L1147.36 1130.74L1163.35 1139.21L1178.72 1148.14" stroke="white" stroke-width="2" stroke-miterlimit="10"/>
<path d="M202.618 184.631L208.855 200.343L214.853 216.233L220.765 232.186L226.76 248.078L233.014 263.778L239.697 279.158L246.967 294.103L254.957 308.513L263.773 322.31L273.49 335.437L284.151 347.864L295.764 359.583L308.314 370.606L321.75 380.971L335.988 390.741L350.896 400.013L366.309 408.909L382.032 417.576L397.856 426.168L413.586 434.829L429.035 443.699L444.05 452.892L458.503 462.502L472.295 472.603L485.368 483.237L497.71 494.415L509.698 505.855L521.189 517.665L532.591 529.541L544.082 541.351L555.805 552.988L567.862 564.378L580.298 575.486L593.104 586.319L606.214 596.926L619.506 607.398L632.81 617.861L645.926 628.465L658.642 639.365L670.772 650.7L682.198 662.558L692.882 674.967L702.832 687.921L712.108 701.376L720.823 715.248L729.135 729.419L737.256 743.731L745.465 757.979L754.074 771.929L763.371 785.369L773.584 798.128L784.862 810.096L797.257 821.234L810.726 831.575L825.132 841.219L840.261 850.327L855.837 859.103L871.546 867.78L887.059 876.603L902.063 885.803L916.288 895.582L929.53 906.091L941.655 917.431L952.596 929.649L962.354 942.746L970.992 956.674L978.654 971.329L985.58 986.529L992.083 1002.04L998.514 1017.61L1005.23 1032.97L1012.59 1047.85L1020.87 1062.04L1030.34 1075.35L1041.14 1087.68L1053.33 1098.96L1066.89 1109.24L1081.67 1118.61L1097.42 1127.25L1113.85 1135.4L1130.13 1143.65L1146.4 1151.91L1162.07 1160.61" stroke="white" stroke-width="2" stroke-miterlimit="10"/>
<path d="M180.781 200.953L187.391 216.389L193.76 232.003L200.038 247.684L206.391 263.31L212.993 278.752L220.014 293.882L227.61 308.584L235.917 322.759L245.043 336.326L255.062 349.23L266.017 361.438L277.917 372.944L290.735 383.768L304.413 393.954L318.856 403.572L333.927 412.723L349.455 421.535L365.244 430.153L381.086 438.732L396.784 447.417L412.165 456.338L427.073 465.611L441.374 475.333L454.97 485.58L467.801 496.395L479.853 507.788L491.466 519.508L502.555 531.616L513.504 543.829L524.503 556.005L535.713 568.024L547.251 579.798L559.184 591.28L571.521 602.462L584.21 613.382L597.145 624.12L610.165 634.795L623.077 645.55L635.669 656.542L647.751 667.913L659.192 679.76L669.942 692.121L680.003 704.993L689.429 718.336L698.329 732.071L706.859 746.08L715.213 760.22L723.654 774.295L732.467 788.095L741.94 801.403L752.306 814.049L763.717 825.919L776.237 836.965L789.833 847.211L804.38 856.752L819.674 865.737L835.448 874.367L851.392 882.869L867.184 891.485L882.509 900.448L897.09 909.963L910.71 920.192L923.218 931.247L934.531 943.188L944.636 956.028L953.582 969.728L961.51 984.184L968.659 999.22L975.333 1014.61L981.879 1030.09L988.651 1045.41L995.992 1060.3L1004.21 1074.54L1013.55 1087.95L1024.17 1100.4L1036.17 1111.83L1049.52 1122.26L1064.1 1131.78L1079.68 1140.55L1095.96 1148.8L1112.39 1156.95L1128.84 1165.07L1144.73 1173.62" stroke="white" stroke-width="2" stroke-miterlimit="10"/>
<path d="M158.929 217.307L165.941 232.444L172.715 247.757L179.394 263.141L186.141 278.475L193.125 293.632L200.515 308.488L208.466 322.927L217.113 336.849L226.565 350.174L236.899 362.843L248.156 374.827L260.343 386.12L273.426 396.747L287.335 406.761L301.968 416.237L317.183 425.282L332.804 434.024L348.634 442.612L364.476 451.19L380.142 459.899L395.459 468.868L410.266 478.215L424.428 488.041L437.841 498.423L450.443 509.408L462.222 521.004L473.47 532.994L484.165 545.395L494.664 557.942L505.169 570.484L515.858 582.89L526.867 595.058L538.28 606.926L550.126 618.473L562.37 629.723L574.921 640.746L587.629 651.652L600.308 662.58L612.748 673.685L624.755 685.111L636.185 696.967L646.974 709.298L657.121 722.106L666.674 735.355L675.739 748.967L684.469 762.828L693.054 776.796L701.727 790.699L710.749 804.343L720.41 817.512L730.94 830.035L742.499 841.795L755.157 852.738L768.893 862.881L783.594 872.307L799.064 881.161L815.047 889.635L831.239 897.953L847.322 906.353L862.981 915.067L877.934 924.306L891.949 934.241L904.859 944.997L916.566 956.646L927.039 969.213L936.314 982.668L944.53 996.911L951.916 1011.77L958.769 1027.02L965.427 1042.42L972.238 1057.71L979.542 1072.63L987.645 1086.96L996.802 1100.5L1007.19 1113.13L1018.91 1124.77L1031.96 1135.42L1046.24 1145.16L1061.53 1154.14L1077.63 1162.53L1094.12 1170.63L1110.45 1178.85L1126.46 1187.3" stroke="white" stroke-width="2" stroke-miterlimit="10"/>
<path d="M137.081 233.654L144.524 248.471L151.731 263.463L158.841 278.527L166.01 293.546L173.406 308.398L181.191 322.96L189.52 337.118L198.528 350.773L208.322 363.843L218.98 376.271L230.546 388.026L243.018 399.107L256.358 409.544L270.488 419.394L285.295 428.74L300.634 437.693L316.326 446.382L332.184 454.949L348.025 463.528L363.664 472.257L378.926 481.266L393.648 490.677L407.687 500.594L420.937 511.098L433.33 522.237L444.855 534.022L455.757 546.27L466.071 558.953L476.129 571.828L486.145 584.733L496.311 597.527L506.784 610.094L517.666 622.356L529.005 634.278L540.786 645.873L552.93 657.198L565.301 668.354L577.719 679.475L589.981 690.713L601.883 702.217L613.269 714.105L624.067 726.43L634.269 739.197L643.922 752.372L653.127 765.88L662.032 779.61L670.826 793.424L679.717 807.164L688.967 820.639L698.819 833.666L709.523 846.061L721.239 857.704L734.047 868.535L747.934 878.566L762.798 887.871L778.455 896.586L794.657 904.897L811.11 913.022L827.495 921.196L843.501 929.653L858.84 938.606L873.267 948.235L886.598 958.678L898.719 970.02L909.58 982.297L919.208 995.491L927.731 1009.51L935.371 1024.18L942.413 1039.29L949.182 1054.61L956.021 1069.87L963.265 1084.84L971.221 1099.27L980.149 1112.99L990.243 1125.83L1001.61 1137.73L1014.29 1148.66L1028.18 1158.69L1043.14 1167.93L1058.91 1176.56L1075.13 1184.85L1091.47 1193.06L1107.41 1201.56" stroke="white" stroke-width="2" stroke-miterlimit="10"/>
<path d="M115.238 249.986L123.133 264.466L130.798 279.118L138.364 293.843L145.982 308.53L153.812 323.059L162.015 337.311L170.742 351.174L180.125 364.55L190.274 377.356L201.267 389.537L213.142 401.061L225.895 411.934L239.481 422.188L253.816 431.886L268.78 441.116L284.222 449.992L299.97 458.64L315.853 467.188L331.696 475.766L347.319 484.507L362.541 493.546L377.195 503.007L391.132 513L404.239 523.61L416.445 534.889L427.738 546.846L438.318 559.333L448.27 572.285L457.901 585.477L467.436 598.74L477.085 611.918L487.019 624.884L497.365 637.545L508.186 649.852L519.487 661.804L531.204 673.446L543.214 684.87L555.346 696.204L567.4 707.596L579.164 719.203L590.47 731.151L601.24 743.497L611.462 756.249L621.181 769.375L630.494 782.803L639.547 796.424L648.521 810.103L657.624 823.686L667.07 837.016L677.135 849.884L688.013 862.15L699.892 873.672L712.856 884.388L726.901 894.301L741.937 903.478L757.789 912.049L774.22 920.19L790.941 928.116L807.639 936.058L824.002 944.25L839.736 952.908L854.588 962.223L868.357 972.341L880.91 983.362L892.181 995.336L902.182 1008.25L911.035 1022.02L918.945 1036.49L926.184 1051.46L933.067 1066.69L939.925 1081.94L947.09 1096.97L954.869 1111.53L963.528 1125.45L973.274 1138.55L984.238 1150.75L996.463 1162.02L1009.9 1172.39L1024.43 1181.94L1039.79 1190.87L1055.68 1199.41L1071.77 1207.81L1087.64 1216.37" stroke="white" stroke-width="2" stroke-miterlimit="10"/>
<path d="M93.3331 266.359L101.702 280.488L109.845 294.784L117.888 309.156L125.974 323.495L134.258 337.687L142.896 351.616L152.037 365.172L161.81 378.258L172.326 390.793L183.657 402.722L195.84 414.019L208.865 424.689L222.683 434.771L237.205 444.331L252.306 453.46L267.833 462.273L283.631 470.884L299.543 479.412L315.399 487.98L331.019 496.724L346.22 505.779L360.826 515.276L374.682 525.329L387.668 536.029L399.712 547.429L410.798 559.541L421.084 572.246L430.696 585.452L439.917 598.948L448.986 612.557L458.126 626.113L467.528 639.475L477.335 652.536L487.632 665.233L498.441 677.55L509.714 689.522L521.342 701.231L533.162 712.797L544.981 724.363L556.568 736.103L567.755 748.139L578.456 760.536L588.659 773.303L598.406 786.409L607.791 799.783L616.956 813.321L626.079 826.89L635.362 840.34L645.015 853.515L655.273 866.242L666.32 878.382L678.36 889.784L691.482 900.383L705.69 910.176L720.902 919.223L736.955 927.645L753.62 935.613L770.616 943.334L787.634 951.039L804.362 958.961L820.5 967.32L835.785 976.312L850.005 986.096L863.007 996.784L874.705 1008.44L885.102 1021.06L894.303 1034.57L902.499 1048.83L909.947 1063.64L916.947 1078.79L923.82 1094.03L930.893 1109.12L938.472 1123.84L946.83 1137.98L956.187 1151.37L966.69 1163.91L978.4 1175.56L991.334 1186.3L1005.35 1196.24L1020.23 1205.53L1035.73 1214.37L1051.49 1223L1067.2 1231.68" stroke="white" stroke-width="2" stroke-miterlimit="10"/>
<path d="M71.3731 282.778L80.2315 296.544L88.8704 310.473L97.4066 324.478L105.977 338.457L114.736 352.297L123.824 365.892L133.391 379.131L143.566 391.919L154.453 404.178L166.122 415.857L178.603 426.932L191.886 437.412L205.917 447.335L220.604 456.772L235.819 465.817L251.419 474.576L267.267 483.151L283.214 491.651L299.096 500.201L314.729 508.935L329.926 517.994L344.503 527.512L358.299 537.611L371.187 548.383L383.092 559.887L393.995 572.134L404.019 585.034L413.315 598.475L422.15 612.257L430.772 626.199L439.418 640.122L448.296 653.873L457.568 667.332L467.338 680.42L477.646 693.109L488.461 705.422L499.686 717.43L511.169 729.247L522.69 741.035L534.09 752.913L545.115 765.07L555.703 777.55L565.843 790.364L575.575 803.481L584.991 816.833L594.229 830.316L603.464 843.803L612.892 857.146L622.717 870.193L633.139 882.798L644.374 894.798L656.567 906.087L669.843 916.572L684.212 926.245L699.601 935.161L715.856 943.433L732.757 951.226L750.03 958.742L767.372 966.207L784.466 973.856L801.012 981.913L816.735 990.58L831.412 1000.02L844.875 1010.37L857.018 1021.7L867.828 1034.01L877.395 1047.25L885.893 1061.29L893.56 1075.94L900.682 1090.99L907.57 1106.22L914.542 1121.39L921.905 1136.26L929.938 1150.64L938.872 1164.35L948.876 1177.27L960.046 1189.32L972.396 1200.49L985.834 1210.85L1000.19 1220.54L1015.22 1229.72L1030.62 1238.63L1046.05 1247.51" stroke="white" stroke-width="2" stroke-miterlimit="10"/>
<path d="M49.3258 299.256L58.6886 312.647L67.8479 326.189L76.9024 339.809L85.9768 353.415L95.2158 366.898L104.767 380.149L114.771 393.065L125.351 405.552L136.607 417.537L148.603 428.973L161.369 439.837L174.89 450.139L189.113 459.921L203.942 469.253L219.251 478.228L234.919 486.937L250.822 495.471L266.818 503.936L282.741 512.455L298.405 521.167L313.616 530.215L328.184 539.74L341.942 549.868L354.756 560.696L366.546 572.284L377.292 584.648L387.088 597.718L396.097 611.371L404.574 625.421L412.773 639.676L420.945 653.952L429.313 668.082L438.059 681.931L447.306 695.409L457.109 708.473L467.455 721.134L478.26 733.455L489.383 745.538L500.601 757.552L511.746 769.619L522.564 781.93L532.995 794.528L543.026 807.423L552.697 820.585L562.1 833.947L571.369 847.408L580.674 860.842L590.207 874.107L600.167 887.054L610.748 899.541L622.124 911.437L634.481 922.604L647.903 932.981L662.427 942.539L677.99 951.326L694.446 959.449L711.583 967.067L729.134 974.377L746.798 981.603L764.26 988.979L781.214 996.733L797.379 1005.07L812.518 1014.17L826.45 1024.17L839.051 1035.16L850.29 1047.16L860.24 1060.11L869.055 1073.91L876.954 1088.39L884.207 1103.35L891.112 1118.56L897.98 1133.81L905.119 1148.85L912.812 1163.48L921.302 1177.52L930.777 1190.83L941.366 1203.31L953.095 1214.94L965.916 1225.77L979.693 1235.88L994.211 1245.44L1009.19 1254.66L1024.3 1263.78" stroke="white" stroke-width="2" stroke-miterlimit="10"/>
<path d="M27.1992 315.796L37.1005 328.787L46.7901 341.936L56.3684 355.167L65.9578 368.391L75.694 381.505L85.7164 394.406L96.1586 406.996L107.139 419.187L118.75 430.908L131.057 442.113L144.085 452.782L157.821 462.926L172.208 472.586L187.152 481.833L202.543 490.748L218.279 499.406L234.245 507.893L250.303 516.313L266.283 524.79L281.995 533.466L297.239 542.49L311.819 552.007L325.558 562.149L338.32 573.015L350.021 584.671L360.636 597.132L370.238 610.346L378.993 624.189L387.142 638.482L394.947 653.03L402.669 667.64L410.549 682.132L418.784 696.362L427.514 710.223L436.812 723.662L446.682 736.678L457.052 749.32L467.796 761.686L478.677 773.951L489.525 786.239L500.093 798.736L510.32 811.485L520.195 824.496L529.758 837.739L539.101 851.145L548.355 864.617L557.687 878.032L567.283 891.25L577.337 904.128L588.039 916.525L599.557 928.316L612.048 939.384L625.599 949.665L640.269 959.115L655.999 967.778L672.651 975.756L690.02 983.202L707.845 990.309L725.829 997.298L743.655 1004.4L761.015 1011.86L777.62 1019.87L793.225 1028.63L807.631 1038.27L820.698 1048.91L832.38 1060.58L842.727 1073.24L851.873 1086.79L860.017 1101.09L867.411 1115.94L874.34 1131.14L881.109 1146.46L888.022 1161.67L895.368 1176.56L903.403 1190.94L912.34 1204.65L922.316 1217.58L933.4 1229.7L945.575 1241L958.739 1251.57L972.708 1261.54L987.223 1271.1L1001.97 1280.49" stroke="white" stroke-width="2" stroke-miterlimit="10"/>
<path d="M5.00564 332.398L15.4549 344.983L25.6962 357.722L35.8196 370.549L45.938 383.379L56.1776 396.119L66.67 408.672L77.5417 420.943L88.9058 432.848L100.853 444.321L113.444 455.315L126.705 465.812L140.622 475.821L155.141 485.383L170.174 494.564L185.637 503.425L201.442 512.032L217.481 520.466L233.614 528.83L249.667 537.253L265.445 545.88L280.74 554.866L295.348 564.362L309.09 574.502L321.822 585.392L333.455 597.097L343.966 609.636L353.409 622.968L361.942 636.975L369.798 651.486L377.242 666.303L384.546 681.223L391.962 696.06L399.705 710.655L407.93 724.892L416.729 738.702L426.119 752.074L436.044 765.047L446.389 777.71L456.898 790.25L467.41 802.788L477.682 815.504L487.659 828.44L497.331 841.601L506.74 854.959L515.975 868.445L525.168 881.963L534.481 895.392L544.096 908.596L554.201 921.436L564.981 933.775L576.602 945.49L589.198 956.48L602.877 966.666L617.676 976.021L633.561 984.569L650.399 992.409L667.992 999.688L686.083 1006.6L704.378 1013.36L722.561 1020.2L740.321 1027.35L757.364 1035.04L773.433 1043.45L788.315 1052.75L801.854 1063.03L813.988 1074.37L824.744 1086.73L834.233 1100.02L842.636 1114.13L850.183 1128.87L857.149 1144.04L863.827 1159.42L870.521 1174.8L877.524 1189.94L885.107 1204.66L893.494 1218.77L902.852 1232.17L913.279 1244.77L924.791 1256.56L937.319 1267.6L950.71 1278L964.728 1287.94L979.076 1297.63" stroke="white" stroke-width="2" stroke-miterlimit="10"/>
</g>
</svg>
