<svg width="162" height="42" viewBox="0 0 162 42" fill="none" xmlns="http://www.w3.org/2000/svg">
<rect width="162" height="42" rx="21" fill="url(#paint0_linear_1746_5715)"/>
<g clip-path="url(#clip0_1746_5715)">
<mask id="mask0_1746_5715" style="mask-type:luminance" maskUnits="userSpaceOnUse" x="17" y="3" width="128" height="36">
<path d="M145 3H17V39H145V3Z" fill="white"/>
</mask>
<g mask="url(#mask0_1746_5715)">
<path d="M20.9748 28.5818L17.0679 13.3916H19.6307L22.6325 25.0585L25.8496 13.3906L28.2385 13.3916L31.4669 25.1205L34.4822 13.3945L37.0449 13.3906L33.1364 28.5791L30.1658 28.5759L27.045 17.2321L23.9213 28.5789L20.9748 28.5818Z" fill="white"/>
<path d="M38.8113 13.3984H41.2508V28.5709H38.8113V13.3984Z" fill="white"/>
<path d="M46.4665 26.1909H52.4055V28.5709H44.0774V13.3984H46.4665V26.1909Z" fill="white"/>
<path d="M59.9108 13.4159C61.9128 13.4159 63.5785 14.151 64.8908 15.6034C66.2199 17.0559 66.8929 18.8585 66.8929 20.9934C66.8929 23.111 66.2199 24.9134 64.8908 26.3834C63.5785 27.836 61.9128 28.5709 59.9108 28.5709H54.1736V13.3984H59.9108V13.4159ZM59.9108 26.2084C61.2903 26.2084 62.4176 25.7184 63.2588 24.7384C64.1337 23.7584 64.5711 22.4984 64.5711 21.0109C64.5711 19.4885 64.1337 18.2634 63.2588 17.2835C62.4008 16.3034 61.2735 15.8134 59.9108 15.8134H56.5795V26.2084H59.9108Z" fill="white"/>
<path d="M79.7631 24.2366C79.7631 25.4797 79.3428 26.5127 78.4847 27.3357C77.6266 28.1586 76.617 28.5788 75.3722 28.5788H69.1301V13.3984H74.9178C76.1124 13.3984 77.1215 13.8187 77.946 14.6066C78.7876 15.412 79.1914 16.41 79.1914 17.6006C79.1914 18.9313 78.6863 19.9468 77.7108 20.6997C78.9892 21.4001 79.7631 22.6607 79.7631 24.2366ZM71.5359 15.7447V19.7367H74.9343C75.9946 19.7367 76.802 18.8613 76.802 17.7407C76.802 16.6201 75.9946 15.7447 74.9343 15.7447H71.5359ZM75.3887 26.2326C76.4991 26.2326 77.3743 25.3046 77.3743 24.114C77.3743 22.9234 76.4991 21.9954 75.3887 21.9954H71.5359V26.2501H75.3887V26.2326Z" fill="white"/>
<path d="M84.4244 26.1976H90.8852V28.5788H82.0356V13.3984H90.7844V15.7797H84.4244V19.7192H90.2628V22.0829H84.4244V26.1976Z" fill="white"/>
<path d="M101.349 28.5788L98.2531 23.0459H95.4264V28.5788H93.0376V13.3984H98.8755C100.188 13.3984 101.298 13.8712 102.19 14.8342C103.098 15.7622 103.57 16.9178 103.57 18.2835C103.57 20.2095 102.409 21.9779 100.676 22.6782L103.99 28.5788H101.349ZM95.4264 15.7446V20.8223H98.8589C100.137 20.8223 101.147 19.7017 101.147 18.2835C101.147 16.8827 100.121 15.7446 98.8589 15.7446H95.4264Z" fill="white"/>
<path d="M114.119 28.5789L111.04 23.0431H108.213V28.5789H105.824V13.3906H111.662C112.975 13.3906 114.085 13.8636 114.977 14.8271C115.885 15.7556 116.357 16.9118 116.357 18.2782C116.357 20.2052 115.196 21.9745 113.463 22.6753L116.777 28.5789H114.119ZM108.213 15.738V20.8183H111.646C112.924 20.8183 113.934 19.6972 113.934 18.2782C113.934 16.8768 112.908 15.738 111.646 15.738H108.213Z" fill="white"/>
<path d="M118.528 13.3945H120.918V28.5811H118.528V13.3945Z" fill="white"/>
<path d="M126.133 26.1976H132.594V28.5787H123.743V13.3984H132.492V15.7797H126.133V19.7192H131.971V22.0829H126.133V26.1976Z" fill="white"/>
<path d="M134.259 25.1261L136.328 23.8661C136.917 25.5811 138.111 26.4211 139.945 26.4211C141.762 26.4211 142.654 25.6161 142.654 24.4261C142.654 23.7961 142.401 23.3411 141.931 23.0261C141.459 22.6936 140.584 22.3261 139.34 21.9411C137.943 21.5036 137.253 21.2236 136.277 20.5586C135.335 19.8586 134.864 18.8611 134.864 17.4961C134.864 16.1486 135.318 15.0986 136.244 14.3111C137.152 13.5061 138.263 13.1211 139.558 13.1211C141.897 13.1211 143.697 14.3811 144.639 16.4636L142.62 17.6711C142.014 16.2711 140.988 15.5536 139.558 15.5536C138.161 15.5536 137.27 16.2886 137.27 17.4436C137.27 18.5636 137.976 19.0886 140.214 19.8061C140.769 19.9986 141.173 20.1386 141.425 20.2436C141.695 20.3311 142.048 20.4886 142.502 20.6811C142.974 20.8736 143.344 21.1011 143.563 21.2936C144.336 21.9236 145.16 22.9561 145.06 24.4086C145.06 25.7736 144.589 26.8761 143.63 27.6811C142.687 28.4861 141.443 28.8711 139.895 28.8711C137.068 28.8536 135.015 27.4536 134.259 25.1261Z" fill="white"/>
</g>
</g>
<defs>
<linearGradient id="paint0_linear_1746_5715" x1="0" y1="0" x2="76.6969" y2="104.567" gradientUnits="userSpaceOnUse">
<stop stop-color="#570F8D"/>
<stop offset="1" stop-color="#E6559F"/>
</linearGradient>
<clipPath id="clip0_1746_5715">
<rect width="128" height="16" fill="white" transform="translate(17 13)"/>
</clipPath>
</defs>
</svg>
