<svg width="186" height="42" viewBox="0 0 186 42" fill="none" xmlns="http://www.w3.org/2000/svg">
<g clip-path="url(#clip0_2866_4440)">
<rect width="186" height="42" rx="21" fill="url(#paint0_linear_2866_4440)"/>
<path d="M31.0758 12.0846H24.6067L32.8656 1.15608C33.0456 0.916115 32.9956 0.566162 32.7556 0.386186C32.6656 0.316196 32.5456 0.2762 32.4256 0.2762H20.4772C19.4274 0.2762 18.5675 1.13609 18.5675 2.18595C18.5675 3.23581 19.4274 4.09569 20.4772 4.09569H25.8465L17.5576 15.0342C17.3677 15.2742 17.4176 15.6142 17.6576 15.8041C17.7576 15.8841 17.8776 15.9241 17.9976 15.9141H31.0658C32.1157 15.8641 32.9256 14.9642 32.8756 13.9044C32.8256 12.9245 32.0457 12.1446 31.0658 12.0946V12.0846H31.0758ZM72.8303 0.2762C71.7804 0.2762 70.9205 1.13609 70.9205 2.18595V8.59509L60.6019 0.406183C60.3719 0.216209 60.022 0.246205 59.832 0.486173C59.752 0.58616 59.712 0.706144 59.712 0.836126V14.0044C59.712 15.0542 60.5719 15.9141 61.6217 15.9141C62.6716 15.9141 63.5315 15.0642 63.5315 14.0044V7.59522L73.8501 15.7941C74.0901 15.9841 74.44 15.9441 74.63 15.7041C74.71 15.6042 74.75 15.4842 74.75 15.3642V2.18595C74.74 1.12609 73.8901 0.2762 72.8303 0.2762ZM45.5239 12.4446C41.1545 12.4446 37.8949 10.1449 37.8949 8.08516C37.8949 6.02543 41.1645 3.72574 45.5239 3.72574C49.8933 3.72574 53.1529 6.02543 53.1529 8.08516C53.1529 10.1449 49.9033 12.4446 45.5239 12.4446ZM45.5239 -0.09375C39.2047 -0.09375 34.0754 3.56576 34.0754 8.08516C34.0754 12.6046 39.2047 16.2641 45.5239 16.2641C51.8431 16.2641 56.9724 12.6046 56.9724 8.08516C56.9724 3.56576 51.8431 -0.09375 45.5239 -0.09375ZM7.93891 12.4546C5.52923 12.4546 3.56949 10.5048 3.56949 8.09516C3.56949 5.68548 5.51923 3.72574 7.92891 3.72574C10.3386 3.72574 12.2983 5.67548 12.2983 8.08516V8.09516C12.2983 10.4948 10.3486 12.4446 7.93891 12.4546ZM7.93891 -0.09375C3.41951 -0.09375 -0.240001 3.56576 -0.25 8.08516C-0.25 12.6046 3.40951 16.2641 7.92891 16.2741C12.4483 16.2741 16.1078 12.6146 16.1178 8.09516V8.08516C16.1078 3.56576 12.4483 -0.09375 7.93891 -0.09375Z" fill="white"/>
<rect x="0.25" y="0.0898438" width="186" height="42" rx="4" fill="white"/>
<g clip-path="url(#clip1_2866_4440)">
<path fill-rule="evenodd" clip-rule="evenodd" d="M46.9996 25.8545C46.6998 22.5604 45.9739 22.7089 44.7131 19.846C43.6908 17.5204 43.0229 15.3008 43.6601 12.0703C41.561 14.8731 40.75 18.1919 40.75 21.3375C40.75 28.1907 45.7763 34.6163 52.5575 35.8533C49.8212 33.9023 47.3711 29.9615 46.9996 25.8545Z" fill="#20A357"/>
<path fill-rule="evenodd" clip-rule="evenodd" d="M56.5308 24.428C67.7284 15.9878 58.8685 6.81958 58.6061 6.51562C59.4648 14.2383 53.1709 16.5922 51.1365 18.7553C48.2264 21.8514 47.7834 24.2583 48.4854 27.4958C49.2589 31.0514 52.1656 35.3245 55.8834 36.0915C52.0157 34.5611 50.6731 28.8424 56.5308 24.428Z" fill="#20A357"/>
<path fill-rule="evenodd" clip-rule="evenodd" d="M60.562 7.14844C62.4396 9.41399 63.83 13.0509 63.1621 16.8221C61.874 24.0818 54.8917 25.181 53.8864 29.9065C53.2628 32.8541 54.9735 35.3176 57.9415 35.3247C64.106 35.3388 69.7934 28.4432 69.6877 21.0104C69.6025 15.1574 66.3891 9.58717 60.562 7.14844Z" fill="#00A0E3"/>
<path fill-rule="evenodd" clip-rule="evenodd" d="M52.8607 15.8519C58.8411 11.8156 57.4099 6.25596 57.4099 6.25596C56.8715 6.14639 56.2275 6.08984 55.5153 6.08984C51.6714 6.09338 45.8921 7.78989 44.8732 12.0135C43.534 17.5696 47.4732 22.0865 47.4732 22.0865C47.4732 22.0865 48.4137 18.849 52.8607 15.8519ZM136.478 23.0126C135.377 23.0126 134.392 23.5215 133.724 24.3203L136.45 16.5976L138.713 23.0126H136.478ZM139.132 11.7095H135.5C134.993 11.7093 134.498 11.8705 134.082 12.1714C133.667 12.4723 133.35 12.8983 133.176 13.3919L127.151 30.4701H131.557L132.842 26.8226H140.056L141.344 30.4701H145.75L139.132 11.7095ZM128.367 13.7135V11.7095H115.173C114.518 11.7105 113.889 11.9812 113.426 12.4623C112.963 12.9435 112.702 13.5956 112.702 14.2755V16.2795H118.332V30.4701H122.738V16.2795H125.897C127.26 16.2795 128.367 15.1308 128.367 13.7135ZM104.988 13.0986L98.3631 22.7899V11.7095H96.431C95.7748 11.7095 95.1456 11.9799 94.6816 12.4611C94.2177 12.9423 93.957 13.595 93.957 14.2755V30.4701H98.3631L105.938 19.6478V30.4701H110.344V11.7095H107.577C107.07 11.7094 106.57 11.8355 106.12 12.0772C105.669 12.3189 105.281 12.6691 104.988 13.0986ZM86.0138 26.3808H80.4559V22.7192H85.9967C86.4461 22.7458 86.8688 22.9492 87.1787 23.2878C87.4885 23.6264 87.6622 24.0749 87.6644 24.5417C87.6666 25.0086 87.497 25.4587 87.1903 25.8004C86.8837 26.1421 86.4629 26.3497 86.0138 26.3808ZM80.4559 15.7988H85.8809C86.5999 15.7988 87.2337 16.3537 87.2916 17.0995C87.3066 17.2934 87.2829 17.4885 87.2221 17.6725C87.1612 17.8565 87.0645 18.0256 86.9379 18.1692C86.8113 18.3127 86.6576 18.4277 86.4863 18.507C86.315 18.5863 86.1298 18.6281 85.9422 18.6299H83.8431C82.3914 18.6299 81.1272 19.4534 80.4559 20.6693V15.7988ZM91.2241 16.8238C91.0298 13.9256 88.6343 11.7095 85.8332 11.7095H78.5237C77.8676 11.7095 77.2384 11.9799 76.7744 12.4611C76.3104 12.9423 76.0498 13.595 76.0498 14.2755V30.4701H85.9013C88.9443 30.4701 91.5239 28.0349 91.6909 24.8823C91.7829 23.207 91.19 21.6553 90.1745 20.5208C90.9106 19.4994 91.3161 18.2058 91.2241 16.8238Z" fill="#EC691F"/>
</g>
</g>
<defs>
<linearGradient id="paint0_linear_2866_4440" x1="0" y1="0" x2="72.9619" y2="114.212" gradientUnits="userSpaceOnUse">
<stop stop-color="#50C4FD"/>
<stop offset="1" stop-color="#2084FF"/>
</linearGradient>
<clipPath id="clip0_2866_4440">
<rect width="186" height="42" rx="21" fill="white"/>
</clipPath>
<clipPath id="clip1_2866_4440">
<rect width="105" height="30" fill="white" transform="translate(40.75 6.08984)"/>
</clipPath>
</defs>
</svg>
