<svg width="186" height="42" viewBox="0 0 186 42" fill="none" xmlns="http://www.w3.org/2000/svg">
<rect width="186" height="42" rx="21" fill="url(#paint0_linear_1663_2594)"/>
<g clip-path="url(#clip0_1663_2594)">
<mask id="mask0_1663_2594" style="mask-type:luminance" maskUnits="userSpaceOnUse" x="20" y="0" width="146" height="42">
<path d="M166 0.75H20V41.25H166V0.75Z" fill="white"/>
</mask>
<g mask="url(#mask0_1663_2594)">
<path d="M24.5337 29.5315L20.0774 12.4425H23.0006L26.4245 25.5678L30.094 12.4414L32.8189 12.4425L36.5013 25.6375L39.9406 12.4458L42.8637 12.4414L38.4056 29.5285L35.0173 29.5249L31.4576 16.7631L27.8946 29.5282L24.5337 29.5315Z" fill="white"/>
<path d="M44.8784 12.4492H47.661V29.5183H44.8784V12.4492Z" fill="white"/>
<path d="M53.61 26.8408H60.3843V29.5183H50.885V12.4492H53.61V26.8408Z" fill="white"/>
<path d="M68.9451 12.4689C71.2287 12.4689 73.1286 13.2958 74.6255 14.9298C76.1415 16.5639 76.9091 18.5917 76.9091 20.9936C76.9091 23.3758 76.1415 25.4036 74.6255 27.0573C73.1286 28.6914 71.2287 29.5183 68.9451 29.5183H62.4011V12.4492H68.9451V12.4689ZM68.9451 26.8604C70.5187 26.8604 71.8044 26.3092 72.764 25.2067C73.7619 24.1042 74.2608 22.6867 74.2608 21.0133C74.2608 19.3005 73.7619 17.9224 72.764 16.8199C71.7853 15.7173 70.4995 15.1661 68.9451 15.1661H65.1454V26.8604H68.9451Z" fill="white"/>
<path d="M91.5892 24.6421C91.5892 26.0406 91.1098 27.2028 90.131 28.1286C89.1522 29.0544 88.0006 29.5271 86.5807 29.5271H79.4609V12.4492H86.0624C87.4251 12.4492 88.5761 12.922 89.5166 13.8084C90.4765 14.7144 90.937 15.8372 90.937 17.1766C90.937 18.6737 90.3609 19.8162 89.2483 20.6632C90.7065 21.4511 91.5892 22.8693 91.5892 24.6421ZM82.205 15.0887V19.5798H86.0813C87.2907 19.5798 88.2117 18.5949 88.2117 17.3343C88.2117 16.0736 87.2907 15.0887 86.0813 15.0887H82.205ZM86.5996 26.8877C87.8662 26.8877 88.8644 25.8436 88.8644 24.5042C88.8644 23.1648 87.8662 22.1208 86.5996 22.1208H82.205V26.9073H86.5996V26.8877Z" fill="white"/>
<path d="M96.9061 26.8482H104.275V29.5271H94.1814V12.4492H104.16V15.1281H96.9061V19.5601H103.566V22.2193H96.9061V26.8482Z" fill="white"/>
<path d="M116.211 29.5271L112.679 23.3026H109.455V29.5271H106.73V12.4492H113.389C114.886 12.4492 116.153 12.981 117.17 14.0644C118.206 15.1084 118.744 16.4085 118.744 17.9449C118.744 20.1116 117.419 22.1011 115.443 22.889L119.223 29.5271H116.211ZM109.455 15.0887V20.801H113.37C114.829 20.801 115.98 19.5404 115.98 17.9449C115.98 16.369 114.81 15.0887 113.37 15.0887H109.455Z" fill="white"/>
<path d="M130.776 29.5282L127.264 23.3005H124.04V29.5282H121.315V12.4414H127.974C129.471 12.4414 130.738 12.9735 131.755 14.0575C132.791 15.102 133.329 16.4027 133.329 17.9399C133.329 20.1078 132.004 22.0983 130.028 22.8866L133.808 29.5282H130.776ZM124.04 15.0823V20.7976H127.955C129.414 20.7976 130.565 19.5362 130.565 17.9399C130.565 16.3633 129.395 15.0823 127.955 15.0823H124.04Z" fill="white"/>
<path d="M135.806 12.4453H138.531V29.5302H135.806V12.4453Z" fill="white"/>
<path d="M144.479 26.8482H151.849V29.5271H141.754V12.4492H151.733V15.1281H144.479V19.5601H151.138V22.2193H144.479V26.8482Z" fill="white"/>
<path d="M153.748 25.6423L156.108 24.2248C156.78 26.1542 158.142 27.0992 160.234 27.0992C162.306 27.0992 163.324 26.1936 163.324 24.8549C163.324 24.1461 163.036 23.6342 162.499 23.2799C161.961 22.9058 160.963 22.4923 159.543 22.0592C157.95 21.567 157.164 21.252 156.05 20.5039C154.976 19.7164 154.438 18.5942 154.438 17.0586C154.438 15.5426 154.957 14.3614 156.012 13.4755C157.049 12.5698 158.315 12.1367 159.793 12.1367C162.46 12.1367 164.513 13.5542 165.588 15.897L163.285 17.2555C162.594 15.6805 161.424 14.8733 159.793 14.8733C158.2 14.8733 157.182 15.7001 157.182 16.9995C157.182 18.2596 157.988 18.8502 160.541 19.6573C161.174 19.8739 161.635 20.0314 161.923 20.1495C162.23 20.248 162.633 20.4252 163.151 20.6417C163.689 20.8583 164.111 21.1142 164.36 21.3308C165.243 22.0395 166.183 23.2011 166.068 24.8352C166.068 26.3708 165.531 27.6111 164.437 28.5167C163.362 29.4224 161.942 29.8555 160.177 29.8555C156.953 29.8358 154.611 28.2608 153.748 25.6423Z" fill="white"/>
</g>
</g>
<defs>
<linearGradient id="paint0_linear_1663_2594" x1="0" y1="0" x2="72.9619" y2="114.212" gradientUnits="userSpaceOnUse">
<stop stop-color="#570F8D"/>
<stop offset="1" stop-color="#E6559F"/>
</linearGradient>
<clipPath id="clip0_1663_2594">
<rect width="146" height="18" fill="white" transform="translate(20 12)"/>
</clipPath>
</defs>
</svg>
