<svg width="162" height="42" viewBox="0 0 162 42" fill="none" xmlns="http://www.w3.org/2000/svg">
<rect width="162" height="42" rx="21" fill="url(#paint0_linear_1746_5712)"/>
<path d="M74.8258 24.9948H68.3567L76.6156 14.0662C76.7956 13.8263 76.7456 13.4763 76.5056 13.2963C76.4156 13.2264 76.2956 13.1864 76.1756 13.1864H64.2272C63.1774 13.1864 62.3175 14.0462 62.3175 15.0961C62.3175 16.146 63.1774 17.0058 64.2272 17.0058H69.5965L61.3076 27.9444C61.1177 28.1844 61.1676 28.5243 61.4076 28.7143C61.5076 28.7943 61.6276 28.8343 61.7476 28.8243H74.8158C75.8657 28.7743 76.6756 27.8744 76.6256 26.8145C76.5756 25.8347 75.7957 25.0548 74.8158 25.0048V24.9948H74.8258ZM116.58 13.1864C115.53 13.1864 114.671 14.0462 114.671 15.0961V21.5052L104.352 13.3163C104.122 13.1264 103.772 13.1564 103.582 13.3963C103.502 13.4963 103.462 13.6163 103.462 13.7463V26.9145C103.462 27.9644 104.322 28.8243 105.372 28.8243C106.422 28.8243 107.282 27.9744 107.282 26.9145V20.5054L117.6 28.7043C117.84 28.8943 118.19 28.8543 118.38 28.6143C118.46 28.5143 118.5 28.3943 118.5 28.2743V15.0961C118.49 14.0362 117.64 13.1864 116.58 13.1864ZM89.2739 25.3547C84.9045 25.3547 81.6449 23.055 81.6449 20.9953C81.6449 18.9356 84.9145 16.6359 89.2739 16.6359C93.6433 16.6359 96.9029 18.9356 96.9029 20.9953C96.9029 23.055 93.6533 25.3547 89.2739 25.3547ZM89.2739 12.8164C82.9547 12.8164 77.8254 16.4759 77.8254 20.9953C77.8254 25.5147 82.9547 29.1742 89.2739 29.1742C95.5931 29.1742 100.722 25.5147 100.722 20.9953C100.722 16.4759 95.5931 12.8164 89.2739 12.8164ZM51.6889 25.3647C49.2792 25.3647 47.3195 23.415 47.3195 21.0053C47.3195 18.5956 49.2692 16.6359 51.6789 16.6359C54.0886 16.6359 56.0483 18.5856 56.0483 20.9953V21.0053C56.0483 23.405 54.0986 25.3547 51.6889 25.3647ZM51.6889 12.8164C47.1695 12.8164 43.51 16.4759 43.5 20.9953C43.5 25.5147 47.1595 29.1742 51.6789 29.1842C56.1983 29.1842 59.8578 25.5247 59.8678 21.0053V20.9953C59.8578 16.4759 56.1983 12.8164 51.6889 12.8164Z" fill="white"/>
<defs>
<linearGradient id="paint0_linear_1746_5712" x1="0" y1="0" x2="76.6969" y2="104.567" gradientUnits="userSpaceOnUse">
<stop stop-color="#50C4FD"/>
<stop offset="1" stop-color="#2084FF"/>
</linearGradient>
</defs>
</svg>
