<svg width="190" height="42" viewBox="0 0 190 42" fill="none" xmlns="http://www.w3.org/2000/svg">
<rect width="190" height="42" rx="21" fill="white"/>
<mask id="mask0_2866_4443" style="mask-type:luminance" maskUnits="userSpaceOnUse" x="20" y="7" width="150" height="28">
<path d="M170 7.09766H20V34.9026H170V7.09766Z" fill="white"/>
</mask>
<g mask="url(#mask0_2866_4443)">
<path d="M44.1135 15.8811H44.6314C46.3825 15.8811 47.8049 17.3027 47.8049 19.0527V22.9474C47.8049 24.6976 46.3825 26.119 44.6314 26.119H40.4714C39.4848 26.119 39.0162 26.6202 39.0162 27.5733V31.731C39.0162 33.481 37.5939 34.9026 35.8427 34.9026H31.9458C30.1946 34.9026 28.7723 33.481 28.7723 31.731C28.7723 31.731 28.7723 28.6169 28.7723 27.5733C28.7723 26.5381 28.2625 26.119 27.3088 26.119H23.1735C21.4223 26.1108 20 24.6894 20 22.9392V19.0445C20 17.2944 21.4223 15.873 23.1735 15.873H27.3253C28.2461 15.873 28.7887 15.3553 28.7887 14.394V10.2693C28.7887 8.5191 30.211 7.09766 31.9622 7.09766H35.8592C37.6103 7.09766 39.0326 8.5191 39.0326 10.2693V14.4021C39.0326 15.4128 39.4025 15.8811 40.4631 15.8811H41.1948L39.0573 18.7981C37.4212 18.6666 36.114 17.2944 36.114 15.6265V11.4853C36.114 10.4747 35.7276 10.0145 34.6424 10.0145H33.1625C32.2417 10.0145 31.7073 10.5076 31.7073 11.4853V15.6265C31.7073 17.3766 30.285 18.7981 28.5338 18.7981H24.3902C23.3215 18.7981 22.9186 19.4965 22.9186 20.2771V21.7396C22.9186 22.6188 23.453 23.2021 24.3738 23.2021H28.5338C30.285 23.2021 31.7073 24.6236 31.7073 26.3738V30.5231C31.7073 31.4598 32.1759 31.9856 33.1461 31.9856H34.6342C35.5549 31.9856 36.1058 31.4269 36.1058 30.5066V26.3738C36.1058 24.6236 37.5281 23.2021 39.2792 23.2021H43.4393C44.4423 23.2021 44.8945 22.6927 44.8945 21.7232V20.2606C44.8945 19.2582 44.3683 18.7981 43.4064 18.7981H41.9758L44.1135 15.8811Z" fill="url(#paint0_linear_2866_4443)"/>
<path d="M80.5489 12.9492L87.1719 29.0468H84.1134L82.5728 25.229H75.1908L73.6728 29.0468H70.7549L77.2823 12.9492H80.5489ZM76.2253 22.5863H81.5159L78.8734 15.9854L76.2253 22.5863Z" fill="#8168F0"/>
<path d="M100.892 15.5974H92.318V29.0468H89.4451V12.9492H103.771V29.0468H100.898V15.5974H100.892Z" fill="#8168F0"/>
<path d="M119.816 15.5997H114.391V29.049H111.518V15.5997H106.182V12.957H119.816V15.5997Z" fill="#8168F0"/>
<path d="M132.508 22.0803H125.104V26.4041H133.61V29.0468H122.231V12.9492H133.357V15.5918H125.104V19.4321H132.508V22.0803Z" fill="#8168F0"/>
<path d="M68.327 22.0803H60.9225V26.4041H69.429V29.0468H58.0496V12.9492H69.176V15.5918H60.9225V19.4321H68.327V22.0803Z" fill="#8168F0"/>
<path d="M139.908 29.0468H137.035V12.9492H139.908V19.7076H142.321L147.493 12.9492H150.99L144.85 20.6072L151.979 29.0468H148.302L142.461 22.0803H139.908V29.0468Z" fill="#8168F0"/>
<path d="M162.057 12.9492L168.68 29.0468H165.621L164.081 25.229H156.699L155.181 29.0468H152.263L158.791 12.9492H162.057ZM157.733 22.5863H163.024L160.382 15.9854L157.733 22.5863Z" fill="#8168F0"/>
</g>
<defs>
<linearGradient id="paint0_linear_2866_4443" x1="27.8108" y1="31.5405" x2="40.3632" y2="9.78613" gradientUnits="userSpaceOnUse">
<stop stop-color="#8168F0"/>
<stop offset="0.137" stop-color="#7F6DF0"/>
<stop offset="0.2924" stop-color="#787AF0"/>
<stop offset="0.4568" stop-color="#6C91F1"/>
<stop offset="0.6273" stop-color="#5DB1F1"/>
<stop offset="0.8012" stop-color="#48D9F2"/>
<stop offset="0.8195" stop-color="#46DEF2"/>
<stop offset="1" stop-color="#50E3C2"/>
</linearGradient>
</defs>
</svg>
