<svg width="239" height="52" viewBox="0 0 239 52" fill="none" xmlns="http://www.w3.org/2000/svg">
<path d="M99.4415 38.6594H78.9057L105.123 3.9675C105.694 3.20574 105.536 2.09484 104.774 1.52352C104.488 1.30134 104.107 1.17438 103.726 1.17438H65.7971C62.4644 1.17438 59.7347 3.90402 59.7347 7.23673C59.7347 10.5694 62.4644 13.2991 65.7971 13.2991H82.8415L56.529 48.0227C55.9259 48.7844 56.0846 49.8636 56.8464 50.4666C57.1638 50.7206 57.5447 50.8475 57.9256 50.8158H99.4098C102.742 50.6571 105.313 47.8005 105.155 44.436C104.996 41.3255 102.52 38.8498 99.4098 38.6911V38.6594H99.4415ZM231.988 1.17438C228.655 1.17438 225.926 3.90402 225.926 7.23673V27.5821L193.17 1.587C192.44 0.983941 191.329 1.07916 190.726 1.84092C190.472 2.15832 190.345 2.5392 190.345 2.95182V44.7534C190.345 48.0861 193.075 50.8158 196.407 50.8158C199.74 50.8158 202.47 48.1179 202.47 44.7534V24.4081L235.225 50.4349C235.987 51.038 237.098 50.911 237.701 50.1492C237.955 49.8318 238.082 49.451 238.082 49.0701V7.23673C238.05 3.87228 235.352 1.17438 231.988 1.17438ZM145.306 39.802C131.435 39.802 121.088 32.5018 121.088 25.9633C121.088 19.4249 131.467 12.1247 145.306 12.1247C159.176 12.1247 169.523 19.4249 169.523 25.9633C169.523 32.5018 159.208 39.802 145.306 39.802ZM145.306 0C125.246 0 108.964 11.6169 108.964 25.9633C108.964 40.3098 125.246 51.9267 145.306 51.9267C165.366 51.9267 181.648 40.3098 181.648 25.9633C181.648 11.6169 165.366 0 145.306 0ZM25.9951 39.8337C18.3457 39.8337 12.1247 33.6444 12.1247 25.9951C12.1247 18.3457 18.314 12.1247 25.9633 12.1247C33.6127 12.1247 39.8337 18.314 39.8337 25.9633V25.9951C39.8337 33.6127 33.6444 39.802 25.9951 39.8337ZM25.9951 0C11.6486 0 0.03174 11.6169 0 25.9633C0 40.3098 11.6169 51.9267 25.9633 51.9584C40.3098 51.9584 51.9267 40.3416 51.9584 25.9951V25.9633C51.9267 11.6169 40.3098 0 25.9951 0Z" fill="white"/>
</svg>
