<svg width="290" height="78" viewBox="0 0 290 78" fill="none" xmlns="http://www.w3.org/2000/svg">
<mask id="mask0_1219_2448" style="mask-type:luminance" maskUnits="userSpaceOnUse" x="0" y="0" width="290" height="78">
<path d="M289.033 0H0V77.8167H289.033V0Z" fill="white"/>
</mask>
<g mask="url(#mask0_1219_2448)">
<path d="M8.97436 55.3057L0.152344 22.4709H5.93932L12.7176 47.6897L19.9821 22.4688L25.3765 22.4709L32.6664 47.8237L39.4752 22.4771L45.262 22.4688L36.4363 55.2998L29.7285 55.2929L22.6815 30.7724L15.6279 55.2992L8.97436 55.3057Z" fill="white"/>
<path d="M49.25 22.4844H54.7586V55.2808H49.25V22.4844Z" fill="white"/>
<path d="M66.5353 50.1363H79.9461V55.2808H61.1406V22.4844H66.5353V50.1363Z" fill="white"/>
<path d="M96.8964 22.5222C101.417 22.5222 105.178 24.111 108.142 27.2506C111.143 30.3903 112.663 34.2866 112.663 38.9015C112.663 43.4787 111.143 47.3749 108.142 50.5524C105.178 53.6921 101.417 55.2808 96.8964 55.2808H83.9414V22.4844H96.8964V22.5222ZM96.8964 50.1741C100.012 50.1741 102.557 49.1149 104.457 46.9966C106.432 44.8783 107.42 42.1547 107.42 38.9393C107.42 35.6484 106.432 33.0004 104.457 30.8821C102.519 28.7637 99.9736 27.7045 96.8964 27.7045H89.3741V50.1741H96.8964Z" fill="white"/>
<path d="M141.725 45.9118C141.725 48.5989 140.776 50.8319 138.838 52.6107C136.9 54.3896 134.621 55.2978 131.81 55.2978H117.715V22.4844H130.784C133.481 22.4844 135.76 23.3928 137.622 25.0959C139.522 26.8368 140.434 28.9941 140.434 31.5676C140.434 34.4441 139.293 36.6392 137.091 38.2667C139.977 39.7806 141.725 42.5055 141.725 45.9118ZM123.147 27.556V36.1851H130.821C133.215 36.1851 135.039 34.2927 135.039 31.8705C135.039 29.4482 133.215 27.556 130.821 27.556H123.147ZM131.847 50.2264C134.354 50.2264 136.331 48.2204 136.331 45.6469C136.331 43.0732 134.354 41.0674 131.847 41.0674H123.147V50.2642H131.847V50.2264Z" fill="white"/>
<path d="M152.25 50.1506H166.839V55.2978H146.855V22.4844H166.611V27.6316H152.25V36.1472H165.433V41.2565H152.25V50.1506Z" fill="white"/>
<path d="M190.467 55.2978L183.476 43.3381H177.093V55.2978H171.699V22.4844H184.882C187.845 22.4844 190.353 23.5062 192.366 25.5878C194.417 27.5938 195.482 30.0917 195.482 33.0437C195.482 37.2069 192.86 41.0294 188.947 42.5433L196.431 55.2978H190.467ZM177.093 27.5558V38.5315H184.844C187.731 38.5315 190.011 36.1093 190.011 33.0437C190.011 30.0159 187.694 27.5558 184.844 27.5558H177.093Z" fill="white"/>
<path d="M219.3 55.2992L212.347 43.3333H205.964V55.2992H200.57V22.4688H213.753C216.716 22.4688 219.224 23.4912 221.237 25.5739C223.288 27.5808 224.353 30.0799 224.353 33.0336C224.353 37.199 221.731 41.0235 217.818 42.5382L225.302 55.2992H219.3ZM205.964 27.5429V38.5243H213.715C216.602 38.5243 218.882 36.1008 218.882 33.0336C218.882 30.0043 216.565 27.5429 213.715 27.5429H205.964Z" fill="white"/>
<path d="M229.258 22.4766H234.653V55.3034H229.258V22.4766Z" fill="white"/>
<path d="M246.427 50.1506H261.015V55.2977H241.031V22.4844H260.787V27.6316H246.427V36.1472H259.609V41.2566H246.427V50.1506Z" fill="white"/>
<path d="M264.777 47.8325L269.45 45.1089C270.78 48.816 273.477 50.6317 277.618 50.6317C281.721 50.6317 283.734 48.8916 283.734 46.3194C283.734 44.9576 283.165 43.9741 282.101 43.2932C281.037 42.5745 279.062 41.78 276.251 40.9479C273.097 40.0022 271.54 39.3969 269.336 37.9595C267.209 36.4464 266.144 34.2902 266.144 31.3397C266.144 28.427 267.17 26.1574 269.26 24.4551C271.312 22.715 273.819 21.8828 276.745 21.8828C282.025 21.8828 286.09 24.6064 288.218 29.1078L283.658 31.718C282.29 28.6918 279.973 27.1408 276.745 27.1408C273.59 27.1408 271.577 28.7296 271.577 31.2262C271.577 33.6472 273.173 34.782 278.226 36.3329C279.48 36.7491 280.391 37.0517 280.961 37.2786C281.569 37.4678 282.366 37.8082 283.392 38.2243C284.457 38.6404 285.293 39.1322 285.786 39.5483C287.534 40.9101 289.395 43.1418 289.167 46.2816C289.167 49.2321 288.104 51.6152 285.938 53.3553C283.81 55.0955 280.999 55.9276 277.504 55.9276C271.122 55.8898 266.486 52.8636 264.777 47.8325Z" fill="white"/>
</g>
</svg>
