<svg version="1.1" xmlns="http://www.w3.org/2000/svg" xmlns:xlink="http://www.w3.org/1999/xlink">

    <symbol viewBox="0 0 148 48" id="logo">
        <path d="M143.1 4.64844C140.343 4.64844 138.172 6.88476 138.172 9.55889C138.172 12.233 140.314 14.4752 143.07 14.4752C145.827 14.4752 147.999 12.233 147.999 9.55889C147.999 6.8611 145.851 4.64844 143.094 4.64844M143.065 13.931C140.592 13.931 138.734 11.9904 138.734 9.58846C138.734 7.18648 140.609 5.19273 143.088 5.19273C145.567 5.19273 147.419 7.13324 147.419 9.53522C147.419 11.9609 145.543 13.931 143.059 13.931" />
        <path d="M145.431 8.54796C145.431 8.06283 145.283 7.66645 144.999 7.37655C144.632 7.00975 144.088 6.80859 143.384 6.80859H141.064V12.0326H142.218V10.3524H143.1L144.241 12.0326H145.584L144.307 10.1631C144.975 9.9146 145.431 9.38806 145.431 8.54796ZM143.366 9.3644H142.212V7.8321H143.336C143.904 7.8321 144.259 8.09242 144.259 8.58938C144.259 9.05084 143.946 9.3644 143.36 9.3644" />
        <path d="M55.7882 5.26687V29.683H51.0612L49.7833 27.3047C47.5114 29.2334 44.5652 30.3634 41.4 30.3634C34.2059 30.3634 28.4258 24.5892 28.4258 17.4483C28.4258 10.3075 34.2059 4.52734 41.4 4.52734C44.5711 4.52734 47.5174 5.66326 49.7833 7.59194L51.6232 5.26687H55.7882ZM48.3338 17.4483C48.3338 15.6912 47.7126 13.9933 46.4643 12.7449C45.2751 11.5025 43.6896 10.8222 41.9857 10.8222C40.2818 10.8222 38.6963 11.5025 37.4539 12.7449C36.2647 13.9933 35.5844 15.6912 35.5844 17.4483C35.5844 19.2054 36.2647 20.8442 37.4539 22.1517C38.7022 23.3941 40.2878 24.0745 41.9857 24.0745C43.6837 24.0745 45.2692 23.3941 46.4643 22.1517C47.7126 20.8501 48.3338 19.2054 48.3338 17.4483Z" />
        <path d="M65.9784 7.41871C67.3806 5.65569 70.4866 4.57894 72.9773 4.51387C81.2659 4.31271 84.8984 9.13441 84.8984 17.5591V29.6873H77.9883V17.5591C77.9883 13.3822 75.5923 10.7555 72.1964 10.7555C68.8005 10.7555 66.2092 13.2225 66.2092 17.5591V29.6873H59.0742V5.27114H63.5764L65.9843 7.42464L65.9784 7.41871Z" />
        <path d="M86.0634 29.6818V27.8714L98.7951 11.4421H87.5011L84.9512 5.26562H110.012V7.04641L97.1563 23.452H108.427L110.971 29.6818H86.0634Z" />
        <path d="M136.162 17.4483C136.162 24.6424 130.157 30.3634 122.62 30.3634C115.082 30.3634 109.143 24.6424 109.143 17.4483C109.143 10.2542 115.148 4.52734 122.62 4.52734C130.157 4.52734 136.162 10.3075 136.162 17.4483ZM129.021 17.3892C129.021 15.6321 128.4 13.9933 127.211 12.7449C125.962 11.4434 124.436 10.763 122.679 10.763C121.034 10.763 119.395 11.4434 118.259 12.7449C116.952 13.9933 116.331 15.6912 116.331 17.4483C116.331 19.2054 116.952 20.9034 118.259 22.205C119.389 23.4533 121.034 24.1277 122.679 24.1277C124.436 24.1277 125.962 23.4474 127.211 22.205C128.4 20.9034 129.021 19.2054 129.021 17.3892Z" />
        <path d="M29.0249 0.00591747L16.3287 4.8217C15.7548 4.76845 15.1751 4.70929 14.6012 4.70929C7.92771 4.70929 2.46114 9.7144 2.46114 15.9264C2.46114 19.4347 4.24192 22.5999 6.95154 24.6706H6.96337L2.98177 32.1486C1.01167 33.7283 0 35.8877 0 38.5618C0 41.4371 1.37847 43.91 3.91061 45.5193C6.29484 46.9983 9.62566 47.7378 14.122 47.7615C14.122 47.7615 14.1397 47.7615 14.1516 47.7615C14.1811 47.7615 14.2107 47.7615 14.2403 47.7615C14.2699 47.7615 14.2995 47.7615 14.3231 47.7615C14.335 47.7615 14.3409 47.7615 14.3527 47.7615C19.0147 47.7378 22.4106 46.9983 24.7356 45.5193C27.2086 43.91 28.4747 41.5495 28.4747 38.5559C28.4747 35.5623 27.0962 33.2076 24.5641 31.5984C22.1858 30.1253 18.849 29.3799 14.3527 29.3562H14.3231C14.2935 29.3562 14.264 29.3562 14.2344 29.3562C14.2048 29.3562 14.1811 29.3562 14.1516 29.3562H14.122C13.1044 29.368 12.1637 29.4094 11.2704 29.4863L11.9093 26.8418L11.9566 26.8596C12.8204 27.037 13.6842 27.1494 14.6012 27.1494C21.393 27.1494 26.8596 22.1443 26.8596 15.9264C26.8596 13.1695 25.7651 10.6314 23.9843 8.73231L29.0308 4.77437V0L29.0249 0.00591747ZM14.2107 35.9173C18.4881 35.9291 21.393 36.8402 21.393 38.5559C21.393 40.3899 19.1212 41.1886 14.2521 41.2063C9.97472 41.1945 7.06986 40.2775 7.06986 38.5618C7.06986 36.7337 9.34168 35.9291 14.2107 35.9173ZM14.6012 20.7067C12.0099 20.7067 9.42451 18.7544 9.42451 15.9323C9.42451 13.4594 11.6667 11.152 14.6012 11.152C17.5356 11.152 19.837 13.2286 19.837 15.9323C19.837 18.4053 17.5948 20.7067 14.6012 20.7067Z" />
    </symbol>

    <symbol viewBox="0 0 25 24" id="nav-catalogue">
        <path d="M8.5 6H21.5" stroke-width="2" stroke-linecap="round" stroke-linejoin="round" />
        <path d="M8.5 12H21.5" stroke-width="2" stroke-linecap="round" stroke-linejoin="round" />
        <path d="M8.5 18H21.5" stroke-width="2" stroke-linecap="round" stroke-linejoin="round" />
        <path d="M3.5 6H3.51" stroke-width="2" stroke-linecap="round" stroke-linejoin="round" />
        <path d="M3.5 12H3.51" stroke-width="2" stroke-linecap="round" stroke-linejoin="round" />
        <path d="M3.5 18H3.51" stroke-width="2" stroke-linecap="round" stroke-linejoin="round" />
    </symbol>

    <symbol viewBox="0 0 28 23" id="menu-mobile-link">
        <rect width="28" height="3" />
        <rect y="10" width="28" height="3" />
        <rect y="20" width="28" height="3" />
    </symbol>

    <symbol viewBox="0 0 32 32" id="menu-mobile-close">
        <rect x="6.66113" y="5" width="28" height="3" transform="rotate(45 6.66113 5)" />
        <rect x="26.4604" y="7.12109" width="28" height="3" transform="rotate(135 26.4604 7.12109)" />
    </symbol>

    <symbol viewBox="0 0 24 24" id="icon-search">
        <path d="M11 19C15.4183 19 19 15.4183 19 11C19 6.58172 15.4183 3 11 3C6.58172 3 3 6.58172 3 11C3 15.4183 6.58172 19 11 19Z" stroke-width="2" stroke-linecap="round" stroke-linejoin="round" />
        <path d="M21.0004 20.9984L16.6504 16.6484" stroke-width="2" stroke-linecap="round" stroke-linejoin="round" />
    </symbol>

    <symbol viewBox="0 0 22 22" id="search-window-close">
        <rect x="2.12109" width="28" height="3" transform="rotate(45 2.12109 0)" />
        <rect x="21.9199" y="2.12109" width="28" height="3" transform="rotate(135 21.9199 2.12109)" />
    </symbol>

    <symbol viewBox="0 0 32 32" id="icon-vk">
        <path fill-rule="evenodd" clip-rule="evenodd" d="M20.9118 0H11.0882C2.12279 0 0 2.12279 0 11.0882V20.9118C0 29.8772 2.12279 32 11.0882 32H20.9118C29.8772 32 32 29.8772 32 20.9118V11.0882C32 2.12279 29.8772 0 20.9118 0ZM25.4964 10.1632C26.1965 10.1632 26.3545 10.5245 26.1964 11.0214C25.9497 12.16 23.901 15.1804 23.2665 16.1159C23.1459 16.2936 23.0764 16.3961 23.08 16.3961C22.8316 16.8026 22.7413 16.9833 23.08 17.4349C23.2025 17.6019 23.4621 17.8567 23.7589 18.1479C24.0641 18.4474 24.4086 18.7854 24.6834 19.106C25.677 20.2352 26.4449 21.1837 26.6481 21.8386C26.8288 22.4935 26.5126 22.8322 25.8351 22.8322H23.5091C22.8927 22.8322 22.5749 22.4782 21.8977 21.7238C21.6074 21.4003 21.2509 21.0032 20.7766 20.5288C19.399 19.1964 18.7893 19.0157 18.4505 19.0157C17.9763 19.0157 17.8408 19.1286 17.8408 19.8061V21.9063C17.8408 22.4709 17.6601 22.8096 16.1696 22.8096C13.7081 22.8096 10.9756 21.3192 9.05602 18.5415C6.1654 14.4765 5.375 11.4053 5.375 10.7955C5.375 10.4568 5.48791 10.1406 6.1654 10.1406H8.51403C9.10118 10.1406 9.32701 10.389 9.55284 11.0439C10.7046 14.3636 12.6241 17.2768 13.4145 17.2768C13.7081 17.2768 13.8436 17.1413 13.8436 16.3961V12.9635C13.7878 11.9878 13.4482 11.5627 13.1963 11.2475C13.0401 11.052 12.9177 10.8987 12.9177 10.6826C12.9177 10.4116 13.1435 10.1406 13.5049 10.1406H17.1633C17.6601 10.1406 17.8408 10.4116 17.8408 10.9988V15.6283C17.8408 16.1251 18.044 16.3058 18.2021 16.3058C18.4957 16.3058 18.7441 16.1251 19.2861 15.5831C20.9572 13.7087 22.1541 10.8181 22.1541 10.8181C22.3122 10.4794 22.5832 10.1632 23.1703 10.1632H25.4964Z" />
    </symbol>

    <symbol viewBox="0 0 32 32" id="icon-telegram">
        <path fill-rule="evenodd" clip-rule="evenodd" d="M32 16C32 24.8366 24.8366 32 16 32C7.16344 32 0 24.8366 0 16C0 7.16344 7.16344 0 16 0C24.8366 0 32 7.16344 32 16ZM10.7113 14.5333C9.10855 15.2331 7.46171 15.9521 5.95582 16.7816L5.95572 16.7817C5.1694 17.3574 6.21457 17.7646 7.19502 18.1466C7.35089 18.2073 7.50513 18.2674 7.65012 18.3274C7.77076 18.3645 7.89346 18.4036 8.01778 18.4432C9.10823 18.7906 10.3242 19.178 11.3828 18.5953C13.1218 17.5963 14.763 16.4413 16.4029 15.2873C16.9402 14.9091 17.4773 14.5311 18.0177 14.1587C18.043 14.1425 18.0716 14.124 18.1028 14.1038C18.5632 13.8053 19.5986 13.1342 19.2156 14.059C18.31 15.0494 17.3399 15.9261 16.3646 16.8076C15.7073 17.4017 15.0476 17.9979 14.4036 18.6326C13.8427 19.0883 13.2603 20.0048 13.8883 20.643C15.3349 21.6557 16.8041 22.6438 18.2725 23.6314C18.7503 23.9528 19.228 24.2741 19.7049 24.5962C20.513 25.2414 21.776 24.7195 21.9537 23.7113C22.0327 23.2474 22.112 22.7835 22.1914 22.3196C22.6298 19.7566 23.0683 17.1926 23.4557 14.6213C23.5083 14.2179 23.568 13.8146 23.6277 13.411C23.7725 12.4329 23.9174 11.4537 23.9626 10.4703C23.846 9.48903 22.6561 9.70479 21.994 9.92545C18.5905 11.2205 15.221 12.6116 11.8649 14.0272C11.4847 14.1956 11.0993 14.3639 10.7113 14.5333Z" />
    </symbol>

    <symbol viewBox="0 0 32 32" id="icon-instagram">
        <path fill-rule="evenodd" clip-rule="evenodd" d="M16 0C7.16344 0 0 7.16344 0 16C0 24.8366 7.16344 32 16 32C24.8366 32 32 24.8366 32 16C32 7.16344 24.8366 0 16 0ZM12.4843 7.52031C13.3945 7.47888 13.6853 7.46875 16.0029 7.46875H16.0002C18.3185 7.46875 18.6082 7.47888 19.5185 7.52031C20.4269 7.56191 21.0474 7.70573 21.5914 7.91675C22.1532 8.13453 22.6278 8.42609 23.1025 8.90077C23.5772 9.37508 23.8687 9.85117 24.0874 10.4124C24.2972 10.955 24.4412 11.5751 24.4839 12.4836C24.5247 13.3938 24.5354 13.6846 24.5354 16.0022C24.5354 18.3197 24.5247 18.6098 24.4839 19.5201C24.4412 20.4282 24.2972 21.0484 24.0874 21.5912C23.8687 22.1523 23.5772 22.6284 23.1025 23.1027C22.6284 23.5774 22.153 23.8696 21.5919 24.0876C21.049 24.2986 20.4282 24.4424 19.5197 24.484C18.6095 24.5255 18.3195 24.5356 16.0018 24.5356C13.6845 24.5356 13.3938 24.5255 12.4836 24.484C11.5753 24.4424 10.955 24.2986 10.4121 24.0876C9.85118 23.8696 9.37508 23.5774 8.90094 23.1027C8.42645 22.6284 8.13489 22.1523 7.91675 21.591C7.70591 21.0484 7.56208 20.4284 7.52031 19.5199C7.47906 18.6097 7.46875 18.3197 7.46875 16.0022C7.46875 13.6846 7.47942 13.3936 7.52013 12.4834C7.56102 11.5753 7.70502 10.955 7.91658 10.4122C8.13525 9.85118 8.4268 9.37508 8.90148 8.90077C9.37579 8.42627 9.85189 8.13471 10.4131 7.91675C10.9557 7.70573 11.5758 7.56191 12.4843 7.52031Z" />
        <path d="M15.234 9.00213C15.4612 9.00178 15.7147 9.00213 15.9995 9.00213C18.278 9.00213 18.548 9.01031 19.4477 9.0512C20.2798 9.08925 20.7313 9.22827 21.0321 9.34507C21.4303 9.49974 21.7143 9.68463 22.0128 9.9833C22.3114 10.282 22.4963 10.5664 22.6513 10.9646C22.7681 11.2651 22.9073 11.7167 22.9452 12.5487C22.9861 13.4482 22.995 13.7184 22.995 15.9958C22.995 18.2732 22.9861 18.5434 22.9452 19.443C22.9072 20.275 22.7681 20.7265 22.6513 21.027C22.4967 21.4252 22.3114 21.7088 22.0128 22.0072C21.7141 22.3059 21.4305 22.4908 21.0321 22.6455C20.7317 22.7628 20.2798 22.9015 19.4477 22.9395C18.5482 22.9804 18.278 22.9893 15.9995 22.9893C13.7209 22.9893 13.4509 22.9804 12.5513 22.9395C11.7193 22.9011 11.2678 22.7621 10.9668 22.6453C10.5685 22.4906 10.2841 22.3057 9.98543 22.0071C9.68676 21.7084 9.50187 21.4247 9.34684 21.0263C9.23004 20.7258 9.09084 20.2743 9.05297 19.4422C9.01208 18.5427 9.00391 18.2725 9.00391 15.9937C9.00391 13.7149 9.01208 13.4461 9.05297 12.5465C9.09102 11.7145 9.23004 11.263 9.34684 10.9622C9.50151 10.5639 9.68676 10.2795 9.98543 9.98081C10.2841 9.68214 10.5685 9.49725 10.9668 9.34223C11.2676 9.22489 11.7193 9.08622 12.5513 9.048C13.3385 9.01244 13.6436 9.00178 15.234 9V9.00213Z" />
        <path d="M15.2173 20L15.3544 17.0694L12.7863 18.6597L12 17.3403L14.7268 16L12 14.6597L12.7863 13.3403L15.3544 14.9306L15.2173 12H16.7827L16.6456 14.9306L19.2137 13.3403L20 14.6597L17.2732 16L20 17.3403L19.2137 18.6597L16.6456 17.0694L16.7827 20H15.2173Z" fill="#100D22" />
    </symbol>

    <symbol viewBox="0 0 17 10" id="catalogue-filter">
        <path d="M2 2L8.5 8L15 2" stroke-width="2.44444" stroke-linecap="round" stroke-linejoin="round" />
    </symbol>

    <symbol viewBox="0 0 10 16" id="detail-back">
        <path d="M8 1.5L2 8L8 14.5" stroke-width="2.44444" stroke-linecap="round" stroke-linejoin="round" />
    </symbol>

    <symbol viewBox="0 0 32 32" id="faq-arrow">
        <path d="M8 12L16 20L24 12" stroke-width="2.66667" stroke-linecap="round" stroke-linejoin="round" />
    </symbol>

    <symbol viewBox="0 0 32 32" id="pager-prev">
        <path d="M19 10L13 16L19 22" stroke-width="2" stroke-linecap="round" stroke-linejoin="round" />
    </symbol>

    <symbol viewBox="0 0 32 32" id="pager-next">
        <path d="M13 22L19 16L13 10" stroke-width="2" stroke-linecap="round" stroke-linejoin="round" />
    </symbol>

    <symbol viewBox="0 0 21 20" id="icon-download">
        <path d="M18 12.5V15.8333C18 16.2754 17.8244 16.6993 17.5118 17.0118C17.1993 17.3244 16.7754 17.5 16.3333 17.5H4.66667C4.22464 17.5 3.80072 17.3244 3.48816 17.0118C3.17559 16.6993 3 16.2754 3 15.8333V12.5" stroke-width="1.5" stroke-linecap="round" stroke-linejoin="round" />
        <path d="M6.3335 8.33203L10.5002 12.4987L14.6668 8.33203" stroke-width="1.5" stroke-linecap="round" stroke-linejoin="round" />
        <path d="M10.5 12.5V2.5" stroke-width="1.5" stroke-linecap="round" stroke-linejoin="round" />
    </symbol>

</svg>