<svg version="1.1" xmlns="http://www.w3.org/2000/svg" xmlns:xlink="http://www.w3.org/1999/xlink">

    <symbol viewBox="0 0 136 48" id="logo">
        <path d="M21.7337 2.15197C18.8077 3.3184 15.6429 4.23925 14.2098 4.23925C10.4479 4.23925 5.84994 6.87905 4.05854 10.01C1.67001 14.2459 2.14772 19.3413 5.31252 22.7178L6.80536 24.3754L4.71539 28.5499C3.52112 30.8828 1.96858 33.5226 1.31173 34.4434C-1.25594 37.6971 0.117464 43.4678 3.93912 45.9235C7.93991 48.4405 18.8675 48.7474 23.2265 46.4146C26.1525 44.8798 27.2273 43.1609 27.4662 39.6616C27.9439 33.4612 24.3611 30.5144 15.8221 30.1461C10.9256 29.9005 10.8659 29.8391 11.045 28.3658C11.2241 26.9538 11.463 26.831 14.8667 26.7082C19.2257 26.524 22.2114 24.8665 24.4805 21.3672C26.5705 18.1135 26.6899 13.4478 24.7791 10.2555L23.4654 8.04547L25.8539 6.08097C27.8245 4.48482 28.2424 3.74813 28.2424 2.02919C28.2424 0.739991 27.9439 -0.0580848 27.5259 0.00330576C27.1079 0.0646963 24.4805 0.985554 21.7337 2.15197ZM17.9718 11.7289C21.256 14.5529 18.6883 20.8147 14.2695 20.8147C10.8659 20.8147 8.17876 17.1313 9.2536 13.8776C10.3284 10.808 15.4041 9.51884 17.9718 11.7289ZM19.584 36.899C20.4797 37.3288 21.0768 38.0655 21.0768 38.9249C21.0768 40.828 18.8077 41.6875 13.9112 41.6875C6.9845 41.6875 4.17797 39.2933 8.23848 36.899C9.79102 35.9782 17.6135 35.9782 19.584 36.899Z" />
        <path d="M36.0052 5.22151C26.9885 9.27329 25.9733 22.3495 34.3332 27.9974C37.916 30.453 43.3499 30.6986 47.0521 28.6113C49.6795 27.0766 49.7392 27.0766 50.3364 28.243C50.8141 29.0411 51.5903 29.4094 53.0235 29.4094H55.1134V4.85317H53.4415C52.486 4.85317 51.2918 5.34429 50.6946 6.01959C49.7392 7.12462 49.6198 7.06323 46.9327 5.71264C43.7082 3.9937 39.17 3.80953 36.0052 5.22151ZM45.4996 11.3606C47.6493 12.9567 48.7241 16.0876 47.9478 18.9116C47.291 21.6128 45.8579 23.0862 43.4096 23.8229C39.1103 25.0507 35.408 21.8584 35.408 16.9471C35.408 14.6757 35.7066 13.8162 37.2591 12.2814C38.6923 10.7467 39.588 10.3783 41.6182 10.3783C42.9916 10.3783 44.7233 10.8081 45.4996 11.3606Z" />
        <path d="M69.4447 4.669C68.9669 4.85317 67.8324 5.52846 66.9964 6.14237C65.4439 7.2474 65.3842 7.2474 64.369 6.08098C63.7122 5.34429 62.5179 4.85317 61.2639 4.85317H59.2934V29.4094H65.8619V22.6564C65.8619 14.5529 66.6381 11.9745 69.5641 10.7467C73.2663 9.08912 76.6103 10.9308 77.7448 15.1054C78.1031 16.3946 78.4017 20.1394 78.4017 23.3931V29.4094H84.4924L84.2536 20.3236C84.0744 12.0359 83.955 11.115 82.6413 8.90495C80.8499 5.9582 77.3865 4.23926 73.326 4.30065C71.7138 4.30065 69.9224 4.48482 69.4447 4.669Z" />
        <path d="M116.857 5.71265C107.183 10.3169 107.183 23.6387 116.857 28.4886C123.366 31.8037 130.83 29.7164 134.234 23.6387C140.563 12.2201 128.74 0.00333013 116.857 5.71265ZM127.844 12.527C129.755 14.8599 129.815 18.7888 127.904 21.5514C124.261 26.7082 116.558 23.7615 116.379 17.1313C116.26 10.8695 123.784 7.79993 127.844 12.527Z" />
        <path d="M85.5672 5.09873C85.5672 5.22151 86.1047 6.6335 86.7615 8.16826L87.8961 10.9922H93.33C96.2559 10.9922 98.7042 11.115 98.7042 11.2992C98.7042 11.4834 95.8976 15.351 92.4343 19.8325C88.9709 24.3754 86.1644 28.3658 86.1644 28.7341C86.1644 29.2252 90.0457 29.4094 98.4056 29.4094H110.587L109.572 26.6468L108.617 23.8842H103.183C100.137 23.8842 97.5696 23.7001 97.3308 23.5159C97.1516 23.3317 99.8984 19.28 103.541 14.6143C107.124 9.94859 110.05 5.83542 110.05 5.46708C110.05 5.09873 105.81 4.85317 97.8085 4.85317C91.0609 4.85317 85.5672 4.97595 85.5672 5.09873Z" />
    </symbol>

    <symbol viewBox="0 0 25 24" id="nav-catalogue">
        <path d="M8.5 6H21.5" stroke-width="2" stroke-linecap="round" stroke-linejoin="round" />
        <path d="M8.5 12H21.5" stroke-width="2" stroke-linecap="round" stroke-linejoin="round" />
        <path d="M8.5 18H21.5" stroke-width="2" stroke-linecap="round" stroke-linejoin="round" />
        <path d="M3.5 6H3.51" stroke-width="2" stroke-linecap="round" stroke-linejoin="round" />
        <path d="M3.5 12H3.51" stroke-width="2" stroke-linecap="round" stroke-linejoin="round" />
        <path d="M3.5 18H3.51" stroke-width="2" stroke-linecap="round" stroke-linejoin="round" />
    </symbol>

    <symbol viewBox="0 0 28 23" id="menu-mobile-link">
        <rect width="28" height="3" />
        <rect y="10" width="28" height="3" />
        <rect y="20" width="28" height="3" />
    </symbol>

    <symbol viewBox="0 0 32 32" id="menu-mobile-close">
        <rect x="6.66113" y="5" width="28" height="3" transform="rotate(45 6.66113 5)" />
        <rect x="26.4604" y="7.12109" width="28" height="3" transform="rotate(135 26.4604 7.12109)" />
    </symbol>

    <symbol viewBox="0 0 24 24" id="icon-search">
        <path d="M11 19C15.4183 19 19 15.4183 19 11C19 6.58172 15.4183 3 11 3C6.58172 3 3 6.58172 3 11C3 15.4183 6.58172 19 11 19Z" stroke-width="2" stroke-linecap="round" stroke-linejoin="round" />
        <path d="M21.0004 20.9984L16.6504 16.6484" stroke-width="2" stroke-linecap="round" stroke-linejoin="round" />
    </symbol>

    <symbol viewBox="0 0 22 22" id="search-window-close">
        <rect x="2.12109" width="28" height="3" transform="rotate(45 2.12109 0)" />
        <rect x="21.9199" y="2.12109" width="28" height="3" transform="rotate(135 21.9199 2.12109)" />
    </symbol>

    <symbol viewBox="0 0 32 32" id="icon-vk">
        <path fill-rule="evenodd" clip-rule="evenodd" d="M20.9118 0H11.0882C2.12279 0 0 2.12279 0 11.0882V20.9118C0 29.8772 2.12279 32 11.0882 32H20.9118C29.8772 32 32 29.8772 32 20.9118V11.0882C32 2.12279 29.8772 0 20.9118 0ZM25.4964 10.1632C26.1965 10.1632 26.3545 10.5245 26.1964 11.0214C25.9497 12.16 23.901 15.1804 23.2665 16.1159C23.1459 16.2936 23.0764 16.3961 23.08 16.3961C22.8316 16.8026 22.7413 16.9833 23.08 17.4349C23.2025 17.6019 23.4621 17.8567 23.7589 18.1479C24.0641 18.4474 24.4086 18.7854 24.6834 19.106C25.677 20.2352 26.4449 21.1837 26.6481 21.8386C26.8288 22.4935 26.5126 22.8322 25.8351 22.8322H23.5091C22.8927 22.8322 22.5749 22.4782 21.8977 21.7238C21.6074 21.4003 21.2509 21.0032 20.7766 20.5288C19.399 19.1964 18.7893 19.0157 18.4505 19.0157C17.9763 19.0157 17.8408 19.1286 17.8408 19.8061V21.9063C17.8408 22.4709 17.6601 22.8096 16.1696 22.8096C13.7081 22.8096 10.9756 21.3192 9.05602 18.5415C6.1654 14.4765 5.375 11.4053 5.375 10.7955C5.375 10.4568 5.48791 10.1406 6.1654 10.1406H8.51403C9.10118 10.1406 9.32701 10.389 9.55284 11.0439C10.7046 14.3636 12.6241 17.2768 13.4145 17.2768C13.7081 17.2768 13.8436 17.1413 13.8436 16.3961V12.9635C13.7878 11.9878 13.4482 11.5627 13.1963 11.2475C13.0401 11.052 12.9177 10.8987 12.9177 10.6826C12.9177 10.4116 13.1435 10.1406 13.5049 10.1406H17.1633C17.6601 10.1406 17.8408 10.4116 17.8408 10.9988V15.6283C17.8408 16.1251 18.044 16.3058 18.2021 16.3058C18.4957 16.3058 18.7441 16.1251 19.2861 15.5831C20.9572 13.7087 22.1541 10.8181 22.1541 10.8181C22.3122 10.4794 22.5832 10.1632 23.1703 10.1632H25.4964Z" />
    </symbol>

    <symbol viewBox="0 0 32 32" id="icon-telegram">
        <path fill-rule="evenodd" clip-rule="evenodd" d="M32 16C32 24.8366 24.8366 32 16 32C7.16344 32 0 24.8366 0 16C0 7.16344 7.16344 0 16 0C24.8366 0 32 7.16344 32 16ZM10.7113 14.5333C9.10855 15.2331 7.46171 15.9521 5.95582 16.7816L5.95572 16.7817C5.1694 17.3574 6.21457 17.7646 7.19502 18.1466C7.35089 18.2073 7.50513 18.2674 7.65012 18.3274C7.77076 18.3645 7.89346 18.4036 8.01778 18.4432C9.10823 18.7906 10.3242 19.178 11.3828 18.5953C13.1218 17.5963 14.763 16.4413 16.4029 15.2873C16.9402 14.9091 17.4773 14.5311 18.0177 14.1587C18.043 14.1425 18.0716 14.124 18.1028 14.1038C18.5632 13.8053 19.5986 13.1342 19.2156 14.059C18.31 15.0494 17.3399 15.9261 16.3646 16.8076C15.7073 17.4017 15.0476 17.9979 14.4036 18.6326C13.8427 19.0883 13.2603 20.0048 13.8883 20.643C15.3349 21.6557 16.8041 22.6438 18.2725 23.6314C18.7503 23.9528 19.228 24.2741 19.7049 24.5962C20.513 25.2414 21.776 24.7195 21.9537 23.7113C22.0327 23.2474 22.112 22.7835 22.1914 22.3196C22.6298 19.7566 23.0683 17.1926 23.4557 14.6213C23.5083 14.2179 23.568 13.8146 23.6277 13.411C23.7725 12.4329 23.9174 11.4537 23.9626 10.4703C23.846 9.48903 22.6561 9.70479 21.994 9.92545C18.5905 11.2205 15.221 12.6116 11.8649 14.0272C11.4847 14.1956 11.0993 14.3639 10.7113 14.5333Z" />
    </symbol>

    <symbol viewBox="0 0 32 32" id="icon-instagram">
        <path fill-rule="evenodd" clip-rule="evenodd" d="M16 0C7.16344 0 0 7.16344 0 16C0 24.8366 7.16344 32 16 32C24.8366 32 32 24.8366 32 16C32 7.16344 24.8366 0 16 0ZM12.4843 7.52031C13.3945 7.47888 13.6853 7.46875 16.0029 7.46875H16.0002C18.3185 7.46875 18.6082 7.47888 19.5185 7.52031C20.4269 7.56191 21.0474 7.70573 21.5914 7.91675C22.1532 8.13453 22.6278 8.42609 23.1025 8.90077C23.5772 9.37508 23.8687 9.85117 24.0874 10.4124C24.2972 10.955 24.4412 11.5751 24.4839 12.4836C24.5247 13.3938 24.5354 13.6846 24.5354 16.0022C24.5354 18.3197 24.5247 18.6098 24.4839 19.5201C24.4412 20.4282 24.2972 21.0484 24.0874 21.5912C23.8687 22.1523 23.5772 22.6284 23.1025 23.1027C22.6284 23.5774 22.153 23.8696 21.5919 24.0876C21.049 24.2986 20.4282 24.4424 19.5197 24.484C18.6095 24.5255 18.3195 24.5356 16.0018 24.5356C13.6845 24.5356 13.3938 24.5255 12.4836 24.484C11.5753 24.4424 10.955 24.2986 10.4121 24.0876C9.85118 23.8696 9.37508 23.5774 8.90094 23.1027C8.42645 22.6284 8.13489 22.1523 7.91675 21.591C7.70591 21.0484 7.56208 20.4284 7.52031 19.5199C7.47906 18.6097 7.46875 18.3197 7.46875 16.0022C7.46875 13.6846 7.47942 13.3936 7.52013 12.4834C7.56102 11.5753 7.70502 10.955 7.91658 10.4122C8.13525 9.85118 8.4268 9.37508 8.90148 8.90077C9.37579 8.42627 9.85189 8.13471 10.4131 7.91675C10.9557 7.70573 11.5758 7.56191 12.4843 7.52031Z" />
        <path d="M15.234 9.00213C15.4612 9.00178 15.7147 9.00213 15.9995 9.00213C18.278 9.00213 18.548 9.01031 19.4477 9.0512C20.2798 9.08925 20.7313 9.22827 21.0321 9.34507C21.4303 9.49974 21.7143 9.68463 22.0128 9.9833C22.3114 10.282 22.4963 10.5664 22.6513 10.9646C22.7681 11.2651 22.9073 11.7167 22.9452 12.5487C22.9861 13.4482 22.995 13.7184 22.995 15.9958C22.995 18.2732 22.9861 18.5434 22.9452 19.443C22.9072 20.275 22.7681 20.7265 22.6513 21.027C22.4967 21.4252 22.3114 21.7088 22.0128 22.0072C21.7141 22.3059 21.4305 22.4908 21.0321 22.6455C20.7317 22.7628 20.2798 22.9015 19.4477 22.9395C18.5482 22.9804 18.278 22.9893 15.9995 22.9893C13.7209 22.9893 13.4509 22.9804 12.5513 22.9395C11.7193 22.9011 11.2678 22.7621 10.9668 22.6453C10.5685 22.4906 10.2841 22.3057 9.98543 22.0071C9.68676 21.7084 9.50187 21.4247 9.34684 21.0263C9.23004 20.7258 9.09084 20.2743 9.05297 19.4422C9.01208 18.5427 9.00391 18.2725 9.00391 15.9937C9.00391 13.7149 9.01208 13.4461 9.05297 12.5465C9.09102 11.7145 9.23004 11.263 9.34684 10.9622C9.50151 10.5639 9.68676 10.2795 9.98543 9.98081C10.2841 9.68214 10.5685 9.49725 10.9668 9.34223C11.2676 9.22489 11.7193 9.08622 12.5513 9.048C13.3385 9.01244 13.6436 9.00178 15.234 9V9.00213Z" />
        <path d="M15.2173 20L15.3544 17.0694L12.7863 18.6597L12 17.3403L14.7268 16L12 14.6597L12.7863 13.3403L15.3544 14.9306L15.2173 12H16.7827L16.6456 14.9306L19.2137 13.3403L20 14.6597L17.2732 16L20 17.3403L19.2137 18.6597L16.6456 17.0694L16.7827 20H15.2173Z" fill="#100D22" />
    </symbol>

    <symbol viewBox="0 0 17 10" id="catalogue-filter">
        <path d="M2 2L8.5 8L15 2" stroke-width="2.44444" stroke-linecap="round" stroke-linejoin="round" />
    </symbol>

    <symbol viewBox="0 0 10 16" id="detail-back">
        <path d="M8 1.5L2 8L8 14.5" stroke-width="2.44444" stroke-linecap="round" stroke-linejoin="round" />
    </symbol>

    <symbol viewBox="0 0 32 32" id="faq-arrow">
        <path d="M8 12L16 20L24 12" stroke-width="2.66667" stroke-linecap="round" stroke-linejoin="round" />
    </symbol>

    <symbol viewBox="0 0 32 32" id="pager-prev">
        <path d="M19 10L13 16L19 22" stroke-width="2" stroke-linecap="round" stroke-linejoin="round" />
    </symbol>

    <symbol viewBox="0 0 32 32" id="pager-next">
        <path d="M13 22L19 16L13 10" stroke-width="2" stroke-linecap="round" stroke-linejoin="round" />
    </symbol>

    <symbol viewBox="0 0 21 20" id="icon-download">
        <path d="M18 12.5V15.8333C18 16.2754 17.8244 16.6993 17.5118 17.0118C17.1993 17.3244 16.7754 17.5 16.3333 17.5H4.66667C4.22464 17.5 3.80072 17.3244 3.48816 17.0118C3.17559 16.6993 3 16.2754 3 15.8333V12.5" stroke-width="1.5" stroke-linecap="round" stroke-linejoin="round" />
        <path d="M6.3335 8.33203L10.5002 12.4987L14.6668 8.33203" stroke-width="1.5" stroke-linecap="round" stroke-linejoin="round" />
        <path d="M10.5 12.5V2.5" stroke-width="1.5" stroke-linecap="round" stroke-linejoin="round" />
    </symbol>

</svg>